<?xml version="1.0" encoding="UTF-8" standalone="no"?>
<!DOCTYPE svg PUBLIC "-//W3C//DTD SVG 1.1//EN"
 "http://www.w3.org/Graphics/SVG/1.1/DTD/svg11.dtd">
<!-- Generated by graphviz version 2.43.0 (0)
 -->
<!-- Title: QualityControl hierarchy Pages: 1 -->
<svg width="530pt" height="273pt"
 viewBox="0.00 0.00 530.00 273.00" xmlns="http://www.w3.org/2000/svg" xmlns:xlink="http://www.w3.org/1999/xlink">
<g id="graph0" class="graph" transform="scale(1 1) rotate(0) translate(4 269)">
<title>QualityControl hierarchy</title>
<polygon fill="white" stroke="transparent" points="-4,4 -4,-269 526,-269 526,4 -4,4"/>
<!-- QCLog -->
<g id="node1" class="node">
<title>QCLog</title>
<g id="a_node1"><a xlink:href="../base/api-python.html#api-python-datamodel-qclog" xlink:title="&lt;TABLE&gt;" target="_top">
<path fill="#fcf2e3" stroke="transparent" stroke-width="0.5" d="M150,-131C150,-131 12,-131 12,-131 6,-131 0,-125 0,-119 0,-119 0,-34 0,-34 0,-28 6,-22 12,-22 12,-22 150,-22 150,-22 156,-22 162,-28 162,-34 162,-34 162,-119 162,-119 162,-125 156,-131 150,-131"/>
<text text-anchor="start" x="67.5" y="-118.1" font-family="Verdana" font-size="8.00">QCLog</text>
<text text-anchor="start" x="79.5" y="-107.1" font-family="Verdana" font-size="8.00"> </text>
<text text-anchor="start" x="10" y="-96.1" font-family="Verdana" font-size="8.00" fill="#8b0000">+ publicID: string</text>
<text text-anchor="start" x="10" y="-85.1" font-family="Verdana" font-size="8.00" fill="#8b0000">+ waveformID: WaveformStreamID</text>
<text text-anchor="start" x="10" y="-74.1" font-family="Verdana" font-size="8.00" fill="#8b0000">+ creatorID: string</text>
<text text-anchor="start" x="10" y="-63.1" font-family="Verdana" font-size="8.00" fill="#8b0000">+ created: datetime</text>
<text text-anchor="start" x="10" y="-52.1" font-family="Verdana" font-size="8.00" fill="#8b0000">+ start: datetime</text>
<text text-anchor="start" x="10" y="-41.1" font-family="Verdana" font-size="8.00" fill="#8b0000">+ end: datetime</text>
<text text-anchor="start" x="10" y="-30.1" font-family="Verdana" font-size="8.00" fill="#8b0000">+ message: string</text>
<polygon fill="#000000" stroke="#000000" points="8,-114.5 8,-114.5 154,-114.5 154,-114.5 8,-114.5"/>
</a>
</g>
</g>
<!-- WaveformQuality -->
<g id="node2" class="node">
<title>WaveformQuality</title>
<g id="a_node2"><a xlink:href="../base/api-python.html#api-python-datamodel-waveformquality" xlink:title="&lt;TABLE&gt;" target="_top">
<path fill="#fcf2e3" stroke="transparent" stroke-width="0.5" d="M330,-153C330,-153 192,-153 192,-153 186,-153 180,-147 180,-141 180,-141 180,-12 180,-12 180,-6 186,0 192,0 192,0 330,0 330,0 336,0 342,-6 342,-12 342,-12 342,-141 342,-141 342,-147 336,-153 330,-153"/>
<text text-anchor="start" x="226" y="-140.1" font-family="Verdana" font-size="8.00">WaveformQuality</text>
<text text-anchor="start" x="259.5" y="-129.1" font-family="Verdana" font-size="8.00"> </text>
<text text-anchor="start" x="190" y="-118.1" font-family="Verdana" font-size="8.00" fill="#8b0000">+ waveformID: WaveformStreamID</text>
<text text-anchor="start" x="190" y="-107.1" font-family="Verdana" font-size="8.00" fill="#8b0000">+ creatorID: string</text>
<text text-anchor="start" x="190" y="-96.1" font-family="Verdana" font-size="8.00" fill="#8b0000">+ created: datetime</text>
<text text-anchor="start" x="190" y="-85.1" font-family="Verdana" font-size="8.00" fill="#8b0000">+ start: datetime</text>
<text text-anchor="start" x="190" y="-74.1" font-family="Verdana" font-size="8.00" fill="#8b0000">+ end: datetime &#160;[0..1]</text>
<text text-anchor="start" x="190" y="-63.1" font-family="Verdana" font-size="8.00" fill="#8b0000">+ type: string</text>
<text text-anchor="start" x="190" y="-52.1" font-family="Verdana" font-size="8.00" fill="#8b0000">+ parameter: string</text>
<text text-anchor="start" x="190" y="-41.1" font-family="Verdana" font-size="8.00" fill="#8b0000">+ value: float</text>
<text text-anchor="start" x="190" y="-30.1" font-family="Verdana" font-size="8.00" fill="#8b0000">+ lowerUncertainty: float &#160;[0..1]</text>
<text text-anchor="start" x="190" y="-19.1" font-family="Verdana" font-size="8.00" fill="#8b0000">+ upperUncertainty: float &#160;[0..1]</text>
<text text-anchor="start" x="190" y="-8.1" font-family="Verdana" font-size="8.00" fill="#8b0000">+ windowLength: float &#160;[0..1]</text>
<polygon fill="#000000" stroke="#000000" points="188,-136.5 188,-136.5 334,-136.5 334,-136.5 188,-136.5"/>
</a>
</g>
</g>
<!-- Outage -->
<g id="node3" class="node">
<title>Outage</title>
<g id="a_node3"><a xlink:href="../base/api-python.html#api-python-datamodel-outage" xlink:title="&lt;TABLE&gt;" target="_top">
<path fill="#fcf2e3" stroke="transparent" stroke-width="0.5" d="M510,-120C510,-120 372,-120 372,-120 366,-120 360,-114 360,-108 360,-108 360,-45 360,-45 360,-39 366,-33 372,-33 372,-33 510,-33 510,-33 516,-33 522,-39 522,-45 522,-45 522,-108 522,-108 522,-114 516,-120 510,-120"/>
<text text-anchor="start" x="425.5" y="-107.1" font-family="Verdana" font-size="8.00">Outage</text>
<text text-anchor="start" x="439.5" y="-96.1" font-family="Verdana" font-size="8.00"> </text>
<text text-anchor="start" x="370" y="-85.1" font-family="Verdana" font-size="8.00" fill="#8b0000">+ waveformID: WaveformStreamID</text>
<text text-anchor="start" x="370" y="-74.1" font-family="Verdana" font-size="8.00" fill="#8b0000">+ creatorID: string</text>
<text text-anchor="start" x="370" y="-63.1" font-family="Verdana" font-size="8.00" fill="#8b0000">+ created: datetime</text>
<text text-anchor="start" x="370" y="-52.1" font-family="Verdana" font-size="8.00" fill="#8b0000">+ start: datetime</text>
<text text-anchor="start" x="370" y="-41.1" font-family="Verdana" font-size="8.00" fill="#8b0000">+ end: datetime &#160;[0..1]</text>
<polygon fill="#000000" stroke="#000000" points="368,-103.5 368,-103.5 514,-103.5 514,-103.5 368,-103.5"/>
</a>
</g>
</g>
<!-- QualityControl -->
<g id="node4" class="node">
<title>QualityControl</title>
<g id="a_node4"><a xlink:href="../base/api-python.html#api-python-datamodel-qualitycontrol" xlink:title="&lt;TABLE&gt;" target="_top">
<path fill="#fcf2e3" stroke="transparent" stroke-width="0.5" d="M346.5,-265C346.5,-265 175.5,-265 175.5,-265 169.5,-265 163.5,-259 163.5,-253 163.5,-253 163.5,-201 163.5,-201 163.5,-195 169.5,-189 175.5,-189 175.5,-189 346.5,-189 346.5,-189 352.5,-189 358.5,-195 358.5,-201 358.5,-201 358.5,-253 358.5,-253 358.5,-259 352.5,-265 346.5,-265"/>
<text text-anchor="start" x="232.5" y="-252.6" font-family="Verdana" font-size="8.00">QualityControl</text>
<text text-anchor="start" x="260" y="-241.6" font-family="Verdana" font-size="8.00"> </text>
<text text-anchor="start" x="174" y="-230.6" font-family="Verdana" font-size="8.00" fill="#8b0000">+ publicID: string</text>
<text text-anchor="start" x="174" y="-219.6" font-family="Verdana" font-size="8.00" fill="#8b0000">+ qCLog: QCLog [0..*]</text>
<text text-anchor="start" x="174" y="-208.6" font-family="Verdana" font-size="8.00" fill="#8b0000">+ waveformQuality: WaveformQuality [0..*]</text>
<text text-anchor="start" x="174" y="-197.6" font-family="Verdana" font-size="8.00" fill="#8b0000">+ outage: Outage [0..*]</text>
<polygon fill="#000000" stroke="#000000" points="172,-249 172,-249 351,-249 351,-249 172,-249"/>
</a>
</g>
</g>
<!-- QualityControl&#45;&gt;QCLog -->
<g id="edge1" class="edge">
<title>QualityControl&#45;&gt;QCLog</title>
<path fill="none" stroke="#000000" d="M205.24,-181.01C193.88,-171.78 182.03,-162.1 171,-153 162.5,-145.99 153.59,-138.58 144.81,-131.25"/>
<polygon fill="#000000" stroke="#000000" points="205.32,-181.07 212.49,-181.75 214.63,-188.63 207.45,-187.96 205.32,-181.07"/>
</g>
<!-- QualityControl&#45;&gt;WaveformQuality -->
<g id="edge2" class="edge">
<title>QualityControl&#45;&gt;WaveformQuality</title>
<path fill="none" stroke="#000000" d="M261,-176.65C261,-169.11 261,-161.19 261,-153.24"/>
<polygon fill="#000000" stroke="#000000" points="261,-176.91 265,-182.91 261,-188.91 257,-182.91 261,-176.91"/>
</g>
<!-- QualityControl&#45;&gt;Outage -->
<g id="edge3" class="edge">
<title>QualityControl&#45;&gt;Outage</title>
<path fill="none" stroke="#000000" d="M316.76,-181.01C328.12,-171.78 339.97,-162.1 351,-153 363.74,-142.49 377.43,-131.07 390.19,-120.37"/>
<polygon fill="#000000" stroke="#000000" points="316.68,-181.07 314.55,-187.96 307.37,-188.63 309.51,-181.75 316.68,-181.07"/>
</g>
</g>
</svg>
