<?xml version="1.0" encoding="UTF-8" standalone="no"?>
<!DOCTYPE svg PUBLIC "-//W3C//DTD SVG 1.1//EN"
 "http://www.w3.org/Graphics/SVG/1.1/DTD/svg11.dtd">
<!-- Generated by graphviz version 2.43.0 (0)
 -->
<!-- Title: G Pages: 1 -->
<svg width="348pt" height="411pt"
 viewBox="0.00 0.00 348.00 411.00" xmlns="http://www.w3.org/2000/svg" xmlns:xlink="http://www.w3.org/1999/xlink">
<g id="graph0" class="graph" transform="scale(1 1) rotate(0) translate(4 407)">
<title>G</title>
<polygon fill="white" stroke="transparent" points="-4,4 -4,-407 344,-407 344,4 -4,4"/>
<!-- ArclinkRequest -->
<g id="node1" class="node">
<title>ArclinkRequest</title>
<path fill="#fcf2e3" stroke="transparent" stroke-width="0.5" d="M212.5,-331C212.5,-331 23.5,-331 23.5,-331 17.5,-331 11.5,-325 11.5,-319 11.5,-319 11.5,-157 11.5,-157 11.5,-151 17.5,-145 23.5,-145 23.5,-145 212.5,-145 212.5,-145 218.5,-145 224.5,-151 224.5,-157 224.5,-157 224.5,-319 224.5,-319 224.5,-325 218.5,-331 212.5,-331"/>
<text text-anchor="start" x="88" y="-318.6" font-family="Verdana" font-size="8.00">ArclinkRequest</text>
<text text-anchor="start" x="22" y="-307.6" font-family="Verdana" font-size="8.00" fill="#8b0000">+ publicID: string</text>
<text text-anchor="start" x="22" y="-296.6" font-family="Verdana" font-size="8.00" fill="#8b0000">+ requestID: string</text>
<text text-anchor="start" x="22" y="-285.6" font-family="Verdana" font-size="8.00" fill="#8b0000">+ userID: string</text>
<text text-anchor="start" x="22" y="-274.6" font-family="Verdana" font-size="8.00" fill="#8b0000">+ userIP: string</text>
<text text-anchor="start" x="22" y="-263.6" font-family="Verdana" font-size="8.00" fill="#8b0000">+ clientID: string</text>
<text text-anchor="start" x="22" y="-252.6" font-family="Verdana" font-size="8.00" fill="#8b0000">+ clientIP: string</text>
<text text-anchor="start" x="22" y="-241.6" font-family="Verdana" font-size="8.00" fill="#8b0000">+ type: string</text>
<text text-anchor="start" x="22" y="-230.6" font-family="Verdana" font-size="8.00" fill="#8b0000">+ created: datetime</text>
<text text-anchor="start" x="22" y="-219.6" font-family="Verdana" font-size="8.00" fill="#8b0000">+ status: string</text>
<text text-anchor="start" x="22" y="-208.6" font-family="Verdana" font-size="8.00" fill="#8b0000">+ message: string</text>
<text text-anchor="start" x="22" y="-197.6" font-family="Verdana" font-size="8.00" fill="#8b0000">+ label: string</text>
<text text-anchor="start" x="22" y="-186.6" font-family="Verdana" font-size="8.00" fill="#8b0000">+ header: string</text>
<text text-anchor="start" x="22" y="-175.6" font-family="Verdana" font-size="8.00" fill="#8b0000">+ summary: ArclinkRequestSummary &#160;[0..1]</text>
<text text-anchor="start" x="22" y="-164.6" font-family="Verdana" font-size="8.00" fill="#8b0000">+ arclinkStatusLine: ArclinkStatusLine [0..*]</text>
<text text-anchor="start" x="22" y="-153.6" font-family="Verdana" font-size="8.00" fill="#8b0000">+ arclinkRequestLine: ArclinkRequestLine [0..*]</text>
</g>
<!-- ArclinkStatusLine -->
<g id="node2" class="node">
<title>ArclinkStatusLine</title>
<path fill="#fcf2e3" stroke="transparent" stroke-width="0.5" d="M84,-92.5C84,-92.5 12,-92.5 12,-92.5 6,-92.5 0,-86.5 0,-80.5 0,-80.5 0,-28.5 0,-28.5 0,-22.5 6,-16.5 12,-16.5 12,-16.5 84,-16.5 84,-16.5 90,-16.5 96,-22.5 96,-28.5 96,-28.5 96,-80.5 96,-80.5 96,-86.5 90,-92.5 84,-92.5"/>
<text text-anchor="start" x="12.5" y="-80.1" font-family="Verdana" font-size="8.00">ArclinkStatusLine</text>
<text text-anchor="start" x="10" y="-69.1" font-family="Verdana" font-size="8.00" fill="#8b0000">+ type: string</text>
<text text-anchor="start" x="10" y="-58.1" font-family="Verdana" font-size="8.00" fill="#8b0000">+ status: string</text>
<text text-anchor="start" x="10" y="-47.1" font-family="Verdana" font-size="8.00" fill="#8b0000">+ size: int &#160;[0..1]</text>
<text text-anchor="start" x="10" y="-36.1" font-family="Verdana" font-size="8.00" fill="#8b0000">+ message: string</text>
<text text-anchor="start" x="10" y="-25.1" font-family="Verdana" font-size="8.00" fill="#8b0000">+ volumeID: string</text>
</g>
<!-- ArclinkRequest&#45;&gt;ArclinkStatusLine -->
<g id="edge2" class="edge">
<title>ArclinkRequest&#45;&gt;ArclinkStatusLine</title>
<path fill="none" stroke="#000000" d="M82.49,-144.92C76.82,-130.24 71.18,-115.6 66.14,-102.55"/>
<polygon fill="#000000" stroke="#000000" points="69.29,-100.97 62.42,-92.9 62.76,-103.49 69.29,-100.97"/>
</g>
<!-- ArclinkRequestLine -->
<g id="node3" class="node">
<title>ArclinkRequestLine</title>
<path fill="#fcf2e3" stroke="transparent" stroke-width="0.5" d="M252,-109C252,-109 126,-109 126,-109 120,-109 114,-103 114,-97 114,-97 114,-12 114,-12 114,-6 120,0 126,0 126,0 252,0 252,0 258,0 264,-6 264,-12 264,-12 264,-97 264,-97 264,-103 258,-109 252,-109"/>
<text text-anchor="start" x="149.5" y="-96.1" font-family="Verdana" font-size="8.00">ArclinkRequestLine</text>
<text text-anchor="start" x="124" y="-85.1" font-family="Verdana" font-size="8.00" fill="#8b0000">+ start: datetime</text>
<text text-anchor="start" x="124" y="-74.1" font-family="Verdana" font-size="8.00" fill="#8b0000">+ end: datetime</text>
<text text-anchor="start" x="124" y="-63.1" font-family="Verdana" font-size="8.00" fill="#8b0000">+ streamID: WaveformStreamID</text>
<text text-anchor="start" x="124" y="-52.1" font-family="Verdana" font-size="8.00" fill="#8b0000">+ restricted: boolean &#160;[0..1]</text>
<text text-anchor="start" x="124" y="-41.1" font-family="Verdana" font-size="8.00" fill="#8b0000">+ shared: boolean &#160;[0..1]</text>
<text text-anchor="start" x="124" y="-30.1" font-family="Verdana" font-size="8.00" fill="#8b0000">+ netClass: string</text>
<text text-anchor="start" x="124" y="-19.1" font-family="Verdana" font-size="8.00" fill="#8b0000">+ constraints: string</text>
<text text-anchor="start" x="124" y="-8.1" font-family="Verdana" font-size="8.00" fill="#8b0000">+ status: ArclinkStatusLine</text>
</g>
<!-- ArclinkRequest&#45;&gt;ArclinkRequestLine -->
<g id="edge3" class="edge">
<title>ArclinkRequest&#45;&gt;ArclinkRequestLine</title>
<path fill="none" stroke="#000000" d="M154.02,-144.92C157.51,-135.99 161,-127.09 164.34,-118.54"/>
<polygon fill="#000000" stroke="#000000" points="167.66,-119.65 168.05,-109.06 161.14,-117.1 167.66,-119.65"/>
</g>
<!-- ArclinkUser -->
<g id="node4" class="node">
<title>ArclinkUser</title>
<path fill="#fcf2e3" stroke="transparent" stroke-width="0.5" d="M328,-270.5C328,-270.5 254,-270.5 254,-270.5 248,-270.5 242,-264.5 242,-258.5 242,-258.5 242,-217.5 242,-217.5 242,-211.5 248,-205.5 254,-205.5 254,-205.5 328,-205.5 328,-205.5 334,-205.5 340,-211.5 340,-217.5 340,-217.5 340,-258.5 340,-258.5 340,-264.5 334,-270.5 328,-270.5"/>
<text text-anchor="start" x="268" y="-257.6" font-family="Verdana" font-size="8.00">ArclinkUser</text>
<text text-anchor="start" x="252" y="-246.6" font-family="Verdana" font-size="8.00" fill="#8b0000">+ publicID: string</text>
<text text-anchor="start" x="252" y="-235.6" font-family="Verdana" font-size="8.00" fill="#8b0000">+ name: string</text>
<text text-anchor="start" x="252" y="-224.6" font-family="Verdana" font-size="8.00" fill="#8b0000">+ email: string</text>
<text text-anchor="start" x="252" y="-213.6" font-family="Verdana" font-size="8.00" fill="#8b0000">+ password: string</text>
</g>
<!-- ArclinkLog -->
<g id="node5" class="node">
<title>ArclinkLog</title>
<path fill="#fcf2e3" stroke="transparent" stroke-width="0.5" d="M221.5,-403C221.5,-403 186.5,-403 186.5,-403 180.5,-403 174.5,-397 174.5,-391 174.5,-391 174.5,-379 174.5,-379 174.5,-373 180.5,-367 186.5,-367 186.5,-367 221.5,-367 221.5,-367 227.5,-367 233.5,-373 233.5,-379 233.5,-379 233.5,-391 233.5,-391 233.5,-397 227.5,-403 221.5,-403"/>
<text text-anchor="middle" x="204" y="-383.1" font-family="Verdana" font-size="8.00">ArclinkLog</text>
</g>
<!-- ArclinkLog&#45;&gt;ArclinkRequest -->
<g id="edge1" class="edge">
<title>ArclinkLog&#45;&gt;ArclinkRequest</title>
<path fill="none" stroke="#000000" d="M193.8,-366.8C189.42,-359.41 183.92,-350.14 177.9,-339.99"/>
<polygon fill="#000000" stroke="#000000" points="180.84,-338.09 172.73,-331.27 174.82,-341.66 180.84,-338.09"/>
</g>
<!-- ArclinkLog&#45;&gt;ArclinkUser -->
<g id="edge4" class="edge">
<title>ArclinkLog&#45;&gt;ArclinkUser</title>
<path fill="none" stroke="#000000" d="M214.32,-366.8C227.17,-345.38 249.53,-308.12 266.8,-279.34"/>
<polygon fill="#000000" stroke="#000000" points="269.83,-281.08 271.98,-270.7 263.83,-277.48 269.83,-281.08"/>
</g>
</g>
</svg>
