<?xml version="1.0" encoding="UTF-8" standalone="no"?>
<!DOCTYPE svg PUBLIC "-//W3C//DTD SVG 1.1//EN"
 "http://www.w3.org/Graphics/SVG/1.1/DTD/svg11.dtd">
<!-- Generated by graphviz version 2.43.0 (0)
 -->
<!-- Title: G Pages: 1 -->
<svg width="530pt" height="222pt"
 viewBox="0.00 0.00 530.00 222.00" xmlns="http://www.w3.org/2000/svg" xmlns:xlink="http://www.w3.org/1999/xlink">
<g id="graph0" class="graph" transform="scale(1 1) rotate(0) translate(4 218)">
<title>G</title>
<polygon fill="white" stroke="transparent" points="-4,4 -4,-218 526,-218 526,4 -4,4"/>
<!-- QCLog -->
<g id="node1" class="node">
<title>QCLog</title>
<path fill="#fcf2e3" stroke="transparent" stroke-width="0.5" d="M150,-120C150,-120 12,-120 12,-120 6,-120 0,-114 0,-108 0,-108 0,-34 0,-34 0,-28 6,-22 12,-22 12,-22 150,-22 150,-22 156,-22 162,-28 162,-34 162,-34 162,-108 162,-108 162,-114 156,-120 150,-120"/>
<text text-anchor="start" x="67.5" y="-107.6" font-family="Verdana" font-size="8.00">QCLog</text>
<text text-anchor="start" x="10" y="-96.6" font-family="Verdana" font-size="8.00" fill="#8b0000">+ publicID: string</text>
<text text-anchor="start" x="10" y="-85.6" font-family="Verdana" font-size="8.00" fill="#8b0000">+ waveformID: WaveformStreamID</text>
<text text-anchor="start" x="10" y="-74.6" font-family="Verdana" font-size="8.00" fill="#8b0000">+ creatorID: string</text>
<text text-anchor="start" x="10" y="-63.6" font-family="Verdana" font-size="8.00" fill="#8b0000">+ created: datetime</text>
<text text-anchor="start" x="10" y="-52.6" font-family="Verdana" font-size="8.00" fill="#8b0000">+ start: datetime</text>
<text text-anchor="start" x="10" y="-41.6" font-family="Verdana" font-size="8.00" fill="#8b0000">+ end: datetime</text>
<text text-anchor="start" x="10" y="-30.6" font-family="Verdana" font-size="8.00" fill="#8b0000">+ message: string</text>
</g>
<!-- WaveformQuality -->
<g id="node2" class="node">
<title>WaveformQuality</title>
<path fill="#fcf2e3" stroke="transparent" stroke-width="0.5" d="M330,-142C330,-142 192,-142 192,-142 186,-142 180,-136 180,-130 180,-130 180,-12 180,-12 180,-6 186,0 192,0 192,0 330,0 330,0 336,0 342,-6 342,-12 342,-12 342,-130 342,-130 342,-136 336,-142 330,-142"/>
<text text-anchor="start" x="226" y="-129.6" font-family="Verdana" font-size="8.00">WaveformQuality</text>
<text text-anchor="start" x="190" y="-118.6" font-family="Verdana" font-size="8.00" fill="#8b0000">+ waveformID: WaveformStreamID</text>
<text text-anchor="start" x="190" y="-107.6" font-family="Verdana" font-size="8.00" fill="#8b0000">+ creatorID: string</text>
<text text-anchor="start" x="190" y="-96.6" font-family="Verdana" font-size="8.00" fill="#8b0000">+ created: datetime</text>
<text text-anchor="start" x="190" y="-85.6" font-family="Verdana" font-size="8.00" fill="#8b0000">+ start: datetime</text>
<text text-anchor="start" x="190" y="-74.6" font-family="Verdana" font-size="8.00" fill="#8b0000">+ end: datetime &#160;[0..1]</text>
<text text-anchor="start" x="190" y="-63.6" font-family="Verdana" font-size="8.00" fill="#8b0000">+ type: string</text>
<text text-anchor="start" x="190" y="-52.6" font-family="Verdana" font-size="8.00" fill="#8b0000">+ parameter: string</text>
<text text-anchor="start" x="190" y="-41.6" font-family="Verdana" font-size="8.00" fill="#8b0000">+ value: float</text>
<text text-anchor="start" x="190" y="-30.6" font-family="Verdana" font-size="8.00" fill="#8b0000">+ lowerUncertainty: float &#160;[0..1]</text>
<text text-anchor="start" x="190" y="-19.6" font-family="Verdana" font-size="8.00" fill="#8b0000">+ upperUncertainty: float &#160;[0..1]</text>
<text text-anchor="start" x="190" y="-8.6" font-family="Verdana" font-size="8.00" fill="#8b0000">+ windowLength: float &#160;[0..1]</text>
</g>
<!-- Outage -->
<g id="node3" class="node">
<title>Outage</title>
<path fill="#fcf2e3" stroke="transparent" stroke-width="0.5" d="M510,-109C510,-109 372,-109 372,-109 366,-109 360,-103 360,-97 360,-97 360,-45 360,-45 360,-39 366,-33 372,-33 372,-33 510,-33 510,-33 516,-33 522,-39 522,-45 522,-45 522,-97 522,-97 522,-103 516,-109 510,-109"/>
<text text-anchor="start" x="425.5" y="-96.6" font-family="Verdana" font-size="8.00">Outage</text>
<text text-anchor="start" x="370" y="-85.6" font-family="Verdana" font-size="8.00" fill="#8b0000">+ waveformID: WaveformStreamID</text>
<text text-anchor="start" x="370" y="-74.6" font-family="Verdana" font-size="8.00" fill="#8b0000">+ creatorID: string</text>
<text text-anchor="start" x="370" y="-63.6" font-family="Verdana" font-size="8.00" fill="#8b0000">+ created: datetime</text>
<text text-anchor="start" x="370" y="-52.6" font-family="Verdana" font-size="8.00" fill="#8b0000">+ start: datetime</text>
<text text-anchor="start" x="370" y="-41.6" font-family="Verdana" font-size="8.00" fill="#8b0000">+ end: datetime &#160;[0..1]</text>
</g>
<!-- QualityControl -->
<g id="node4" class="node">
<title>QualityControl</title>
<path fill="#fcf2e3" stroke="transparent" stroke-width="0.5" d="M286,-214C286,-214 236,-214 236,-214 230,-214 224,-208 224,-202 224,-202 224,-190 224,-190 224,-184 230,-178 236,-178 236,-178 286,-178 286,-178 292,-178 298,-184 298,-190 298,-190 298,-202 298,-202 298,-208 292,-214 286,-214"/>
<text text-anchor="middle" x="261" y="-194.1" font-family="Verdana" font-size="8.00">QualityControl</text>
</g>
<!-- QualityControl&#45;&gt;QCLog -->
<g id="edge1" class="edge">
<title>QualityControl&#45;&gt;QCLog</title>
<path fill="none" stroke="#000000" d="M229.57,-177.81C212,-167.88 189.9,-154.84 171,-142 163.82,-137.12 156.46,-131.86 149.19,-126.5"/>
<polygon fill="#000000" stroke="#000000" points="150.82,-123.35 140.72,-120.16 146.63,-128.95 150.82,-123.35"/>
</g>
<!-- QualityControl&#45;&gt;WaveformQuality -->
<g id="edge2" class="edge">
<title>QualityControl&#45;&gt;WaveformQuality</title>
<path fill="none" stroke="#000000" d="M261,-177.9C261,-170.74 261,-161.88 261,-152.34"/>
<polygon fill="#000000" stroke="#000000" points="264.5,-152.2 261,-142.2 257.5,-152.2 264.5,-152.2"/>
</g>
<!-- QualityControl&#45;&gt;Outage -->
<g id="edge3" class="edge">
<title>QualityControl&#45;&gt;Outage</title>
<path fill="none" stroke="#000000" d="M292.43,-177.81C310,-167.88 332.1,-154.84 351,-142 363.11,-133.78 375.73,-124.46 387.56,-115.38"/>
<polygon fill="#000000" stroke="#000000" points="389.84,-118.03 395.6,-109.14 385.55,-112.5 389.84,-118.03"/>
</g>
</g>
</svg>
