<?xml version="1.0" encoding="UTF-8" standalone="no"?>
<!DOCTYPE svg PUBLIC "-//W3C//DTD SVG 1.1//EN"
 "http://www.w3.org/Graphics/SVG/1.1/DTD/svg11.dtd">
<!-- Generated by graphviz version 2.43.0 (0)
 -->
<!-- Title: EventParameters hierarchy Pages: 1 -->
<svg width="1193pt" height="332pt"
 viewBox="0.00 0.00 1192.50 332.00" xmlns="http://www.w3.org/2000/svg" xmlns:xlink="http://www.w3.org/1999/xlink">
<g id="graph0" class="graph" transform="scale(1 1) rotate(0) translate(4 328)">
<title>EventParameters hierarchy</title>
<polygon fill="white" stroke="transparent" points="-4,4 -4,-328 1188.5,-328 1188.5,4 -4,4"/>
<!-- Pick -->
<g id="node1" class="node">
<title>Pick</title>
<g id="a_node1"><a xlink:href="../base/api-python.html#api-python-datamodel-pick" xlink:title="Pick" target="_top">
<path fill="#fcf2e3" stroke="transparent" stroke-width="0.5" d="M337,-252C337,-252 307,-252 307,-252 301,-252 295,-246 295,-240 295,-240 295,-228 295,-228 295,-222 301,-216 307,-216 307,-216 337,-216 337,-216 343,-216 349,-222 349,-228 349,-228 349,-240 349,-240 349,-246 343,-252 337,-252"/>
<text text-anchor="middle" x="322" y="-232.1" font-family="Verdana" font-size="8.00">Pick</text>
</a>
</g>
</g>
<!-- Comment -->
<g id="node2" class="node">
<title>Comment</title>
<g id="a_node2"><a xlink:href="../base/api-python.html#api-python-datamodel-comment" xlink:title="Comment" target="_top">
<path fill="#fcf2e3" stroke="transparent" stroke-width="0.5" d="M630,-108C630,-108 598,-108 598,-108 592,-108 586,-102 586,-96 586,-96 586,-84 586,-84 586,-78 592,-72 598,-72 598,-72 630,-72 630,-72 636,-72 642,-78 642,-84 642,-84 642,-96 642,-96 642,-102 636,-108 630,-108"/>
<text text-anchor="middle" x="614" y="-88.1" font-family="Verdana" font-size="8.00">Comment</text>
</a>
</g>
</g>
<!-- Pick&#45;&gt;Comment -->
<g id="edge7" class="edge">
<title>Pick&#45;&gt;Comment</title>
<path fill="none" stroke="#000000" d="M283.31,-218.43C266.52,-209.95 248.55,-197.42 239,-180 231.31,-165.97 228.51,-156.08 239,-144 261.77,-117.78 502.32,-98.74 585.72,-92.89"/>
<polygon fill="#000000" stroke="#000000" points="283.74,-218.63 290.86,-217.52 294.63,-223.67 287.5,-224.78 283.74,-218.63"/>
</g>
<!-- Amplitude -->
<g id="node3" class="node">
<title>Amplitude</title>
<g id="a_node3"><a xlink:href="../base/api-python.html#api-python-datamodel-amplitude" xlink:title="Amplitude" target="_top">
<path fill="#fcf2e3" stroke="transparent" stroke-width="0.5" d="M580,-252C580,-252 546,-252 546,-252 540,-252 534,-246 534,-240 534,-240 534,-228 534,-228 534,-222 540,-216 546,-216 546,-216 580,-216 580,-216 586,-216 592,-222 592,-228 592,-228 592,-240 592,-240 592,-246 586,-252 580,-252"/>
<text text-anchor="middle" x="563" y="-232.1" font-family="Verdana" font-size="8.00">Amplitude</text>
</a>
</g>
</g>
<!-- Amplitude&#45;&gt;Comment -->
<g id="edge4" class="edge">
<title>Amplitude&#45;&gt;Comment</title>
<path fill="none" stroke="#000000" d="M602.14,-210.23C612.47,-202.11 622.32,-191.96 628,-180 639,-156.83 630.16,-126.82 622.39,-108.24"/>
<polygon fill="#000000" stroke="#000000" points="601.94,-210.37 599.4,-217.12 592.2,-217.38 594.73,-210.63 601.94,-210.37"/>
</g>
<!-- Reading -->
<g id="node4" class="node">
<title>Reading</title>
<g id="a_node4"><a xlink:href="../base/api-python.html#api-python-datamodel-reading" xlink:title="Reading" target="_top">
<path fill="#fcf2e3" stroke="transparent" stroke-width="0.5" d="M170,-252C170,-252 140,-252 140,-252 134,-252 128,-246 128,-240 128,-240 128,-228 128,-228 128,-222 134,-216 140,-216 140,-216 170,-216 170,-216 176,-216 182,-222 182,-228 182,-228 182,-240 182,-240 182,-246 176,-252 170,-252"/>
<text text-anchor="middle" x="155" y="-232.1" font-family="Verdana" font-size="8.00">Reading</text>
</a>
</g>
</g>
<!-- PickReference -->
<g id="node5" class="node">
<title>PickReference</title>
<g id="a_node5"><a xlink:href="../base/api-python.html#api-python-datamodel-pickreference" xlink:title="PickReference" target="_top">
<path fill="#fcf2e3" stroke="transparent" stroke-width="0.5" d="M180,-180C180,-180 130,-180 130,-180 124,-180 118,-174 118,-168 118,-168 118,-156 118,-156 118,-150 124,-144 130,-144 130,-144 180,-144 180,-144 186,-144 192,-150 192,-156 192,-156 192,-168 192,-168 192,-174 186,-180 180,-180"/>
<text text-anchor="middle" x="155" y="-160.1" font-family="Verdana" font-size="8.00">PickReference</text>
</a>
</g>
</g>
<!-- Reading&#45;&gt;PickReference -->
<g id="edge12" class="edge">
<title>Reading&#45;&gt;PickReference</title>
<path fill="none" stroke="#000000" d="M155,-203.67C155,-195.64 155,-187.2 155,-180.1"/>
<polygon fill="#000000" stroke="#000000" points="155,-203.7 159,-209.7 155,-215.7 151,-209.7 155,-203.7"/>
</g>
<!-- AmplitudeReference -->
<g id="node6" class="node">
<title>AmplitudeReference</title>
<g id="a_node6"><a xlink:href="../base/api-python.html#api-python-datamodel-amplitudereference" xlink:title="AmplitudeReference" target="_top">
<path fill="#fcf2e3" stroke="transparent" stroke-width="0.5" d="M88,-180C88,-180 12,-180 12,-180 6,-180 0,-174 0,-168 0,-168 0,-156 0,-156 0,-150 6,-144 12,-144 12,-144 88,-144 88,-144 94,-144 100,-150 100,-156 100,-156 100,-168 100,-168 100,-174 94,-180 88,-180"/>
<text text-anchor="middle" x="50" y="-160.1" font-family="Verdana" font-size="8.00">AmplitudeReference</text>
</a>
</g>
</g>
<!-- Reading&#45;&gt;AmplitudeReference -->
<g id="edge13" class="edge">
<title>Reading&#45;&gt;AmplitudeReference</title>
<path fill="none" stroke="#000000" d="M119.31,-209.21C105.03,-199.69 88.89,-188.93 75.78,-180.19"/>
<polygon fill="#000000" stroke="#000000" points="119.33,-209.22 126.54,-209.22 129.31,-215.88 122.1,-215.88 119.33,-209.22"/>
</g>
<!-- Origin -->
<g id="node7" class="node">
<title>Origin</title>
<g id="a_node7"><a xlink:href="../base/api-python.html#api-python-datamodel-origin" xlink:title="Origin" target="_top">
<path fill="#fcf2e3" stroke="transparent" stroke-width="0.5" d="M485,-252C485,-252 455,-252 455,-252 449,-252 443,-246 443,-240 443,-240 443,-228 443,-228 443,-222 449,-216 455,-216 455,-216 485,-216 485,-216 491,-216 497,-222 497,-228 497,-228 497,-240 497,-240 497,-246 491,-252 485,-252"/>
<text text-anchor="middle" x="470" y="-232.1" font-family="Verdana" font-size="8.00">Origin</text>
</a>
</g>
</g>
<!-- Origin&#45;&gt;Comment -->
<g id="edge9" class="edge">
<title>Origin&#45;&gt;Comment</title>
<path fill="none" stroke="#000000" d="M508.81,-220.75C540.76,-209.91 582.58,-193.72 594,-180 611.02,-159.55 614.31,-127.61 614.57,-108.07"/>
<polygon fill="#000000" stroke="#000000" points="508.52,-220.84 504.09,-226.53 497.13,-224.63 501.56,-218.94 508.52,-220.84"/>
</g>
<!-- CompositeTime -->
<g id="node8" class="node">
<title>CompositeTime</title>
<g id="a_node8"><a xlink:href="../base/api-python.html#api-python-datamodel-compositetime" xlink:title="CompositeTime" target="_top">
<path fill="#fcf2e3" stroke="transparent" stroke-width="0.5" d="M394,-180C394,-180 338,-180 338,-180 332,-180 326,-174 326,-168 326,-168 326,-156 326,-156 326,-150 332,-144 338,-144 338,-144 394,-144 394,-144 400,-144 406,-150 406,-156 406,-156 406,-168 406,-168 406,-174 400,-180 394,-180"/>
<text text-anchor="middle" x="366" y="-160.1" font-family="Verdana" font-size="8.00">CompositeTime</text>
</a>
</g>
</g>
<!-- Origin&#45;&gt;CompositeTime -->
<g id="edge15" class="edge">
<title>Origin&#45;&gt;CompositeTime</title>
<path fill="none" stroke="#000000" d="M434.24,-208.93C420.2,-199.48 404.4,-188.84 391.54,-180.19"/>
<polygon fill="#000000" stroke="#000000" points="434.6,-209.18 441.81,-209.21 444.56,-215.88 437.35,-215.84 434.6,-209.18"/>
</g>
<!-- Arrival -->
<g id="node9" class="node">
<title>Arrival</title>
<g id="a_node9"><a xlink:href="../base/api-python.html#api-python-datamodel-arrival" xlink:title="Arrival" target="_top">
<path fill="#fcf2e3" stroke="transparent" stroke-width="0.5" d="M466,-180C466,-180 436,-180 436,-180 430,-180 424,-174 424,-168 424,-168 424,-156 424,-156 424,-150 430,-144 436,-144 436,-144 466,-144 466,-144 472,-144 478,-150 478,-156 478,-156 478,-168 478,-168 478,-174 472,-180 466,-180"/>
<text text-anchor="middle" x="451" y="-160.1" font-family="Verdana" font-size="8.00">Arrival</text>
</a>
</g>
</g>
<!-- Origin&#45;&gt;Arrival -->
<g id="edge16" class="edge">
<title>Origin&#45;&gt;Arrival</title>
<path fill="none" stroke="#000000" d="M462.12,-203.95C459.91,-195.84 457.59,-187.28 455.64,-180.1"/>
<polygon fill="#000000" stroke="#000000" points="462.16,-204.12 467.59,-208.86 465.3,-215.7 459.87,-210.95 462.16,-204.12"/>
</g>
<!-- StationMagnitude -->
<g id="node10" class="node">
<title>StationMagnitude</title>
<g id="a_node10"><a xlink:href="../base/api-python.html#api-python-datamodel-stationmagnitude" xlink:title="StationMagnitude" target="_top">
<path fill="#fcf2e3" stroke="transparent" stroke-width="0.5" d="M573.5,-180C573.5,-180 508.5,-180 508.5,-180 502.5,-180 496.5,-174 496.5,-168 496.5,-168 496.5,-156 496.5,-156 496.5,-150 502.5,-144 508.5,-144 508.5,-144 573.5,-144 573.5,-144 579.5,-144 585.5,-150 585.5,-156 585.5,-156 585.5,-168 585.5,-168 585.5,-174 579.5,-180 573.5,-180"/>
<text text-anchor="middle" x="541" y="-160.1" font-family="Verdana" font-size="8.00">StationMagnitude</text>
</a>
</g>
</g>
<!-- Origin&#45;&gt;StationMagnitude -->
<g id="edge17" class="edge">
<title>Origin&#45;&gt;StationMagnitude</title>
<path fill="none" stroke="#000000" d="M496.29,-207.08C505.42,-198.08 515.43,-188.21 523.65,-180.1"/>
<polygon fill="#000000" stroke="#000000" points="496.1,-207.27 494.63,-214.33 487.55,-215.7 489.01,-208.64 496.1,-207.27"/>
</g>
<!-- Magnitude -->
<g id="node11" class="node">
<title>Magnitude</title>
<g id="a_node11"><a xlink:href="../base/api-python.html#api-python-datamodel-magnitude" xlink:title="Magnitude" target="_top">
<path fill="#fcf2e3" stroke="transparent" stroke-width="0.5" d="M296,-180C296,-180 260,-180 260,-180 254,-180 248,-174 248,-168 248,-168 248,-156 248,-156 248,-150 254,-144 260,-144 260,-144 296,-144 296,-144 302,-144 308,-150 308,-156 308,-156 308,-168 308,-168 308,-174 302,-180 296,-180"/>
<text text-anchor="middle" x="278" y="-160.1" font-family="Verdana" font-size="8.00">Magnitude</text>
</a>
</g>
</g>
<!-- Origin&#45;&gt;Magnitude -->
<g id="edge18" class="edge">
<title>Origin&#45;&gt;Magnitude</title>
<path fill="none" stroke="#000000" d="M431.34,-220.53C400.22,-210.27 355.49,-195.03 317,-180 314.11,-178.87 311.12,-177.66 308.14,-176.41"/>
<polygon fill="#000000" stroke="#000000" points="431.56,-220.6 438.5,-218.67 442.96,-224.34 436.01,-226.27 431.56,-220.6"/>
</g>
<!-- StationMagnitude&#45;&gt;Comment -->
<g id="edge6" class="edge">
<title>StationMagnitude&#45;&gt;Comment</title>
<path fill="none" stroke="#000000" d="M567.74,-135.36C577.21,-126.28 587.62,-116.3 596.16,-108.1"/>
<polygon fill="#000000" stroke="#000000" points="567.71,-135.39 566.14,-142.43 559.04,-143.7 560.61,-136.66 567.71,-135.39"/>
</g>
<!-- Magnitude&#45;&gt;Comment -->
<g id="edge5" class="edge">
<title>Magnitude&#45;&gt;Comment</title>
<path fill="none" stroke="#000000" d="M320.13,-143.44C421.99,-113.76 534.17,-99.41 585.64,-93.82"/>
<polygon fill="#000000" stroke="#000000" points="319.9,-143.51 315.3,-149.06 308.4,-146.94 313.01,-141.39 319.9,-143.51"/>
</g>
<!-- StationMagnitudeContribution -->
<g id="node12" class="node">
<title>StationMagnitudeContribution</title>
<g id="a_node12"><a xlink:href="../base/api-python.html#api-python-datamodel-stationmagnitudecontribution" xlink:title="StationMagnitudeContribution" target="_top">
<path fill="#fcf2e3" stroke="transparent" stroke-width="0.5" d="M336,-108C336,-108 220,-108 220,-108 214,-108 208,-102 208,-96 208,-96 208,-84 208,-84 208,-78 214,-72 220,-72 220,-72 336,-72 336,-72 342,-72 348,-78 348,-84 348,-84 348,-96 348,-96 348,-102 342,-108 336,-108"/>
<text text-anchor="middle" x="278" y="-88.1" font-family="Verdana" font-size="8.00">StationMagnitudeContribution</text>
</a>
</g>
</g>
<!-- Magnitude&#45;&gt;StationMagnitudeContribution -->
<g id="edge19" class="edge">
<title>Magnitude&#45;&gt;StationMagnitudeContribution</title>
<path fill="none" stroke="#000000" d="M278,-131.67C278,-123.64 278,-115.2 278,-108.1"/>
<polygon fill="#000000" stroke="#000000" points="278,-131.7 282,-137.7 278,-143.7 274,-137.7 278,-131.7"/>
</g>
<!-- FocalMechanism -->
<g id="node13" class="node">
<title>FocalMechanism</title>
<g id="a_node13"><a xlink:href="../base/api-python.html#api-python-datamodel-focalmechanism" xlink:title="FocalMechanism" target="_top">
<path fill="#fcf2e3" stroke="transparent" stroke-width="0.5" d="M720.5,-252C720.5,-252 659.5,-252 659.5,-252 653.5,-252 647.5,-246 647.5,-240 647.5,-240 647.5,-228 647.5,-228 647.5,-222 653.5,-216 659.5,-216 659.5,-216 720.5,-216 720.5,-216 726.5,-216 732.5,-222 732.5,-228 732.5,-228 732.5,-240 732.5,-240 732.5,-246 726.5,-252 720.5,-252"/>
<text text-anchor="middle" x="690" y="-232.1" font-family="Verdana" font-size="8.00">FocalMechanism</text>
</a>
</g>
</g>
<!-- FocalMechanism&#45;&gt;Comment -->
<g id="edge3" class="edge">
<title>FocalMechanism&#45;&gt;Comment</title>
<path fill="none" stroke="#000000" d="M676.3,-204.82C667.6,-187.2 655.95,-164.11 645,-144 638.37,-131.83 630.48,-118.35 624.32,-108.03"/>
<polygon fill="#000000" stroke="#000000" points="676.39,-205.01 682.63,-208.63 681.68,-215.78 675.45,-212.15 676.39,-205.01"/>
</g>
<!-- MomentTensor -->
<g id="node14" class="node">
<title>MomentTensor</title>
<g id="a_node14"><a xlink:href="../base/api-python.html#api-python-datamodel-momenttensor" xlink:title="MomentTensor" target="_top">
<path fill="#fcf2e3" stroke="transparent" stroke-width="0.5" d="M821.5,-180C821.5,-180 768.5,-180 768.5,-180 762.5,-180 756.5,-174 756.5,-168 756.5,-168 756.5,-156 756.5,-156 756.5,-150 762.5,-144 768.5,-144 768.5,-144 821.5,-144 821.5,-144 827.5,-144 833.5,-150 833.5,-156 833.5,-156 833.5,-168 833.5,-168 833.5,-174 827.5,-180 821.5,-180"/>
<text text-anchor="middle" x="795" y="-160.1" font-family="Verdana" font-size="8.00">MomentTensor</text>
</a>
</g>
</g>
<!-- FocalMechanism&#45;&gt;MomentTensor -->
<g id="edge21" class="edge">
<title>FocalMechanism&#45;&gt;MomentTensor</title>
<path fill="none" stroke="#000000" d="M725.69,-209.21C739.97,-199.69 756.11,-188.93 769.22,-180.19"/>
<polygon fill="#000000" stroke="#000000" points="725.67,-209.22 722.9,-215.88 715.69,-215.88 718.46,-209.22 725.67,-209.22"/>
</g>
<!-- MomentTensor&#45;&gt;Comment -->
<g id="edge2" class="edge">
<title>MomentTensor&#45;&gt;Comment</title>
<path fill="none" stroke="#000000" d="M745.02,-143.69C717.15,-133.76 681.92,-120.77 651,-108 648.13,-106.81 645.15,-105.53 642.18,-104.22"/>
<polygon fill="#000000" stroke="#000000" points="745.17,-143.74 752.16,-141.97 756.48,-147.74 749.49,-149.51 745.17,-143.74"/>
</g>
<!-- DataUsed -->
<g id="node15" class="node">
<title>DataUsed</title>
<g id="a_node15"><a xlink:href="../base/api-python.html#api-python-datamodel-dataused" xlink:title="DataUsed" target="_top">
<path fill="#fcf2e3" stroke="transparent" stroke-width="0.5" d="M705.5,-108C705.5,-108 672.5,-108 672.5,-108 666.5,-108 660.5,-102 660.5,-96 660.5,-96 660.5,-84 660.5,-84 660.5,-78 666.5,-72 672.5,-72 672.5,-72 705.5,-72 705.5,-72 711.5,-72 717.5,-78 717.5,-84 717.5,-84 717.5,-96 717.5,-96 717.5,-102 711.5,-108 705.5,-108"/>
<text text-anchor="middle" x="689" y="-88.1" font-family="Verdana" font-size="8.00">DataUsed</text>
</a>
</g>
</g>
<!-- MomentTensor&#45;&gt;DataUsed -->
<g id="edge22" class="edge">
<title>MomentTensor&#45;&gt;DataUsed</title>
<path fill="none" stroke="#000000" d="M758.97,-137.21C744.55,-127.69 728.26,-116.93 715.03,-108.19"/>
<polygon fill="#000000" stroke="#000000" points="759.06,-137.26 766.27,-137.23 769.07,-143.88 761.86,-143.91 759.06,-137.26"/>
</g>
<!-- MomentTensorPhaseSetting -->
<g id="node16" class="node">
<title>MomentTensorPhaseSetting</title>
<g id="a_node16"><a xlink:href="../base/api-python.html#api-python-datamodel-momenttensorphasesetting" xlink:title="MomentTensorPhaseSetting" target="_top">
<path fill="#fcf2e3" stroke="transparent" stroke-width="0.5" d="M854.5,-108C854.5,-108 747.5,-108 747.5,-108 741.5,-108 735.5,-102 735.5,-96 735.5,-96 735.5,-84 735.5,-84 735.5,-78 741.5,-72 747.5,-72 747.5,-72 854.5,-72 854.5,-72 860.5,-72 866.5,-78 866.5,-84 866.5,-84 866.5,-96 866.5,-96 866.5,-102 860.5,-108 854.5,-108"/>
<text text-anchor="middle" x="801" y="-88.1" font-family="Verdana" font-size="8.00">MomentTensorPhaseSetting</text>
</a>
</g>
</g>
<!-- MomentTensor&#45;&gt;MomentTensorPhaseSetting -->
<g id="edge23" class="edge">
<title>MomentTensor&#45;&gt;MomentTensorPhaseSetting</title>
<path fill="none" stroke="#000000" d="M797.51,-131.67C798.2,-123.64 798.93,-115.2 799.53,-108.1"/>
<polygon fill="#000000" stroke="#000000" points="797.51,-131.74 800.98,-138.06 796.48,-143.7 793.01,-137.38 797.51,-131.74"/>
</g>
<!-- MomentTensorStationContribution -->
<g id="node17" class="node">
<title>MomentTensorStationContribution</title>
<g id="a_node17"><a xlink:href="../base/api-python.html#api-python-datamodel-momenttensorstationcontribution" xlink:title="MomentTensorStationContribution" target="_top">
<path fill="#fcf2e3" stroke="transparent" stroke-width="0.5" d="M1029,-108C1029,-108 897,-108 897,-108 891,-108 885,-102 885,-96 885,-96 885,-84 885,-84 885,-78 891,-72 897,-72 897,-72 1029,-72 1029,-72 1035,-72 1041,-78 1041,-84 1041,-84 1041,-96 1041,-96 1041,-102 1035,-108 1029,-108"/>
<text text-anchor="middle" x="963" y="-88.1" font-family="Verdana" font-size="8.00">MomentTensorStationContribution</text>
</a>
</g>
</g>
<!-- MomentTensor&#45;&gt;MomentTensorStationContribution -->
<g id="edge24" class="edge">
<title>MomentTensor&#45;&gt;MomentTensorStationContribution</title>
<path fill="none" stroke="#000000" d="M844.83,-140.24C869.42,-129.99 898.72,-117.78 922,-108.08"/>
<polygon fill="#000000" stroke="#000000" points="844.62,-140.33 840.62,-146.33 833.54,-144.94 837.54,-138.94 844.62,-140.33"/>
</g>
<!-- MomentTensorComponentContribution -->
<g id="node18" class="node">
<title>MomentTensorComponentContribution</title>
<g id="a_node18"><a xlink:href="../base/api-python.html#api-python-datamodel-momenttensorcomponentcontribution" xlink:title="MomentTensorComponentContribution" target="_top">
<path fill="#fcf2e3" stroke="transparent" stroke-width="0.5" d="M1038,-36C1038,-36 888,-36 888,-36 882,-36 876,-30 876,-24 876,-24 876,-12 876,-12 876,-6 882,0 888,0 888,0 1038,0 1038,0 1044,0 1050,-6 1050,-12 1050,-12 1050,-24 1050,-24 1050,-30 1044,-36 1038,-36"/>
<text text-anchor="middle" x="963" y="-16.1" font-family="Verdana" font-size="8.00">MomentTensorComponentContribution</text>
</a>
</g>
</g>
<!-- MomentTensorStationContribution&#45;&gt;MomentTensorComponentContribution -->
<g id="edge25" class="edge">
<title>MomentTensorStationContribution&#45;&gt;MomentTensorComponentContribution</title>
<path fill="none" stroke="#000000" d="M963,-59.67C963,-51.64 963,-43.2 963,-36.1"/>
<polygon fill="#000000" stroke="#000000" points="963,-59.7 967,-65.7 963,-71.7 959,-65.7 963,-59.7"/>
</g>
<!-- Event -->
<g id="node19" class="node">
<title>Event</title>
<g id="a_node19"><a xlink:href="../base/api-python.html#api-python-datamodel-event" xlink:title="Event" target="_top">
<path fill="#fcf2e3" stroke="transparent" stroke-width="0.5" d="M910,-252C910,-252 880,-252 880,-252 874,-252 868,-246 868,-240 868,-240 868,-228 868,-228 868,-222 874,-216 880,-216 880,-216 910,-216 910,-216 916,-216 922,-222 922,-228 922,-228 922,-240 922,-240 922,-246 916,-252 910,-252"/>
<text text-anchor="middle" x="895" y="-232.1" font-family="Verdana" font-size="8.00">Event</text>
</a>
</g>
</g>
<!-- Event&#45;&gt;Comment -->
<g id="edge8" class="edge">
<title>Event&#45;&gt;Comment</title>
<path fill="none" stroke="#000000" d="M856.15,-221.97C825.66,-212.63 782.56,-197.92 747,-180 705.57,-159.12 661.59,-127.61 636.02,-108.22"/>
<polygon fill="#000000" stroke="#000000" points="856.49,-222.07 863.39,-219.96 867.99,-225.51 861.09,-227.62 856.49,-222.07"/>
</g>
<!-- EventDescription -->
<g id="node20" class="node">
<title>EventDescription</title>
<g id="a_node20"><a xlink:href="../base/api-python.html#api-python-datamodel-eventdescription" xlink:title="EventDescription" target="_top">
<path fill="#fcf2e3" stroke="transparent" stroke-width="0.5" d="M926,-180C926,-180 864,-180 864,-180 858,-180 852,-174 852,-168 852,-168 852,-156 852,-156 852,-150 858,-144 864,-144 864,-144 926,-144 926,-144 932,-144 938,-150 938,-156 938,-156 938,-168 938,-168 938,-174 932,-180 926,-180"/>
<text text-anchor="middle" x="895" y="-160.1" font-family="Verdana" font-size="8.00">EventDescription</text>
</a>
</g>
</g>
<!-- Event&#45;&gt;EventDescription -->
<g id="edge27" class="edge">
<title>Event&#45;&gt;EventDescription</title>
<path fill="none" stroke="#000000" d="M895,-203.67C895,-195.64 895,-187.2 895,-180.1"/>
<polygon fill="#000000" stroke="#000000" points="895,-203.7 899,-209.7 895,-215.7 891,-209.7 895,-203.7"/>
</g>
<!-- OriginReference -->
<g id="node21" class="node">
<title>OriginReference</title>
<g id="a_node21"><a xlink:href="../base/api-python.html#api-python-datamodel-originreference" xlink:title="OriginReference" target="_top">
<path fill="#fcf2e3" stroke="transparent" stroke-width="0.5" d="M1027.5,-180C1027.5,-180 968.5,-180 968.5,-180 962.5,-180 956.5,-174 956.5,-168 956.5,-168 956.5,-156 956.5,-156 956.5,-150 962.5,-144 968.5,-144 968.5,-144 1027.5,-144 1027.5,-144 1033.5,-144 1039.5,-150 1039.5,-156 1039.5,-156 1039.5,-168 1039.5,-168 1039.5,-174 1033.5,-180 1027.5,-180"/>
<text text-anchor="middle" x="998" y="-160.1" font-family="Verdana" font-size="8.00">OriginReference</text>
</a>
</g>
</g>
<!-- Event&#45;&gt;OriginReference -->
<g id="edge28" class="edge">
<title>Event&#45;&gt;OriginReference</title>
<path fill="none" stroke="#000000" d="M930.42,-208.93C944.32,-199.48 959.97,-188.84 972.71,-180.19"/>
<polygon fill="#000000" stroke="#000000" points="930.12,-209.13 927.41,-215.81 920.2,-215.88 922.91,-209.2 930.12,-209.13"/>
</g>
<!-- FocalMechanismReference -->
<g id="node22" class="node">
<title>FocalMechanismReference</title>
<g id="a_node22"><a xlink:href="../base/api-python.html#api-python-datamodel-focalmechanismreference" xlink:title="FocalMechanismReference" target="_top">
<path fill="#fcf2e3" stroke="transparent" stroke-width="0.5" d="M1172.5,-180C1172.5,-180 1069.5,-180 1069.5,-180 1063.5,-180 1057.5,-174 1057.5,-168 1057.5,-168 1057.5,-156 1057.5,-156 1057.5,-150 1063.5,-144 1069.5,-144 1069.5,-144 1172.5,-144 1172.5,-144 1178.5,-144 1184.5,-150 1184.5,-156 1184.5,-156 1184.5,-168 1184.5,-168 1184.5,-174 1178.5,-180 1172.5,-180"/>
<text text-anchor="middle" x="1121" y="-160.1" font-family="Verdana" font-size="8.00">FocalMechanismReference</text>
</a>
</g>
</g>
<!-- Event&#45;&gt;FocalMechanismReference -->
<g id="edge29" class="edge">
<title>Event&#45;&gt;FocalMechanismReference</title>
<path fill="none" stroke="#000000" d="M933.86,-220.96C970.29,-209.68 1025.11,-192.7 1066.02,-180.03"/>
<polygon fill="#000000" stroke="#000000" points="933.72,-221.01 929.18,-226.6 922.26,-224.56 926.81,-218.96 933.72,-221.01"/>
</g>
<!-- EventParameters -->
<g id="node23" class="node">
<title>EventParameters</title>
<g id="a_node23"><a xlink:href="../base/api-python.html#api-python-datamodel-eventparameters" xlink:title="EventParameters" target="_top">
<path fill="#fcf2e3" stroke="transparent" stroke-width="0.5" d="M575,-324C575,-324 513,-324 513,-324 507,-324 501,-318 501,-312 501,-312 501,-300 501,-300 501,-294 507,-288 513,-288 513,-288 575,-288 575,-288 581,-288 587,-294 587,-300 587,-300 587,-312 587,-312 587,-318 581,-324 575,-324"/>
<text text-anchor="middle" x="544" y="-304.1" font-family="Verdana" font-size="8.00">EventParameters</text>
</a>
</g>
</g>
<!-- EventParameters&#45;&gt;Pick -->
<g id="edge1" class="edge">
<title>EventParameters&#45;&gt;Pick</title>
<path fill="none" stroke="#000000" d="M489.43,-287.79C444.94,-273.76 383.97,-254.54 349.21,-243.58"/>
<polygon fill="#000000" stroke="#000000" points="489.49,-287.81 496.41,-285.8 500.93,-291.42 494.01,-293.43 489.49,-287.81"/>
</g>
<!-- EventParameters&#45;&gt;Amplitude -->
<g id="edge10" class="edge">
<title>EventParameters&#45;&gt;Amplitude</title>
<path fill="none" stroke="#000000" d="M551.88,-275.95C554.09,-267.84 556.41,-259.28 558.36,-252.1"/>
<polygon fill="#000000" stroke="#000000" points="551.84,-276.12 554.13,-282.95 548.7,-287.7 546.41,-280.86 551.84,-276.12"/>
</g>
<!-- EventParameters&#45;&gt;Reading -->
<g id="edge11" class="edge">
<title>EventParameters&#45;&gt;Reading</title>
<path fill="none" stroke="#000000" d="M488.95,-295.09C404.31,-279.86 245.34,-251.26 182.03,-239.86"/>
<polygon fill="#000000" stroke="#000000" points="489.07,-295.12 495.69,-292.24 500.88,-297.24 494.27,-300.12 489.07,-295.12"/>
</g>
<!-- EventParameters&#45;&gt;Origin -->
<g id="edge14" class="edge">
<title>EventParameters&#45;&gt;Origin</title>
<path fill="none" stroke="#000000" d="M516.89,-279.36C507.3,-270.28 496.74,-260.3 488.08,-252.1"/>
<polygon fill="#000000" stroke="#000000" points="516.99,-279.45 524.1,-280.67 525.71,-287.7 518.6,-286.48 516.99,-279.45"/>
</g>
<!-- EventParameters&#45;&gt;FocalMechanism -->
<g id="edge20" class="edge">
<title>EventParameters&#45;&gt;FocalMechanism</title>
<path fill="none" stroke="#000000" d="M590.79,-282.57C611.42,-272.68 635.26,-261.25 654.4,-252.07"/>
<polygon fill="#000000" stroke="#000000" points="590.54,-282.69 586.86,-288.89 579.72,-287.88 583.4,-281.68 590.54,-282.69"/>
</g>
<!-- EventParameters&#45;&gt;Event -->
<g id="edge26" class="edge">
<title>EventParameters&#45;&gt;Event</title>
<path fill="none" stroke="#000000" d="M599.21,-293.99C675.5,-278.77 810.24,-251.9 867.75,-240.43"/>
<polygon fill="#000000" stroke="#000000" points="598.81,-294.07 593.71,-299.17 587.04,-296.42 592.14,-291.32 598.81,-294.07"/>
</g>
</g>
</svg>
