<?xml version="1.0" encoding="UTF-8" standalone="no"?>
<!DOCTYPE svg PUBLIC "-//W3C//DTD SVG 1.1//EN"
 "http://www.w3.org/Graphics/SVG/1.1/DTD/svg11.dtd">
<!-- Generated by graphviz version 2.43.0 (0)
 -->
<!-- Title: G Pages: 1 -->
<svg width="576pt" height="293pt"
 viewBox="0.00 0.00 576.00 292.72" xmlns="http://www.w3.org/2000/svg" xmlns:xlink="http://www.w3.org/1999/xlink">
<g id="graph0" class="graph" transform="scale(3.87 3.87) rotate(0) translate(4 1128)">
<title>G</title>
<polygon fill="white" stroke="transparent" points="-4,4 -4,-1128 2223.5,-1128 2223.5,4 -4,4"/>
<!-- StationGroup -->
<g id="node1" class="node">
<title>StationGroup</title>
<path fill="#fcf2e3" stroke="transparent" stroke-width="0.5" d="M186,-1024.5C186,-1024.5 12,-1024.5 12,-1024.5 6,-1024.5 0,-1018.5 0,-1012.5 0,-1012.5 0,-905.5 0,-905.5 0,-899.5 6,-893.5 12,-893.5 12,-893.5 186,-893.5 186,-893.5 192,-893.5 198,-899.5 198,-905.5 198,-905.5 198,-1012.5 198,-1012.5 198,-1018.5 192,-1024.5 186,-1024.5"/>
<text text-anchor="start" x="71.5" y="-1011.6" font-family="Verdana" font-size="8.00">StationGroup</text>
<text text-anchor="start" x="10" y="-1000.6" font-family="Verdana" font-size="8.00" fill="#8b0000">+ publicID: string</text>
<text text-anchor="start" x="10" y="-989.6" font-family="Verdana" font-size="8.00" fill="#8b0000">+ type: StationGroupType &#160;[0..1]</text>
<text text-anchor="start" x="10" y="-978.6" font-family="Verdana" font-size="8.00" fill="#8b0000">+ code: string</text>
<text text-anchor="start" x="10" y="-967.6" font-family="Verdana" font-size="8.00" fill="#8b0000">+ start: datetime &#160;[0..1]</text>
<text text-anchor="start" x="10" y="-956.6" font-family="Verdana" font-size="8.00" fill="#8b0000">+ end: datetime &#160;[0..1]</text>
<text text-anchor="start" x="10" y="-945.6" font-family="Verdana" font-size="8.00" fill="#8b0000">+ description: string</text>
<text text-anchor="start" x="10" y="-934.6" font-family="Verdana" font-size="8.00" fill="#8b0000">+ latitude: float &#160;[0..1]</text>
<text text-anchor="start" x="10" y="-923.6" font-family="Verdana" font-size="8.00" fill="#8b0000">+ longitude: float &#160;[0..1]</text>
<text text-anchor="start" x="10" y="-912.6" font-family="Verdana" font-size="8.00" fill="#8b0000">+ elevation: float &#160;[0..1]</text>
<text text-anchor="start" x="10" y="-901.6" font-family="Verdana" font-size="8.00" fill="#8b0000">+ stationReference: StationReference [0..*]</text>
</g>
<!-- StationReference -->
<g id="node2" class="node">
<title>StationReference</title>
<path fill="#fcf2e3" stroke="transparent" stroke-width="0.5" d="M134.5,-733C134.5,-733 63.5,-733 63.5,-733 57.5,-733 51.5,-727 51.5,-721 51.5,-721 51.5,-709 51.5,-709 51.5,-703 57.5,-697 63.5,-697 63.5,-697 134.5,-697 134.5,-697 140.5,-697 146.5,-703 146.5,-709 146.5,-709 146.5,-721 146.5,-721 146.5,-727 140.5,-733 134.5,-733"/>
<text text-anchor="start" x="63.5" y="-718.6" font-family="Verdana" font-size="8.00">StationReference</text>
<text text-anchor="start" x="62" y="-707.6" font-family="Verdana" font-size="8.00" fill="#8b0000">+ stationID: string</text>
</g>
<!-- StationGroup&#45;&gt;StationReference -->
<g id="edge2" class="edge">
<title>StationGroup&#45;&gt;StationReference</title>
<path fill="none" stroke="#000000" d="M99,-893.47C99,-844.49 99,-779.59 99,-743.4"/>
<polygon fill="#000000" stroke="#000000" points="102.5,-743.13 99,-733.13 95.5,-743.13 102.5,-743.13"/>
</g>
<!-- AuxDevice -->
<g id="node3" class="node">
<title>AuxDevice</title>
<path fill="#fcf2e3" stroke="transparent" stroke-width="0.5" d="M348,-1008C348,-1008 228,-1008 228,-1008 222,-1008 216,-1002 216,-996 216,-996 216,-922 216,-922 216,-916 222,-910 228,-910 228,-910 348,-910 348,-910 354,-910 360,-916 360,-922 360,-922 360,-996 360,-996 360,-1002 354,-1008 348,-1008"/>
<text text-anchor="start" x="266.5" y="-995.6" font-family="Verdana" font-size="8.00">AuxDevice</text>
<text text-anchor="start" x="226" y="-984.6" font-family="Verdana" font-size="8.00" fill="#8b0000">+ publicID: string</text>
<text text-anchor="start" x="226" y="-973.6" font-family="Verdana" font-size="8.00" fill="#8b0000">+ name: string</text>
<text text-anchor="start" x="226" y="-962.6" font-family="Verdana" font-size="8.00" fill="#8b0000">+ description: string</text>
<text text-anchor="start" x="226" y="-951.6" font-family="Verdana" font-size="8.00" fill="#8b0000">+ model: string</text>
<text text-anchor="start" x="226" y="-940.6" font-family="Verdana" font-size="8.00" fill="#8b0000">+ manufacturer: string</text>
<text text-anchor="start" x="226" y="-929.6" font-family="Verdana" font-size="8.00" fill="#8b0000">+ remark: Blob &#160;[0..1]</text>
<text text-anchor="start" x="226" y="-918.6" font-family="Verdana" font-size="8.00" fill="#8b0000">+ auxSource: AuxSource [0..*]</text>
</g>
<!-- AuxSource -->
<g id="node4" class="node">
<title>AuxSource</title>
<path fill="#fcf2e3" stroke="transparent" stroke-width="0.5" d="M362.5,-764C362.5,-764 213.5,-764 213.5,-764 207.5,-764 201.5,-758 201.5,-752 201.5,-752 201.5,-678 201.5,-678 201.5,-672 207.5,-666 213.5,-666 213.5,-666 362.5,-666 362.5,-666 368.5,-666 374.5,-672 374.5,-678 374.5,-678 374.5,-752 374.5,-752 374.5,-758 368.5,-764 362.5,-764"/>
<text text-anchor="start" x="266.5" y="-751.6" font-family="Verdana" font-size="8.00">AuxSource</text>
<text text-anchor="start" x="212" y="-740.6" font-family="Verdana" font-size="8.00" fill="#8b0000">+ name: string</text>
<text text-anchor="start" x="212" y="-729.6" font-family="Verdana" font-size="8.00" fill="#8b0000">+ description: string</text>
<text text-anchor="start" x="212" y="-718.6" font-family="Verdana" font-size="8.00" fill="#8b0000">+ unit: string</text>
<text text-anchor="start" x="212" y="-707.6" font-family="Verdana" font-size="8.00" fill="#8b0000">+ conversion: string</text>
<text text-anchor="start" x="212" y="-696.6" font-family="Verdana" font-size="8.00" fill="#8b0000">+ sampleRateNumerator: int &#160;[0..1]</text>
<text text-anchor="start" x="212" y="-685.6" font-family="Verdana" font-size="8.00" fill="#8b0000">+ sampleRateDenominator: int &#160;[0..1]</text>
<text text-anchor="start" x="212" y="-674.6" font-family="Verdana" font-size="8.00" fill="#8b0000">+ remark: Blob &#160;[0..1]</text>
</g>
<!-- AuxDevice&#45;&gt;AuxSource -->
<g id="edge4" class="edge">
<title>AuxDevice&#45;&gt;AuxSource</title>
<path fill="none" stroke="#000000" d="M288,-909.9C288,-870.89 288,-815.76 288,-774.25"/>
<polygon fill="#000000" stroke="#000000" points="291.5,-774.01 288,-764.01 284.5,-774.01 291.5,-774.01"/>
</g>
<!-- Sensor -->
<g id="node5" class="node">
<title>Sensor</title>
<path fill="#fcf2e3" stroke="transparent" stroke-width="0.5" d="M567.5,-1035.5C567.5,-1035.5 390.5,-1035.5 390.5,-1035.5 384.5,-1035.5 378.5,-1029.5 378.5,-1023.5 378.5,-1023.5 378.5,-894.5 378.5,-894.5 378.5,-888.5 384.5,-882.5 390.5,-882.5 390.5,-882.5 567.5,-882.5 567.5,-882.5 573.5,-882.5 579.5,-888.5 579.5,-894.5 579.5,-894.5 579.5,-1023.5 579.5,-1023.5 579.5,-1029.5 573.5,-1035.5 567.5,-1035.5"/>
<text text-anchor="start" x="465" y="-1022.6" font-family="Verdana" font-size="8.00">Sensor</text>
<text text-anchor="start" x="389" y="-1011.6" font-family="Verdana" font-size="8.00" fill="#8b0000">+ publicID: string</text>
<text text-anchor="start" x="389" y="-1000.6" font-family="Verdana" font-size="8.00" fill="#8b0000">+ name: string</text>
<text text-anchor="start" x="389" y="-989.6" font-family="Verdana" font-size="8.00" fill="#8b0000">+ description: string</text>
<text text-anchor="start" x="389" y="-978.6" font-family="Verdana" font-size="8.00" fill="#8b0000">+ model: string</text>
<text text-anchor="start" x="389" y="-967.6" font-family="Verdana" font-size="8.00" fill="#8b0000">+ manufacturer: string</text>
<text text-anchor="start" x="389" y="-956.6" font-family="Verdana" font-size="8.00" fill="#8b0000">+ type: string</text>
<text text-anchor="start" x="389" y="-945.6" font-family="Verdana" font-size="8.00" fill="#8b0000">+ unit: string</text>
<text text-anchor="start" x="389" y="-934.6" font-family="Verdana" font-size="8.00" fill="#8b0000">+ lowFrequency: float &#160;[0..1]</text>
<text text-anchor="start" x="389" y="-923.6" font-family="Verdana" font-size="8.00" fill="#8b0000">+ highFrequency: float &#160;[0..1]</text>
<text text-anchor="start" x="389" y="-912.6" font-family="Verdana" font-size="8.00" fill="#8b0000">+ response: string</text>
<text text-anchor="start" x="389" y="-901.6" font-family="Verdana" font-size="8.00" fill="#8b0000">+ remark: Blob &#160;[0..1]</text>
<text text-anchor="start" x="389" y="-890.6" font-family="Verdana" font-size="8.00" fill="#8b0000">+ sensorCalibration: SensorCalibration [0..*]</text>
</g>
<!-- SensorCalibration -->
<g id="node6" class="node">
<title>SensorCalibration</title>
<path fill="#fcf2e3" stroke="transparent" stroke-width="0.5" d="M536.5,-764C536.5,-764 421.5,-764 421.5,-764 415.5,-764 409.5,-758 409.5,-752 409.5,-752 409.5,-678 409.5,-678 409.5,-672 415.5,-666 421.5,-666 421.5,-666 536.5,-666 536.5,-666 542.5,-666 548.5,-672 548.5,-678 548.5,-678 548.5,-752 548.5,-752 548.5,-758 542.5,-764 536.5,-764"/>
<text text-anchor="start" x="443" y="-751.6" font-family="Verdana" font-size="8.00">SensorCalibration</text>
<text text-anchor="start" x="420" y="-740.6" font-family="Verdana" font-size="8.00" fill="#8b0000">+ serialNumber: string</text>
<text text-anchor="start" x="420" y="-729.6" font-family="Verdana" font-size="8.00" fill="#8b0000">+ channel: int</text>
<text text-anchor="start" x="420" y="-718.6" font-family="Verdana" font-size="8.00" fill="#8b0000">+ start: datetime</text>
<text text-anchor="start" x="420" y="-707.6" font-family="Verdana" font-size="8.00" fill="#8b0000">+ end: datetime &#160;[0..1]</text>
<text text-anchor="start" x="420" y="-696.6" font-family="Verdana" font-size="8.00" fill="#8b0000">+ gain: float &#160;[0..1]</text>
<text text-anchor="start" x="420" y="-685.6" font-family="Verdana" font-size="8.00" fill="#8b0000">+ gainFrequency: float &#160;[0..1]</text>
<text text-anchor="start" x="420" y="-674.6" font-family="Verdana" font-size="8.00" fill="#8b0000">+ remark: Blob &#160;[0..1]</text>
</g>
<!-- Sensor&#45;&gt;SensorCalibration -->
<g id="edge6" class="edge">
<title>Sensor&#45;&gt;SensorCalibration</title>
<path fill="none" stroke="#000000" d="M479,-882.43C479,-847.64 479,-806.99 479,-774.57"/>
<polygon fill="#000000" stroke="#000000" points="482.5,-774.35 479,-764.35 475.5,-774.35 482.5,-774.35"/>
</g>
<!-- Datalogger -->
<g id="node7" class="node">
<title>Datalogger</title>
<path fill="#fcf2e3" stroke="transparent" stroke-width="0.5" d="M822,-1052C822,-1052 610,-1052 610,-1052 604,-1052 598,-1046 598,-1040 598,-1040 598,-878 598,-878 598,-872 604,-866 610,-866 610,-866 822,-866 822,-866 828,-866 834,-872 834,-878 834,-878 834,-1040 834,-1040 834,-1046 828,-1052 822,-1052"/>
<text text-anchor="start" x="693" y="-1039.6" font-family="Verdana" font-size="8.00">Datalogger</text>
<text text-anchor="start" x="608" y="-1028.6" font-family="Verdana" font-size="8.00" fill="#8b0000">+ publicID: string</text>
<text text-anchor="start" x="608" y="-1017.6" font-family="Verdana" font-size="8.00" fill="#8b0000">+ name: string</text>
<text text-anchor="start" x="608" y="-1006.6" font-family="Verdana" font-size="8.00" fill="#8b0000">+ description: string</text>
<text text-anchor="start" x="608" y="-995.6" font-family="Verdana" font-size="8.00" fill="#8b0000">+ digitizerModel: string</text>
<text text-anchor="start" x="608" y="-984.6" font-family="Verdana" font-size="8.00" fill="#8b0000">+ digitizerManufacturer: string</text>
<text text-anchor="start" x="608" y="-973.6" font-family="Verdana" font-size="8.00" fill="#8b0000">+ recorderModel: string</text>
<text text-anchor="start" x="608" y="-962.6" font-family="Verdana" font-size="8.00" fill="#8b0000">+ recorderManufacturer: string</text>
<text text-anchor="start" x="608" y="-951.6" font-family="Verdana" font-size="8.00" fill="#8b0000">+ clockModel: string</text>
<text text-anchor="start" x="608" y="-940.6" font-family="Verdana" font-size="8.00" fill="#8b0000">+ clockManufacturer: string</text>
<text text-anchor="start" x="608" y="-929.6" font-family="Verdana" font-size="8.00" fill="#8b0000">+ clockType: string</text>
<text text-anchor="start" x="608" y="-918.6" font-family="Verdana" font-size="8.00" fill="#8b0000">+ gain: float &#160;[0..1]</text>
<text text-anchor="start" x="608" y="-907.6" font-family="Verdana" font-size="8.00" fill="#8b0000">+ maxClockDrift: float &#160;[0..1]</text>
<text text-anchor="start" x="608" y="-896.6" font-family="Verdana" font-size="8.00" fill="#8b0000">+ remark: Blob &#160;[0..1]</text>
<text text-anchor="start" x="608" y="-885.6" font-family="Verdana" font-size="8.00" fill="#8b0000">+ dataloggerCalibration: DataloggerCalibration [0..*]</text>
<text text-anchor="start" x="608" y="-874.6" font-family="Verdana" font-size="8.00" fill="#8b0000">+ decimation: Decimation [0..*]</text>
</g>
<!-- DataloggerCalibration -->
<g id="node8" class="node">
<title>DataloggerCalibration</title>
<path fill="#fcf2e3" stroke="transparent" stroke-width="0.5" d="M733.5,-764C733.5,-764 618.5,-764 618.5,-764 612.5,-764 606.5,-758 606.5,-752 606.5,-752 606.5,-678 606.5,-678 606.5,-672 612.5,-666 618.5,-666 618.5,-666 733.5,-666 733.5,-666 739.5,-666 745.5,-672 745.5,-678 745.5,-678 745.5,-752 745.5,-752 745.5,-758 739.5,-764 733.5,-764"/>
<text text-anchor="start" x="631" y="-751.6" font-family="Verdana" font-size="8.00">DataloggerCalibration</text>
<text text-anchor="start" x="617" y="-740.6" font-family="Verdana" font-size="8.00" fill="#8b0000">+ serialNumber: string</text>
<text text-anchor="start" x="617" y="-729.6" font-family="Verdana" font-size="8.00" fill="#8b0000">+ channel: int</text>
<text text-anchor="start" x="617" y="-718.6" font-family="Verdana" font-size="8.00" fill="#8b0000">+ start: datetime</text>
<text text-anchor="start" x="617" y="-707.6" font-family="Verdana" font-size="8.00" fill="#8b0000">+ end: datetime &#160;[0..1]</text>
<text text-anchor="start" x="617" y="-696.6" font-family="Verdana" font-size="8.00" fill="#8b0000">+ gain: float &#160;[0..1]</text>
<text text-anchor="start" x="617" y="-685.6" font-family="Verdana" font-size="8.00" fill="#8b0000">+ gainFrequency: float &#160;[0..1]</text>
<text text-anchor="start" x="617" y="-674.6" font-family="Verdana" font-size="8.00" fill="#8b0000">+ remark: Blob &#160;[0..1]</text>
</g>
<!-- Datalogger&#45;&gt;DataloggerCalibration -->
<g id="edge8" class="edge">
<title>Datalogger&#45;&gt;DataloggerCalibration</title>
<path fill="none" stroke="#000000" d="M700.76,-865.82C695.69,-835.14 690.19,-801.84 685.66,-774.45"/>
<polygon fill="#000000" stroke="#000000" points="689.06,-773.55 683.98,-764.25 682.15,-774.69 689.06,-773.55"/>
</g>
<!-- Decimation -->
<g id="node9" class="node">
<title>Decimation</title>
<path fill="#fcf2e3" stroke="transparent" stroke-width="0.5" d="M912,-747.5C912,-747.5 776,-747.5 776,-747.5 770,-747.5 764,-741.5 764,-735.5 764,-735.5 764,-694.5 764,-694.5 764,-688.5 770,-682.5 776,-682.5 776,-682.5 912,-682.5 912,-682.5 918,-682.5 924,-688.5 924,-694.5 924,-694.5 924,-735.5 924,-735.5 924,-741.5 918,-747.5 912,-747.5"/>
<text text-anchor="start" x="820.5" y="-734.6" font-family="Verdana" font-size="8.00">Decimation</text>
<text text-anchor="start" x="774" y="-723.6" font-family="Verdana" font-size="8.00" fill="#8b0000">+ sampleRateNumerator: int</text>
<text text-anchor="start" x="774" y="-712.6" font-family="Verdana" font-size="8.00" fill="#8b0000">+ sampleRateDenominator: int</text>
<text text-anchor="start" x="774" y="-701.6" font-family="Verdana" font-size="8.00" fill="#8b0000">+ analogueFilterChain: Blob &#160;[0..1]</text>
<text text-anchor="start" x="774" y="-690.6" font-family="Verdana" font-size="8.00" fill="#8b0000">+ digitalFilterChain: Blob &#160;[0..1]</text>
</g>
<!-- Datalogger&#45;&gt;Decimation -->
<g id="edge9" class="edge">
<title>Datalogger&#45;&gt;Decimation</title>
<path fill="none" stroke="#000000" d="M764.76,-865.82C784.73,-828.05 806.81,-786.31 822.58,-756.5"/>
<polygon fill="#000000" stroke="#000000" points="825.68,-758.12 827.26,-747.65 819.49,-754.85 825.68,-758.12"/>
</g>
<!-- ResponsePAZ -->
<g id="node10" class="node">
<title>ResponsePAZ</title>
<path fill="#fcf2e3" stroke="transparent" stroke-width="0.5" d="M1017.5,-1052C1017.5,-1052 864.5,-1052 864.5,-1052 858.5,-1052 852.5,-1046 852.5,-1040 852.5,-1040 852.5,-878 852.5,-878 852.5,-872 858.5,-866 864.5,-866 864.5,-866 1017.5,-866 1017.5,-866 1023.5,-866 1029.5,-872 1029.5,-878 1029.5,-878 1029.5,-1040 1029.5,-1040 1029.5,-1046 1023.5,-1052 1017.5,-1052"/>
<text text-anchor="start" x="913.5" y="-1039.6" font-family="Verdana" font-size="8.00">ResponsePAZ</text>
<text text-anchor="start" x="863" y="-1028.6" font-family="Verdana" font-size="8.00" fill="#8b0000">+ publicID: string</text>
<text text-anchor="start" x="863" y="-1017.6" font-family="Verdana" font-size="8.00" fill="#8b0000">+ name: string</text>
<text text-anchor="start" x="863" y="-1006.6" font-family="Verdana" font-size="8.00" fill="#8b0000">+ type: string</text>
<text text-anchor="start" x="863" y="-995.6" font-family="Verdana" font-size="8.00" fill="#8b0000">+ gain: float &#160;[0..1]</text>
<text text-anchor="start" x="863" y="-984.6" font-family="Verdana" font-size="8.00" fill="#8b0000">+ gainFrequency: float &#160;[0..1]</text>
<text text-anchor="start" x="863" y="-973.6" font-family="Verdana" font-size="8.00" fill="#8b0000">+ normalizationFactor: float &#160;[0..1]</text>
<text text-anchor="start" x="863" y="-962.6" font-family="Verdana" font-size="8.00" fill="#8b0000">+ normalizationFrequency: float &#160;[0..1]</text>
<text text-anchor="start" x="863" y="-951.6" font-family="Verdana" font-size="8.00" fill="#8b0000">+ numberOfZeros: int &#160;[0..1]</text>
<text text-anchor="start" x="863" y="-940.6" font-family="Verdana" font-size="8.00" fill="#8b0000">+ numberOfPoles: int &#160;[0..1]</text>
<text text-anchor="start" x="863" y="-929.6" font-family="Verdana" font-size="8.00" fill="#8b0000">+ zeros: ComplexArray &#160;[0..1]</text>
<text text-anchor="start" x="863" y="-918.6" font-family="Verdana" font-size="8.00" fill="#8b0000">+ poles: ComplexArray &#160;[0..1]</text>
<text text-anchor="start" x="863" y="-907.6" font-family="Verdana" font-size="8.00" fill="#8b0000">+ remark: Blob &#160;[0..1]</text>
<text text-anchor="start" x="863" y="-896.6" font-family="Verdana" font-size="8.00" fill="#8b0000">+ decimationFactor: int &#160;[0..1]</text>
<text text-anchor="start" x="863" y="-885.6" font-family="Verdana" font-size="8.00" fill="#8b0000">+ delay: float &#160;[0..1]</text>
<text text-anchor="start" x="863" y="-874.6" font-family="Verdana" font-size="8.00" fill="#8b0000">+ correction: float &#160;[0..1]</text>
</g>
<!-- ResponseFIR -->
<g id="node11" class="node">
<title>ResponseFIR</title>
<path fill="#fcf2e3" stroke="transparent" stroke-width="0.5" d="M1194.5,-1030C1194.5,-1030 1059.5,-1030 1059.5,-1030 1053.5,-1030 1047.5,-1024 1047.5,-1018 1047.5,-1018 1047.5,-900 1047.5,-900 1047.5,-894 1053.5,-888 1059.5,-888 1059.5,-888 1194.5,-888 1194.5,-888 1200.5,-888 1206.5,-894 1206.5,-900 1206.5,-900 1206.5,-1018 1206.5,-1018 1206.5,-1024 1200.5,-1030 1194.5,-1030"/>
<text text-anchor="start" x="1101" y="-1017.6" font-family="Verdana" font-size="8.00">ResponseFIR</text>
<text text-anchor="start" x="1058" y="-1006.6" font-family="Verdana" font-size="8.00" fill="#8b0000">+ publicID: string</text>
<text text-anchor="start" x="1058" y="-995.6" font-family="Verdana" font-size="8.00" fill="#8b0000">+ name: string</text>
<text text-anchor="start" x="1058" y="-984.6" font-family="Verdana" font-size="8.00" fill="#8b0000">+ gain: float &#160;[0..1]</text>
<text text-anchor="start" x="1058" y="-973.6" font-family="Verdana" font-size="8.00" fill="#8b0000">+ gainFrequency: float &#160;[0..1]</text>
<text text-anchor="start" x="1058" y="-962.6" font-family="Verdana" font-size="8.00" fill="#8b0000">+ decimationFactor: int &#160;[0..1]</text>
<text text-anchor="start" x="1058" y="-951.6" font-family="Verdana" font-size="8.00" fill="#8b0000">+ delay: float &#160;[0..1]</text>
<text text-anchor="start" x="1058" y="-940.6" font-family="Verdana" font-size="8.00" fill="#8b0000">+ correction: float &#160;[0..1]</text>
<text text-anchor="start" x="1058" y="-929.6" font-family="Verdana" font-size="8.00" fill="#8b0000">+ numberOfCoefficients: int &#160;[0..1]</text>
<text text-anchor="start" x="1058" y="-918.6" font-family="Verdana" font-size="8.00" fill="#8b0000">+ symmetry: string</text>
<text text-anchor="start" x="1058" y="-907.6" font-family="Verdana" font-size="8.00" fill="#8b0000">+ coefficients: RealArray &#160;[0..1]</text>
<text text-anchor="start" x="1058" y="-896.6" font-family="Verdana" font-size="8.00" fill="#8b0000">+ remark: Blob &#160;[0..1]</text>
</g>
<!-- ResponseIIR -->
<g id="node12" class="node">
<title>ResponseIIR</title>
<path fill="#fcf2e3" stroke="transparent" stroke-width="0.5" d="M1381.5,-1041C1381.5,-1041 1236.5,-1041 1236.5,-1041 1230.5,-1041 1224.5,-1035 1224.5,-1029 1224.5,-1029 1224.5,-889 1224.5,-889 1224.5,-883 1230.5,-877 1236.5,-877 1236.5,-877 1381.5,-877 1381.5,-877 1387.5,-877 1393.5,-883 1393.5,-889 1393.5,-889 1393.5,-1029 1393.5,-1029 1393.5,-1035 1387.5,-1041 1381.5,-1041"/>
<text text-anchor="start" x="1284" y="-1028.6" font-family="Verdana" font-size="8.00">ResponseIIR</text>
<text text-anchor="start" x="1235" y="-1017.6" font-family="Verdana" font-size="8.00" fill="#8b0000">+ publicID: string</text>
<text text-anchor="start" x="1235" y="-1006.6" font-family="Verdana" font-size="8.00" fill="#8b0000">+ name: string</text>
<text text-anchor="start" x="1235" y="-995.6" font-family="Verdana" font-size="8.00" fill="#8b0000">+ type: string</text>
<text text-anchor="start" x="1235" y="-984.6" font-family="Verdana" font-size="8.00" fill="#8b0000">+ gain: float &#160;[0..1]</text>
<text text-anchor="start" x="1235" y="-973.6" font-family="Verdana" font-size="8.00" fill="#8b0000">+ gainFrequency: float &#160;[0..1]</text>
<text text-anchor="start" x="1235" y="-962.6" font-family="Verdana" font-size="8.00" fill="#8b0000">+ decimationFactor: int &#160;[0..1]</text>
<text text-anchor="start" x="1235" y="-951.6" font-family="Verdana" font-size="8.00" fill="#8b0000">+ delay: float &#160;[0..1]</text>
<text text-anchor="start" x="1235" y="-940.6" font-family="Verdana" font-size="8.00" fill="#8b0000">+ correction: float &#160;[0..1]</text>
<text text-anchor="start" x="1235" y="-929.6" font-family="Verdana" font-size="8.00" fill="#8b0000">+ numberOfNumerators: int &#160;[0..1]</text>
<text text-anchor="start" x="1235" y="-918.6" font-family="Verdana" font-size="8.00" fill="#8b0000">+ numberOfDenominators: int &#160;[0..1]</text>
<text text-anchor="start" x="1235" y="-907.6" font-family="Verdana" font-size="8.00" fill="#8b0000">+ numerators: RealArray &#160;[0..1]</text>
<text text-anchor="start" x="1235" y="-896.6" font-family="Verdana" font-size="8.00" fill="#8b0000">+ denominators: RealArray &#160;[0..1]</text>
<text text-anchor="start" x="1235" y="-885.6" font-family="Verdana" font-size="8.00" fill="#8b0000">+ remark: Blob &#160;[0..1]</text>
</g>
<!-- ResponsePolynomial -->
<g id="node13" class="node">
<title>ResponsePolynomial</title>
<path fill="#fcf2e3" stroke="transparent" stroke-width="0.5" d="M1588.5,-1035.5C1588.5,-1035.5 1423.5,-1035.5 1423.5,-1035.5 1417.5,-1035.5 1411.5,-1029.5 1411.5,-1023.5 1411.5,-1023.5 1411.5,-894.5 1411.5,-894.5 1411.5,-888.5 1417.5,-882.5 1423.5,-882.5 1423.5,-882.5 1588.5,-882.5 1588.5,-882.5 1594.5,-882.5 1600.5,-888.5 1600.5,-894.5 1600.5,-894.5 1600.5,-1023.5 1600.5,-1023.5 1600.5,-1029.5 1594.5,-1035.5 1588.5,-1035.5"/>
<text text-anchor="start" x="1464" y="-1022.6" font-family="Verdana" font-size="8.00">ResponsePolynomial</text>
<text text-anchor="start" x="1422" y="-1011.6" font-family="Verdana" font-size="8.00" fill="#8b0000">+ publicID: string</text>
<text text-anchor="start" x="1422" y="-1000.6" font-family="Verdana" font-size="8.00" fill="#8b0000">+ name: string</text>
<text text-anchor="start" x="1422" y="-989.6" font-family="Verdana" font-size="8.00" fill="#8b0000">+ gain: float &#160;[0..1]</text>
<text text-anchor="start" x="1422" y="-978.6" font-family="Verdana" font-size="8.00" fill="#8b0000">+ gainFrequency: float &#160;[0..1]</text>
<text text-anchor="start" x="1422" y="-967.6" font-family="Verdana" font-size="8.00" fill="#8b0000">+ frequencyUnit: string</text>
<text text-anchor="start" x="1422" y="-956.6" font-family="Verdana" font-size="8.00" fill="#8b0000">+ approximationType: string</text>
<text text-anchor="start" x="1422" y="-945.6" font-family="Verdana" font-size="8.00" fill="#8b0000">+ approximationLowerBound: float &#160;[0..1]</text>
<text text-anchor="start" x="1422" y="-934.6" font-family="Verdana" font-size="8.00" fill="#8b0000">+ approximationUpperBound: float &#160;[0..1]</text>
<text text-anchor="start" x="1422" y="-923.6" font-family="Verdana" font-size="8.00" fill="#8b0000">+ approximationError: float &#160;[0..1]</text>
<text text-anchor="start" x="1422" y="-912.6" font-family="Verdana" font-size="8.00" fill="#8b0000">+ numberOfCoefficients: int &#160;[0..1]</text>
<text text-anchor="start" x="1422" y="-901.6" font-family="Verdana" font-size="8.00" fill="#8b0000">+ coefficients: RealArray &#160;[0..1]</text>
<text text-anchor="start" x="1422" y="-890.6" font-family="Verdana" font-size="8.00" fill="#8b0000">+ remark: Blob &#160;[0..1]</text>
</g>
<!-- ResponseFAP -->
<g id="node14" class="node">
<title>ResponseFAP</title>
<path fill="#fcf2e3" stroke="transparent" stroke-width="0.5" d="M1745.5,-1008C1745.5,-1008 1630.5,-1008 1630.5,-1008 1624.5,-1008 1618.5,-1002 1618.5,-996 1618.5,-996 1618.5,-922 1618.5,-922 1618.5,-916 1624.5,-910 1630.5,-910 1630.5,-910 1745.5,-910 1745.5,-910 1751.5,-910 1757.5,-916 1757.5,-922 1757.5,-922 1757.5,-996 1757.5,-996 1757.5,-1002 1751.5,-1008 1745.5,-1008"/>
<text text-anchor="start" x="1661" y="-995.6" font-family="Verdana" font-size="8.00">ResponseFAP</text>
<text text-anchor="start" x="1629" y="-984.6" font-family="Verdana" font-size="8.00" fill="#8b0000">+ publicID: string</text>
<text text-anchor="start" x="1629" y="-973.6" font-family="Verdana" font-size="8.00" fill="#8b0000">+ name: string</text>
<text text-anchor="start" x="1629" y="-962.6" font-family="Verdana" font-size="8.00" fill="#8b0000">+ gain: float &#160;[0..1]</text>
<text text-anchor="start" x="1629" y="-951.6" font-family="Verdana" font-size="8.00" fill="#8b0000">+ gainFrequency: float &#160;[0..1]</text>
<text text-anchor="start" x="1629" y="-940.6" font-family="Verdana" font-size="8.00" fill="#8b0000">+ numberOfTuples: int &#160;[0..1]</text>
<text text-anchor="start" x="1629" y="-929.6" font-family="Verdana" font-size="8.00" fill="#8b0000">+ tuples: RealArray &#160;[0..1]</text>
<text text-anchor="start" x="1629" y="-918.6" font-family="Verdana" font-size="8.00" fill="#8b0000">+ remark: Blob &#160;[0..1]</text>
</g>
<!-- Network -->
<g id="node15" class="node">
<title>Network</title>
<path fill="#fcf2e3" stroke="transparent" stroke-width="0.5" d="M1898,-1052C1898,-1052 1788,-1052 1788,-1052 1782,-1052 1776,-1046 1776,-1040 1776,-1040 1776,-878 1776,-878 1776,-872 1782,-866 1788,-866 1788,-866 1898,-866 1898,-866 1904,-866 1910,-872 1910,-878 1910,-878 1910,-1040 1910,-1040 1910,-1046 1904,-1052 1898,-1052"/>
<text text-anchor="start" x="1826" y="-1039.6" font-family="Verdana" font-size="8.00">Network</text>
<text text-anchor="start" x="1786" y="-1028.6" font-family="Verdana" font-size="8.00" fill="#8b0000">+ publicID: string</text>
<text text-anchor="start" x="1786" y="-1017.6" font-family="Verdana" font-size="8.00" fill="#8b0000">+ code: string</text>
<text text-anchor="start" x="1786" y="-1006.6" font-family="Verdana" font-size="8.00" fill="#8b0000">+ start: datetime</text>
<text text-anchor="start" x="1786" y="-995.6" font-family="Verdana" font-size="8.00" fill="#8b0000">+ end: datetime &#160;[0..1]</text>
<text text-anchor="start" x="1786" y="-984.6" font-family="Verdana" font-size="8.00" fill="#8b0000">+ description: string</text>
<text text-anchor="start" x="1786" y="-973.6" font-family="Verdana" font-size="8.00" fill="#8b0000">+ institutions: string</text>
<text text-anchor="start" x="1786" y="-962.6" font-family="Verdana" font-size="8.00" fill="#8b0000">+ region: string</text>
<text text-anchor="start" x="1786" y="-951.6" font-family="Verdana" font-size="8.00" fill="#8b0000">+ type: string</text>
<text text-anchor="start" x="1786" y="-940.6" font-family="Verdana" font-size="8.00" fill="#8b0000">+ netClass: string</text>
<text text-anchor="start" x="1786" y="-929.6" font-family="Verdana" font-size="8.00" fill="#8b0000">+ archive: string</text>
<text text-anchor="start" x="1786" y="-918.6" font-family="Verdana" font-size="8.00" fill="#8b0000">+ restricted: boolean &#160;[0..1]</text>
<text text-anchor="start" x="1786" y="-907.6" font-family="Verdana" font-size="8.00" fill="#8b0000">+ shared: boolean &#160;[0..1]</text>
<text text-anchor="start" x="1786" y="-896.6" font-family="Verdana" font-size="8.00" fill="#8b0000">+ remark: Blob &#160;[0..1]</text>
<text text-anchor="start" x="1786" y="-885.6" font-family="Verdana" font-size="8.00" fill="#8b0000">+ comment: Comment [0..*]</text>
<text text-anchor="start" x="1786" y="-874.6" font-family="Verdana" font-size="8.00" fill="#8b0000">+ station: Station [0..*]</text>
</g>
<!-- Comment -->
<g id="node16" class="node">
<title>Comment</title>
<path fill="#fcf2e3" stroke="transparent" stroke-width="0.5" d="M1908,-76C1908,-76 1772,-76 1772,-76 1766,-76 1760,-70 1760,-64 1760,-64 1760,-12 1760,-12 1760,-6 1766,0 1772,0 1772,0 1908,0 1908,0 1914,0 1920,-6 1920,-12 1920,-12 1920,-64 1920,-64 1920,-70 1914,-76 1908,-76"/>
<text text-anchor="start" x="1820" y="-63.6" font-family="Verdana" font-size="8.00">Comment</text>
<text text-anchor="start" x="1770" y="-52.6" font-family="Verdana" font-size="8.00" fill="#8b0000">+ text: string</text>
<text text-anchor="start" x="1770" y="-41.6" font-family="Verdana" font-size="8.00" fill="#8b0000">+ id: string</text>
<text text-anchor="start" x="1770" y="-30.6" font-family="Verdana" font-size="8.00" fill="#8b0000">+ start: datetime &#160;[0..1]</text>
<text text-anchor="start" x="1770" y="-19.6" font-family="Verdana" font-size="8.00" fill="#8b0000">+ end: datetime &#160;[0..1]</text>
<text text-anchor="start" x="1770" y="-8.6" font-family="Verdana" font-size="8.00" fill="#8b0000">+ creationInfo: CreationInfo &#160;[0..1]</text>
</g>
<!-- Network&#45;&gt;Comment -->
<g id="edge19" class="edge">
<title>Network&#45;&gt;Comment</title>
<path fill="none" stroke="#000000" d="M1809.77,-865.84C1806.57,-853.91 1803.84,-841.76 1802,-830 1781.24,-697.13 1813.84,-189.45 1824,-112 1825.1,-103.59 1826.69,-94.71 1828.43,-86.15"/>
<polygon fill="#000000" stroke="#000000" points="1831.87,-86.81 1830.54,-76.3 1825.03,-85.34 1831.87,-86.81"/>
</g>
<!-- Station -->
<g id="node17" class="node">
<title>Station</title>
<path fill="#fcf2e3" stroke="transparent" stroke-width="0.5" d="M1982.5,-830C1982.5,-830 1823.5,-830 1823.5,-830 1817.5,-830 1811.5,-824 1811.5,-818 1811.5,-818 1811.5,-612 1811.5,-612 1811.5,-606 1817.5,-600 1823.5,-600 1823.5,-600 1982.5,-600 1982.5,-600 1988.5,-600 1994.5,-606 1994.5,-612 1994.5,-612 1994.5,-818 1994.5,-818 1994.5,-824 1988.5,-830 1982.5,-830"/>
<text text-anchor="start" x="1888.5" y="-817.6" font-family="Verdana" font-size="8.00">Station</text>
<text text-anchor="start" x="1822" y="-806.6" font-family="Verdana" font-size="8.00" fill="#8b0000">+ publicID: string</text>
<text text-anchor="start" x="1822" y="-795.6" font-family="Verdana" font-size="8.00" fill="#8b0000">+ code: string</text>
<text text-anchor="start" x="1822" y="-784.6" font-family="Verdana" font-size="8.00" fill="#8b0000">+ start: datetime</text>
<text text-anchor="start" x="1822" y="-773.6" font-family="Verdana" font-size="8.00" fill="#8b0000">+ end: datetime &#160;[0..1]</text>
<text text-anchor="start" x="1822" y="-762.6" font-family="Verdana" font-size="8.00" fill="#8b0000">+ description: string</text>
<text text-anchor="start" x="1822" y="-751.6" font-family="Verdana" font-size="8.00" fill="#8b0000">+ latitude: float &#160;[0..1]</text>
<text text-anchor="start" x="1822" y="-740.6" font-family="Verdana" font-size="8.00" fill="#8b0000">+ longitude: float &#160;[0..1]</text>
<text text-anchor="start" x="1822" y="-729.6" font-family="Verdana" font-size="8.00" fill="#8b0000">+ elevation: float &#160;[0..1]</text>
<text text-anchor="start" x="1822" y="-718.6" font-family="Verdana" font-size="8.00" fill="#8b0000">+ place: string</text>
<text text-anchor="start" x="1822" y="-707.6" font-family="Verdana" font-size="8.00" fill="#8b0000">+ country: string</text>
<text text-anchor="start" x="1822" y="-696.6" font-family="Verdana" font-size="8.00" fill="#8b0000">+ affiliation: string</text>
<text text-anchor="start" x="1822" y="-685.6" font-family="Verdana" font-size="8.00" fill="#8b0000">+ type: string</text>
<text text-anchor="start" x="1822" y="-674.6" font-family="Verdana" font-size="8.00" fill="#8b0000">+ archive: string</text>
<text text-anchor="start" x="1822" y="-663.6" font-family="Verdana" font-size="8.00" fill="#8b0000">+ archiveNetworkCode: string</text>
<text text-anchor="start" x="1822" y="-652.6" font-family="Verdana" font-size="8.00" fill="#8b0000">+ restricted: boolean &#160;[0..1]</text>
<text text-anchor="start" x="1822" y="-641.6" font-family="Verdana" font-size="8.00" fill="#8b0000">+ shared: boolean &#160;[0..1]</text>
<text text-anchor="start" x="1822" y="-630.6" font-family="Verdana" font-size="8.00" fill="#8b0000">+ remark: Blob &#160;[0..1]</text>
<text text-anchor="start" x="1822" y="-619.6" font-family="Verdana" font-size="8.00" fill="#8b0000">+ comment: Comment [0..*]</text>
<text text-anchor="start" x="1822" y="-608.6" font-family="Verdana" font-size="8.00" fill="#8b0000">+ sensorLocation: SensorLocation [0..*]</text>
</g>
<!-- Network&#45;&gt;Station -->
<g id="edge20" class="edge">
<title>Network&#45;&gt;Station</title>
<path fill="none" stroke="#000000" d="M1865.85,-865.82C1867.95,-857.38 1870.09,-848.73 1872.24,-840.07"/>
<polygon fill="#000000" stroke="#000000" points="1875.65,-840.84 1874.66,-830.29 1868.86,-839.16 1875.65,-840.84"/>
</g>
<!-- Station&#45;&gt;Comment -->
<g id="edge18" class="edge">
<title>Station&#45;&gt;Comment</title>
<path fill="none" stroke="#000000" d="M1866.76,-599.82C1863.54,-587.79 1860.54,-575.69 1858,-564 1815.25,-367.45 1828.12,-313.03 1835,-112 1835.28,-103.7 1835.75,-94.87 1836.28,-86.33"/>
<polygon fill="#000000" stroke="#000000" points="1839.79,-86.32 1836.97,-76.11 1832.81,-85.86 1839.79,-86.32"/>
</g>
<!-- SensorLocation -->
<g id="node18" class="node">
<title>SensorLocation</title>
<path fill="#fcf2e3" stroke="transparent" stroke-width="0.5" d="M2000.5,-564C2000.5,-564 1879.5,-564 1879.5,-564 1873.5,-564 1867.5,-558 1867.5,-552 1867.5,-552 1867.5,-445 1867.5,-445 1867.5,-439 1873.5,-433 1879.5,-433 1879.5,-433 2000.5,-433 2000.5,-433 2006.5,-433 2012.5,-439 2012.5,-445 2012.5,-445 2012.5,-552 2012.5,-552 2012.5,-558 2006.5,-564 2000.5,-564"/>
<text text-anchor="start" x="1908.5" y="-551.1" font-family="Verdana" font-size="8.00">SensorLocation</text>
<text text-anchor="start" x="1878" y="-540.1" font-family="Verdana" font-size="8.00" fill="#8b0000">+ publicID: string</text>
<text text-anchor="start" x="1878" y="-529.1" font-family="Verdana" font-size="8.00" fill="#8b0000">+ code: string</text>
<text text-anchor="start" x="1878" y="-518.1" font-family="Verdana" font-size="8.00" fill="#8b0000">+ start: datetime</text>
<text text-anchor="start" x="1878" y="-507.1" font-family="Verdana" font-size="8.00" fill="#8b0000">+ end: datetime &#160;[0..1]</text>
<text text-anchor="start" x="1878" y="-496.1" font-family="Verdana" font-size="8.00" fill="#8b0000">+ latitude: float &#160;[0..1]</text>
<text text-anchor="start" x="1878" y="-485.1" font-family="Verdana" font-size="8.00" fill="#8b0000">+ longitude: float &#160;[0..1]</text>
<text text-anchor="start" x="1878" y="-474.1" font-family="Verdana" font-size="8.00" fill="#8b0000">+ elevation: float &#160;[0..1]</text>
<text text-anchor="start" x="1878" y="-463.1" font-family="Verdana" font-size="8.00" fill="#8b0000">+ comment: Comment [0..*]</text>
<text text-anchor="start" x="1878" y="-452.1" font-family="Verdana" font-size="8.00" fill="#8b0000">+ auxStream: AuxStream [0..*]</text>
<text text-anchor="start" x="1878" y="-441.1" font-family="Verdana" font-size="8.00" fill="#8b0000">+ stream: Stream [0..*]</text>
</g>
<!-- Station&#45;&gt;SensorLocation -->
<g id="edge21" class="edge">
<title>Station&#45;&gt;SensorLocation</title>
<path fill="none" stroke="#000000" d="M1922.69,-599.84C1924.19,-591.16 1925.67,-582.55 1927.11,-574.22"/>
<polygon fill="#000000" stroke="#000000" points="1930.59,-574.67 1928.84,-564.22 1923.69,-573.48 1930.59,-574.67"/>
</g>
<!-- SensorLocation&#45;&gt;Comment -->
<g id="edge17" class="edge">
<title>SensorLocation&#45;&gt;Comment</title>
<path fill="none" stroke="#000000" d="M1894.38,-432.83C1887.96,-421.32 1882.14,-409.12 1878,-397 1841.57,-290.39 1837.6,-156.43 1838.44,-86.49"/>
<polygon fill="#000000" stroke="#000000" points="1841.95,-86.29 1838.61,-76.23 1834.95,-86.18 1841.95,-86.29"/>
</g>
<!-- AuxStream -->
<g id="node19" class="node">
<title>AuxStream</title>
<path fill="#fcf2e3" stroke="transparent" stroke-width="0.5" d="M2016.5,-320C2016.5,-320 1899.5,-320 1899.5,-320 1893.5,-320 1887.5,-314 1887.5,-308 1887.5,-308 1887.5,-201 1887.5,-201 1887.5,-195 1893.5,-189 1899.5,-189 1899.5,-189 2016.5,-189 2016.5,-189 2022.5,-189 2028.5,-195 2028.5,-201 2028.5,-201 2028.5,-308 2028.5,-308 2028.5,-314 2022.5,-320 2016.5,-320"/>
<text text-anchor="start" x="1936" y="-307.1" font-family="Verdana" font-size="8.00">AuxStream</text>
<text text-anchor="start" x="1898" y="-296.1" font-family="Verdana" font-size="8.00" fill="#8b0000">+ code: string</text>
<text text-anchor="start" x="1898" y="-285.1" font-family="Verdana" font-size="8.00" fill="#8b0000">+ start: datetime</text>
<text text-anchor="start" x="1898" y="-274.1" font-family="Verdana" font-size="8.00" fill="#8b0000">+ end: datetime &#160;[0..1]</text>
<text text-anchor="start" x="1898" y="-263.1" font-family="Verdana" font-size="8.00" fill="#8b0000">+ device: string</text>
<text text-anchor="start" x="1898" y="-252.1" font-family="Verdana" font-size="8.00" fill="#8b0000">+ deviceSerialNumber: string</text>
<text text-anchor="start" x="1898" y="-241.1" font-family="Verdana" font-size="8.00" fill="#8b0000">+ source: string</text>
<text text-anchor="start" x="1898" y="-230.1" font-family="Verdana" font-size="8.00" fill="#8b0000">+ format: string</text>
<text text-anchor="start" x="1898" y="-219.1" font-family="Verdana" font-size="8.00" fill="#8b0000">+ flags: string</text>
<text text-anchor="start" x="1898" y="-208.1" font-family="Verdana" font-size="8.00" fill="#8b0000">+ restricted: boolean &#160;[0..1]</text>
<text text-anchor="start" x="1898" y="-197.1" font-family="Verdana" font-size="8.00" fill="#8b0000">+ shared: boolean &#160;[0..1]</text>
</g>
<!-- SensorLocation&#45;&gt;AuxStream -->
<g id="edge22" class="edge">
<title>SensorLocation&#45;&gt;AuxStream</title>
<path fill="none" stroke="#000000" d="M1944.8,-432.97C1947.15,-401.37 1949.99,-363.15 1952.44,-330.29"/>
<polygon fill="#000000" stroke="#000000" points="1955.93,-330.51 1953.18,-320.27 1948.95,-329.99 1955.93,-330.51"/>
</g>
<!-- Stream -->
<g id="node20" class="node">
<title>Stream</title>
<path fill="#fcf2e3" stroke="transparent" stroke-width="0.5" d="M2207.5,-397C2207.5,-397 2058.5,-397 2058.5,-397 2052.5,-397 2046.5,-391 2046.5,-385 2046.5,-385 2046.5,-124 2046.5,-124 2046.5,-118 2052.5,-112 2058.5,-112 2058.5,-112 2207.5,-112 2207.5,-112 2213.5,-112 2219.5,-118 2219.5,-124 2219.5,-124 2219.5,-385 2219.5,-385 2219.5,-391 2213.5,-397 2207.5,-397"/>
<text text-anchor="start" x="2118.5" y="-384.1" font-family="Verdana" font-size="8.00">Stream</text>
<text text-anchor="start" x="2057" y="-373.1" font-family="Verdana" font-size="8.00" fill="#8b0000">+ publicID: string</text>
<text text-anchor="start" x="2057" y="-362.1" font-family="Verdana" font-size="8.00" fill="#8b0000">+ code: string</text>
<text text-anchor="start" x="2057" y="-351.1" font-family="Verdana" font-size="8.00" fill="#8b0000">+ start: datetime</text>
<text text-anchor="start" x="2057" y="-340.1" font-family="Verdana" font-size="8.00" fill="#8b0000">+ end: datetime &#160;[0..1]</text>
<text text-anchor="start" x="2057" y="-329.1" font-family="Verdana" font-size="8.00" fill="#8b0000">+ datalogger: string</text>
<text text-anchor="start" x="2057" y="-318.1" font-family="Verdana" font-size="8.00" fill="#8b0000">+ dataloggerSerialNumber: string</text>
<text text-anchor="start" x="2057" y="-307.1" font-family="Verdana" font-size="8.00" fill="#8b0000">+ dataloggerChannel: int &#160;[0..1]</text>
<text text-anchor="start" x="2057" y="-296.1" font-family="Verdana" font-size="8.00" fill="#8b0000">+ sensor: string</text>
<text text-anchor="start" x="2057" y="-285.1" font-family="Verdana" font-size="8.00" fill="#8b0000">+ sensorSerialNumber: string</text>
<text text-anchor="start" x="2057" y="-274.1" font-family="Verdana" font-size="8.00" fill="#8b0000">+ sensorChannel: int &#160;[0..1]</text>
<text text-anchor="start" x="2057" y="-263.1" font-family="Verdana" font-size="8.00" fill="#8b0000">+ clockSerialNumber: string</text>
<text text-anchor="start" x="2057" y="-252.1" font-family="Verdana" font-size="8.00" fill="#8b0000">+ sampleRateNumerator: int &#160;[0..1]</text>
<text text-anchor="start" x="2057" y="-241.1" font-family="Verdana" font-size="8.00" fill="#8b0000">+ sampleRateDenominator: int &#160;[0..1]</text>
<text text-anchor="start" x="2057" y="-230.1" font-family="Verdana" font-size="8.00" fill="#8b0000">+ depth: float &#160;[0..1]</text>
<text text-anchor="start" x="2057" y="-219.1" font-family="Verdana" font-size="8.00" fill="#8b0000">+ azimuth: float &#160;[0..1]</text>
<text text-anchor="start" x="2057" y="-208.1" font-family="Verdana" font-size="8.00" fill="#8b0000">+ dip: float &#160;[0..1]</text>
<text text-anchor="start" x="2057" y="-197.1" font-family="Verdana" font-size="8.00" fill="#8b0000">+ gain: float &#160;[0..1]</text>
<text text-anchor="start" x="2057" y="-186.1" font-family="Verdana" font-size="8.00" fill="#8b0000">+ gainFrequency: float &#160;[0..1]</text>
<text text-anchor="start" x="2057" y="-175.1" font-family="Verdana" font-size="8.00" fill="#8b0000">+ gainUnit: string</text>
<text text-anchor="start" x="2057" y="-164.1" font-family="Verdana" font-size="8.00" fill="#8b0000">+ format: string</text>
<text text-anchor="start" x="2057" y="-153.1" font-family="Verdana" font-size="8.00" fill="#8b0000">+ flags: string</text>
<text text-anchor="start" x="2057" y="-142.1" font-family="Verdana" font-size="8.00" fill="#8b0000">+ restricted: boolean &#160;[0..1]</text>
<text text-anchor="start" x="2057" y="-131.1" font-family="Verdana" font-size="8.00" fill="#8b0000">+ shared: boolean &#160;[0..1]</text>
<text text-anchor="start" x="2057" y="-120.1" font-family="Verdana" font-size="8.00" fill="#8b0000">+ comment: Comment [0..*]</text>
</g>
<!-- SensorLocation&#45;&gt;Stream -->
<g id="edge23" class="edge">
<title>SensorLocation&#45;&gt;Stream</title>
<path fill="none" stroke="#000000" d="M2006.35,-432.86C2017.3,-421.25 2028.24,-409.01 2038,-397 2038.7,-396.14 2039.4,-395.27 2040.1,-394.4"/>
<polygon fill="#000000" stroke="#000000" points="2042.93,-396.46 2046.38,-386.44 2037.44,-392.12 2042.93,-396.46"/>
</g>
<!-- Stream&#45;&gt;Comment -->
<g id="edge16" class="edge">
<title>Stream&#45;&gt;Comment</title>
<path fill="none" stroke="#000000" d="M2046.21,-118.89C2043.53,-116.49 2040.79,-114.19 2038,-112 2006.67,-87.36 1966.22,-70.48 1930.05,-59.22"/>
<polygon fill="#000000" stroke="#000000" points="1931.05,-55.86 1920.47,-56.33 1929.03,-62.57 1931.05,-55.86"/>
</g>
<!-- Inventory -->
<g id="node21" class="node">
<title>Inventory</title>
<path fill="#fcf2e3" stroke="transparent" stroke-width="0.5" d="M1049.5,-1124C1049.5,-1124 1018.5,-1124 1018.5,-1124 1012.5,-1124 1006.5,-1118 1006.5,-1112 1006.5,-1112 1006.5,-1100 1006.5,-1100 1006.5,-1094 1012.5,-1088 1018.5,-1088 1018.5,-1088 1049.5,-1088 1049.5,-1088 1055.5,-1088 1061.5,-1094 1061.5,-1100 1061.5,-1100 1061.5,-1112 1061.5,-1112 1061.5,-1118 1055.5,-1124 1049.5,-1124"/>
<text text-anchor="middle" x="1034" y="-1104.1" font-family="Verdana" font-size="8.00">Inventory</text>
</g>
<!-- Inventory&#45;&gt;StationGroup -->
<g id="edge1" class="edge">
<title>Inventory&#45;&gt;StationGroup</title>
<path fill="none" stroke="#000000" d="M1006.15,-1104.26C870.49,-1100.5 282.43,-1082.55 207,-1052 194.05,-1046.76 181.53,-1039.32 169.9,-1030.91"/>
<polygon fill="#000000" stroke="#000000" points="171.68,-1027.87 161.59,-1024.64 167.46,-1033.46 171.68,-1027.87"/>
</g>
<!-- Inventory&#45;&gt;AuxDevice -->
<g id="edge3" class="edge">
<title>Inventory&#45;&gt;AuxDevice</title>
<path fill="none" stroke="#000000" d="M1006.18,-1104.01C887.45,-1099.63 426.67,-1080.88 369,-1052 352.3,-1043.64 337.53,-1030.2 325.34,-1016.15"/>
<polygon fill="#000000" stroke="#000000" points="327.91,-1013.77 318.83,-1008.31 322.52,-1018.24 327.91,-1013.77"/>
</g>
<!-- Inventory&#45;&gt;Sensor -->
<g id="edge5" class="edge">
<title>Inventory&#45;&gt;Sensor</title>
<path fill="none" stroke="#000000" d="M1006.39,-1103.77C921.41,-1099.65 664.9,-1084.76 589,-1052 581.85,-1048.91 574.8,-1045.21 567.94,-1041.08"/>
<polygon fill="#000000" stroke="#000000" points="569.68,-1038.03 559.36,-1035.64 565.93,-1043.95 569.68,-1038.03"/>
</g>
<!-- Inventory&#45;&gt;Datalogger -->
<g id="edge7" class="edge">
<title>Inventory&#45;&gt;Datalogger</title>
<path fill="none" stroke="#000000" d="M1006.34,-1100.52C970.04,-1093.98 904.67,-1079.89 843.54,-1051.96"/>
<polygon fill="#000000" stroke="#000000" points="844.71,-1048.64 834.17,-1047.55 841.72,-1054.97 844.71,-1048.64"/>
</g>
<!-- Inventory&#45;&gt;ResponsePAZ -->
<g id="edge10" class="edge">
<title>Inventory&#45;&gt;ResponsePAZ</title>
<path fill="none" stroke="#000000" d="M1022.97,-1087.8C1018.23,-1080.41 1012.29,-1071.14 1005.77,-1060.99"/>
<polygon fill="#000000" stroke="#000000" points="1008.53,-1058.8 1000.18,-1052.27 1002.63,-1062.58 1008.53,-1058.8"/>
</g>
<!-- Inventory&#45;&gt;ResponseFIR -->
<g id="edge11" class="edge">
<title>Inventory&#45;&gt;ResponseFIR</title>
<path fill="none" stroke="#000000" d="M1045.03,-1087.8C1053.09,-1075.24 1064.63,-1057.24 1076.53,-1038.69"/>
<polygon fill="#000000" stroke="#000000" points="1079.56,-1040.46 1082.01,-1030.15 1073.66,-1036.68 1079.56,-1040.46"/>
</g>
<!-- Inventory&#45;&gt;ResponseIIR -->
<g id="edge12" class="edge">
<title>Inventory&#45;&gt;ResponseIIR</title>
<path fill="none" stroke="#000000" d="M1061.73,-1101.19C1098.75,-1095.17 1165.41,-1081.04 1215,-1052 1217.72,-1050.41 1220.42,-1048.72 1223.09,-1046.95"/>
<polygon fill="#000000" stroke="#000000" points="1225.35,-1049.64 1231.54,-1041.04 1221.34,-1043.9 1225.35,-1049.64"/>
</g>
<!-- Inventory&#45;&gt;ResponsePolynomial -->
<g id="edge13" class="edge">
<title>Inventory&#45;&gt;ResponsePolynomial</title>
<path fill="none" stroke="#000000" d="M1061.54,-1103.08C1136.22,-1097.57 1341.08,-1080.21 1402,-1052 1408.62,-1048.94 1415.12,-1045.31 1421.45,-1041.3"/>
<polygon fill="#000000" stroke="#000000" points="1423.59,-1044.08 1429.96,-1035.61 1419.7,-1038.26 1423.59,-1044.08"/>
</g>
<!-- Inventory&#45;&gt;ResponseFAP -->
<g id="edge14" class="edge">
<title>Inventory&#45;&gt;ResponseFAP</title>
<path fill="none" stroke="#000000" d="M1061.83,-1105.16C1163.21,-1105.32 1511.91,-1102.13 1609,-1052 1625.42,-1043.53 1639.86,-1030.05 1651.75,-1016"/>
<polygon fill="#000000" stroke="#000000" points="1654.53,-1018.14 1658.1,-1008.16 1649.09,-1013.73 1654.53,-1018.14"/>
</g>
<!-- Inventory&#45;&gt;Network -->
<g id="edge15" class="edge">
<title>Inventory&#45;&gt;Network</title>
<path fill="none" stroke="#000000" d="M1061.63,-1104.27C1187.39,-1100.78 1702.34,-1084.58 1766,-1052 1766.31,-1051.84 1766.62,-1051.68 1766.94,-1051.51"/>
<polygon fill="#000000" stroke="#000000" points="1768.94,-1054.39 1775.74,-1046.27 1765.36,-1048.38 1768.94,-1054.39"/>
</g>
</g>
</svg>
