<?xml version="1.0" encoding="UTF-8" standalone="no"?>
<!DOCTYPE svg PUBLIC "-//W3C//DTD SVG 1.1//EN"
 "http://www.w3.org/Graphics/SVG/1.1/DTD/svg11.dtd">
<!-- Generated by graphviz version 2.43.0 (0)
 -->
<!-- Title: G Pages: 1 -->
<svg width="576pt" height="254pt"
 viewBox="0.00 0.00 576.00 253.52" xmlns="http://www.w3.org/2000/svg" xmlns:xlink="http://www.w3.org/1999/xlink">
<g id="graph0" class="graph" transform="scale(3.63 3.63) rotate(0) translate(4 917)">
<title>G</title>
<polygon fill="white" stroke="transparent" points="-4,4 -4,-917 2088.5,-917 2088.5,4 -4,4"/>
<!-- Pick -->
<g id="node1" class="node">
<title>Pick</title>
<path fill="#fcf2e3" stroke="transparent" stroke-width="0.5" d="M605,-802.5C605,-802.5 429,-802.5 429,-802.5 423,-802.5 417,-796.5 417,-790.5 417,-790.5 417,-628.5 417,-628.5 417,-622.5 423,-616.5 429,-616.5 429,-616.5 605,-616.5 605,-616.5 611,-616.5 617,-622.5 617,-628.5 617,-628.5 617,-790.5 617,-790.5 617,-796.5 611,-802.5 605,-802.5"/>
<text text-anchor="start" x="509" y="-790.1" font-family="Verdana" font-size="8.00">Pick</text>
<text text-anchor="start" x="427" y="-779.1" font-family="Verdana" font-size="8.00" fill="#8b0000">+ publicID: string</text>
<text text-anchor="start" x="427" y="-768.1" font-family="Verdana" font-size="8.00" fill="#8b0000">+ time: TimeQuantity</text>
<text text-anchor="start" x="427" y="-757.1" font-family="Verdana" font-size="8.00" fill="#8b0000">+ waveformID: WaveformStreamID</text>
<text text-anchor="start" x="427" y="-746.1" font-family="Verdana" font-size="8.00" fill="#8b0000">+ filterID: string</text>
<text text-anchor="start" x="427" y="-735.1" font-family="Verdana" font-size="8.00" fill="#8b0000">+ methodID: string</text>
<text text-anchor="start" x="427" y="-724.1" font-family="Verdana" font-size="8.00" fill="#8b0000">+ horizontalSlowness: RealQuantity &#160;[0..1]</text>
<text text-anchor="start" x="427" y="-713.1" font-family="Verdana" font-size="8.00" fill="#8b0000">+ backazimuth: RealQuantity &#160;[0..1]</text>
<text text-anchor="start" x="427" y="-702.1" font-family="Verdana" font-size="8.00" fill="#8b0000">+ slownessMethodID: string</text>
<text text-anchor="start" x="427" y="-691.1" font-family="Verdana" font-size="8.00" fill="#8b0000">+ onset: PickOnset &#160;[0..1]</text>
<text text-anchor="start" x="427" y="-680.1" font-family="Verdana" font-size="8.00" fill="#8b0000">+ phaseHint: Phase &#160;[0..1]</text>
<text text-anchor="start" x="427" y="-669.1" font-family="Verdana" font-size="8.00" fill="#8b0000">+ polarity: PickPolarity &#160;[0..1]</text>
<text text-anchor="start" x="427" y="-658.1" font-family="Verdana" font-size="8.00" fill="#8b0000">+ evaluationMode: EvaluationMode &#160;[0..1]</text>
<text text-anchor="start" x="427" y="-647.1" font-family="Verdana" font-size="8.00" fill="#8b0000">+ evaluationStatus: EvaluationStatus &#160;[0..1]</text>
<text text-anchor="start" x="427" y="-636.1" font-family="Verdana" font-size="8.00" fill="#8b0000">+ creationInfo: CreationInfo &#160;[0..1]</text>
<text text-anchor="start" x="427" y="-625.1" font-family="Verdana" font-size="8.00" fill="#8b0000">+ comment: Comment [0..*]</text>
</g>
<!-- Comment -->
<g id="node2" class="node">
<title>Comment</title>
<path fill="#fcf2e3" stroke="transparent" stroke-width="0.5" d="M1255,-226.5C1255,-226.5 1119,-226.5 1119,-226.5 1113,-226.5 1107,-220.5 1107,-214.5 1107,-214.5 1107,-162.5 1107,-162.5 1107,-156.5 1113,-150.5 1119,-150.5 1119,-150.5 1255,-150.5 1255,-150.5 1261,-150.5 1267,-156.5 1267,-162.5 1267,-162.5 1267,-214.5 1267,-214.5 1267,-220.5 1261,-226.5 1255,-226.5"/>
<text text-anchor="start" x="1167" y="-214.1" font-family="Verdana" font-size="8.00">Comment</text>
<text text-anchor="start" x="1117" y="-203.1" font-family="Verdana" font-size="8.00" fill="#8b0000">+ text: string</text>
<text text-anchor="start" x="1117" y="-192.1" font-family="Verdana" font-size="8.00" fill="#8b0000">+ id: string</text>
<text text-anchor="start" x="1117" y="-181.1" font-family="Verdana" font-size="8.00" fill="#8b0000">+ start: datetime &#160;[0..1]</text>
<text text-anchor="start" x="1117" y="-170.1" font-family="Verdana" font-size="8.00" fill="#8b0000">+ end: datetime &#160;[0..1]</text>
<text text-anchor="start" x="1117" y="-159.1" font-family="Verdana" font-size="8.00" fill="#8b0000">+ creationInfo: CreationInfo &#160;[0..1]</text>
</g>
<!-- Pick&#45;&gt;Comment -->
<g id="edge7" class="edge">
<title>Pick&#45;&gt;Comment</title>
<path fill="none" stroke="#000000" d="M416.67,-657.39C351.35,-621.79 275.04,-574.98 257,-542 227.78,-488.58 215.8,-312.83 257,-268 285.2,-237.32 868.6,-205.26 1096.71,-193.85"/>
<polygon fill="#000000" stroke="#000000" points="1097.16,-197.33 1106.97,-193.33 1096.81,-190.34 1097.16,-197.33"/>
</g>
<!-- Amplitude -->
<g id="node3" class="node">
<title>Amplitude</title>
<path fill="#fcf2e3" stroke="transparent" stroke-width="0.5" d="M1154,-808C1154,-808 986,-808 986,-808 980,-808 974,-802 974,-796 974,-796 974,-623 974,-623 974,-617 980,-611 986,-611 986,-611 1154,-611 1154,-611 1160,-611 1166,-617 1166,-623 1166,-623 1166,-796 1166,-796 1166,-802 1160,-808 1154,-808"/>
<text text-anchor="start" x="1049" y="-795.1" font-family="Verdana" font-size="8.00">Amplitude</text>
<text text-anchor="start" x="984" y="-784.1" font-family="Verdana" font-size="8.00" fill="#8b0000">+ publicID: string</text>
<text text-anchor="start" x="984" y="-773.1" font-family="Verdana" font-size="8.00" fill="#8b0000">+ type: string</text>
<text text-anchor="start" x="984" y="-762.1" font-family="Verdana" font-size="8.00" fill="#8b0000">+ amplitude: RealQuantity &#160;[0..1]</text>
<text text-anchor="start" x="984" y="-751.1" font-family="Verdana" font-size="8.00" fill="#8b0000">+ timeWindow: TimeWindow &#160;[0..1]</text>
<text text-anchor="start" x="984" y="-740.1" font-family="Verdana" font-size="8.00" fill="#8b0000">+ period: RealQuantity &#160;[0..1]</text>
<text text-anchor="start" x="984" y="-729.1" font-family="Verdana" font-size="8.00" fill="#8b0000">+ snr: float &#160;[0..1]</text>
<text text-anchor="start" x="984" y="-718.1" font-family="Verdana" font-size="8.00" fill="#8b0000">+ unit: string</text>
<text text-anchor="start" x="984" y="-707.1" font-family="Verdana" font-size="8.00" fill="#8b0000">+ pickID: string</text>
<text text-anchor="start" x="984" y="-696.1" font-family="Verdana" font-size="8.00" fill="#8b0000">+ waveformID: WaveformStreamID &#160;[0..1]</text>
<text text-anchor="start" x="984" y="-685.1" font-family="Verdana" font-size="8.00" fill="#8b0000">+ filterID: string</text>
<text text-anchor="start" x="984" y="-674.1" font-family="Verdana" font-size="8.00" fill="#8b0000">+ methodID: string</text>
<text text-anchor="start" x="984" y="-663.1" font-family="Verdana" font-size="8.00" fill="#8b0000">+ scalingTime: TimeQuantity &#160;[0..1]</text>
<text text-anchor="start" x="984" y="-652.1" font-family="Verdana" font-size="8.00" fill="#8b0000">+ magnitudeHint: string</text>
<text text-anchor="start" x="984" y="-641.1" font-family="Verdana" font-size="8.00" fill="#8b0000">+ evaluationMode: EvaluationMode &#160;[0..1]</text>
<text text-anchor="start" x="984" y="-630.1" font-family="Verdana" font-size="8.00" fill="#8b0000">+ creationInfo: CreationInfo &#160;[0..1]</text>
<text text-anchor="start" x="984" y="-619.1" font-family="Verdana" font-size="8.00" fill="#8b0000">+ comment: Comment [0..*]</text>
</g>
<!-- Amplitude&#45;&gt;Comment -->
<g id="edge4" class="edge">
<title>Amplitude&#45;&gt;Comment</title>
<path fill="none" stroke="#000000" d="M1149.1,-610.6C1175.81,-577.06 1199.38,-546.69 1201,-542 1237.07,-437.82 1215.49,-305.86 1199.5,-236.7"/>
<polygon fill="#000000" stroke="#000000" points="1202.81,-235.48 1197.09,-226.56 1196,-237.1 1202.81,-235.48"/>
</g>
<!-- Reading -->
<g id="node4" class="node">
<title>Reading</title>
<path fill="#fcf2e3" stroke="transparent" stroke-width="0.5" d="M267.5,-736.5C267.5,-736.5 68.5,-736.5 68.5,-736.5 62.5,-736.5 56.5,-730.5 56.5,-724.5 56.5,-724.5 56.5,-694.5 56.5,-694.5 56.5,-688.5 62.5,-682.5 68.5,-682.5 68.5,-682.5 267.5,-682.5 267.5,-682.5 273.5,-682.5 279.5,-688.5 279.5,-694.5 279.5,-694.5 279.5,-724.5 279.5,-724.5 279.5,-730.5 273.5,-736.5 267.5,-736.5"/>
<text text-anchor="start" x="151.5" y="-724.1" font-family="Verdana" font-size="8.00">Reading</text>
<text text-anchor="start" x="67" y="-713.1" font-family="Verdana" font-size="8.00" fill="#8b0000">+ publicID: string</text>
<text text-anchor="start" x="67" y="-702.1" font-family="Verdana" font-size="8.00" fill="#8b0000">+ pickReference: PickReference [0..*]</text>
<text text-anchor="start" x="67" y="-691.1" font-family="Verdana" font-size="8.00" fill="#8b0000">+ amplitudeReference: AmplitudeReference [0..*]</text>
</g>
<!-- PickReference -->
<g id="node5" class="node">
<title>PickReference</title>
<path fill="#fcf2e3" stroke="transparent" stroke-width="0.5" d="M197.5,-423C197.5,-423 138.5,-423 138.5,-423 132.5,-423 126.5,-417 126.5,-411 126.5,-411 126.5,-399 126.5,-399 126.5,-393 132.5,-387 138.5,-387 138.5,-387 197.5,-387 197.5,-387 203.5,-387 209.5,-393 209.5,-399 209.5,-399 209.5,-411 209.5,-411 209.5,-417 203.5,-423 197.5,-423"/>
<text text-anchor="start" x="139.5" y="-408.6" font-family="Verdana" font-size="8.00">PickReference</text>
<text text-anchor="start" x="137" y="-397.6" font-family="Verdana" font-size="8.00" fill="#8b0000">+ pickID: string</text>
</g>
<!-- Reading&#45;&gt;PickReference -->
<g id="edge12" class="edge">
<title>Reading&#45;&gt;PickReference</title>
<path fill="none" stroke="#000000" d="M168,-682.45C168,-625.63 168,-491.05 168,-433.2"/>
<polygon fill="#000000" stroke="#000000" points="171.5,-433.02 168,-423.02 164.5,-433.02 171.5,-433.02"/>
</g>
<!-- AmplitudeReference -->
<g id="node6" class="node">
<title>AmplitudeReference</title>
<path fill="#fcf2e3" stroke="transparent" stroke-width="0.5" d="M96,-423C96,-423 12,-423 12,-423 6,-423 0,-417 0,-411 0,-411 0,-399 0,-399 0,-393 6,-387 12,-387 12,-387 96,-387 96,-387 102,-387 108,-393 108,-399 108,-399 108,-411 108,-411 108,-417 102,-423 96,-423"/>
<text text-anchor="start" x="12" y="-408.6" font-family="Verdana" font-size="8.00">AmplitudeReference</text>
<text text-anchor="start" x="10" y="-397.6" font-family="Verdana" font-size="8.00" fill="#8b0000">+ amplitudeID: string</text>
</g>
<!-- Reading&#45;&gt;AmplitudeReference -->
<g id="edge13" class="edge">
<title>Reading&#45;&gt;AmplitudeReference</title>
<path fill="none" stroke="#000000" d="M158.18,-682.45C136.68,-625.4 85.63,-489.93 63.98,-432.49"/>
<polygon fill="#000000" stroke="#000000" points="67.21,-431.14 60.41,-423.02 60.66,-433.61 67.21,-431.14"/>
</g>
<!-- Origin -->
<g id="node7" class="node">
<title>Origin</title>
<path fill="#fcf2e3" stroke="transparent" stroke-width="0.5" d="M943.5,-841C943.5,-841 766.5,-841 766.5,-841 760.5,-841 754.5,-835 754.5,-829 754.5,-829 754.5,-590 754.5,-590 754.5,-584 760.5,-578 766.5,-578 766.5,-578 943.5,-578 943.5,-578 949.5,-578 955.5,-584 955.5,-590 955.5,-590 955.5,-829 955.5,-829 955.5,-835 949.5,-841 943.5,-841"/>
<text text-anchor="start" x="843" y="-828.1" font-family="Verdana" font-size="8.00">Origin</text>
<text text-anchor="start" x="765" y="-817.1" font-family="Verdana" font-size="8.00" fill="#8b0000">+ publicID: string</text>
<text text-anchor="start" x="765" y="-806.1" font-family="Verdana" font-size="8.00" fill="#8b0000">+ time: TimeQuantity</text>
<text text-anchor="start" x="765" y="-795.1" font-family="Verdana" font-size="8.00" fill="#8b0000">+ latitude: RealQuantity</text>
<text text-anchor="start" x="765" y="-784.1" font-family="Verdana" font-size="8.00" fill="#8b0000">+ longitude: RealQuantity</text>
<text text-anchor="start" x="765" y="-773.1" font-family="Verdana" font-size="8.00" fill="#8b0000">+ depth: RealQuantity &#160;[0..1]</text>
<text text-anchor="start" x="765" y="-762.1" font-family="Verdana" font-size="8.00" fill="#8b0000">+ depthType: OriginDepthType &#160;[0..1]</text>
<text text-anchor="start" x="765" y="-751.1" font-family="Verdana" font-size="8.00" fill="#8b0000">+ timeFixed: boolean &#160;[0..1]</text>
<text text-anchor="start" x="765" y="-740.1" font-family="Verdana" font-size="8.00" fill="#8b0000">+ epicenterFixed: boolean &#160;[0..1]</text>
<text text-anchor="start" x="765" y="-729.1" font-family="Verdana" font-size="8.00" fill="#8b0000">+ referenceSystemID: string</text>
<text text-anchor="start" x="765" y="-718.1" font-family="Verdana" font-size="8.00" fill="#8b0000">+ methodID: string</text>
<text text-anchor="start" x="765" y="-707.1" font-family="Verdana" font-size="8.00" fill="#8b0000">+ earthModelID: string</text>
<text text-anchor="start" x="765" y="-696.1" font-family="Verdana" font-size="8.00" fill="#8b0000">+ quality: OriginQuality &#160;[0..1]</text>
<text text-anchor="start" x="765" y="-685.1" font-family="Verdana" font-size="8.00" fill="#8b0000">+ uncertainty: OriginUncertainty &#160;[0..1]</text>
<text text-anchor="start" x="765" y="-674.1" font-family="Verdana" font-size="8.00" fill="#8b0000">+ type: OriginType &#160;[0..1]</text>
<text text-anchor="start" x="765" y="-663.1" font-family="Verdana" font-size="8.00" fill="#8b0000">+ evaluationMode: EvaluationMode &#160;[0..1]</text>
<text text-anchor="start" x="765" y="-652.1" font-family="Verdana" font-size="8.00" fill="#8b0000">+ evaluationStatus: EvaluationStatus &#160;[0..1]</text>
<text text-anchor="start" x="765" y="-641.1" font-family="Verdana" font-size="8.00" fill="#8b0000">+ creationInfo: CreationInfo &#160;[0..1]</text>
<text text-anchor="start" x="765" y="-630.1" font-family="Verdana" font-size="8.00" fill="#8b0000">+ comment: Comment [0..*]</text>
<text text-anchor="start" x="765" y="-619.1" font-family="Verdana" font-size="8.00" fill="#8b0000">+ compositeTime: CompositeTime [0..*]</text>
<text text-anchor="start" x="765" y="-608.1" font-family="Verdana" font-size="8.00" fill="#8b0000">+ arrival: Arrival [0..*]</text>
<text text-anchor="start" x="765" y="-597.1" font-family="Verdana" font-size="8.00" fill="#8b0000">+ stationMagnitude: StationMagnitude [0..*]</text>
<text text-anchor="start" x="765" y="-586.1" font-family="Verdana" font-size="8.00" fill="#8b0000">+ magnitude: Magnitude [0..*]</text>
</g>
<!-- Origin&#45;&gt;Comment -->
<g id="edge9" class="edge">
<title>Origin&#45;&gt;Comment</title>
<path fill="none" stroke="#000000" d="M955.53,-583.92C958.63,-581.83 961.79,-579.85 965,-578 1044.38,-532.23 1107.27,-610.61 1168,-542 1206.94,-498.01 1198.21,-322.23 1191.37,-236.71"/>
<polygon fill="#000000" stroke="#000000" points="1194.86,-236.42 1190.55,-226.74 1187.89,-237 1194.86,-236.42"/>
</g>
<!-- CompositeTime -->
<g id="node8" class="node">
<title>CompositeTime</title>
<path fill="#fcf2e3" stroke="transparent" stroke-width="0.5" d="M727.5,-448.5C727.5,-448.5 598.5,-448.5 598.5,-448.5 592.5,-448.5 586.5,-442.5 586.5,-436.5 586.5,-436.5 586.5,-373.5 586.5,-373.5 586.5,-367.5 592.5,-361.5 598.5,-361.5 598.5,-361.5 727.5,-361.5 727.5,-361.5 733.5,-361.5 739.5,-367.5 739.5,-373.5 739.5,-373.5 739.5,-436.5 739.5,-436.5 739.5,-442.5 733.5,-448.5 727.5,-448.5"/>
<text text-anchor="start" x="631.5" y="-435.6" font-family="Verdana" font-size="8.00">CompositeTime</text>
<text text-anchor="start" x="597" y="-424.6" font-family="Verdana" font-size="8.00" fill="#8b0000">+ year: IntegerQuantity &#160;[0..1]</text>
<text text-anchor="start" x="597" y="-413.6" font-family="Verdana" font-size="8.00" fill="#8b0000">+ month: IntegerQuantity &#160;[0..1]</text>
<text text-anchor="start" x="597" y="-402.6" font-family="Verdana" font-size="8.00" fill="#8b0000">+ day: IntegerQuantity &#160;[0..1]</text>
<text text-anchor="start" x="597" y="-391.6" font-family="Verdana" font-size="8.00" fill="#8b0000">+ hour: IntegerQuantity &#160;[0..1]</text>
<text text-anchor="start" x="597" y="-380.6" font-family="Verdana" font-size="8.00" fill="#8b0000">+ minute: IntegerQuantity &#160;[0..1]</text>
<text text-anchor="start" x="597" y="-369.6" font-family="Verdana" font-size="8.00" fill="#8b0000">+ second: RealQuantity &#160;[0..1]</text>
</g>
<!-- Origin&#45;&gt;CompositeTime -->
<g id="edge15" class="edge">
<title>Origin&#45;&gt;CompositeTime</title>
<path fill="none" stroke="#000000" d="M770.73,-577.72C763.03,-565.66 755.36,-553.61 748,-542 730.33,-514.13 710.81,-482.91 694.93,-457.42"/>
<polygon fill="#000000" stroke="#000000" points="697.73,-455.3 689.47,-448.66 691.79,-459 697.73,-455.3"/>
</g>
<!-- Arrival -->
<g id="node9" class="node">
<title>Arrival</title>
<path fill="#fcf2e3" stroke="transparent" stroke-width="0.5" d="M940.5,-503.5C940.5,-503.5 769.5,-503.5 769.5,-503.5 763.5,-503.5 757.5,-497.5 757.5,-491.5 757.5,-491.5 757.5,-318.5 757.5,-318.5 757.5,-312.5 763.5,-306.5 769.5,-306.5 769.5,-306.5 940.5,-306.5 940.5,-306.5 946.5,-306.5 952.5,-312.5 952.5,-318.5 952.5,-318.5 952.5,-491.5 952.5,-491.5 952.5,-497.5 946.5,-503.5 940.5,-503.5"/>
<text text-anchor="start" x="842.5" y="-490.6" font-family="Verdana" font-size="8.00">Arrival</text>
<text text-anchor="start" x="768" y="-479.6" font-family="Verdana" font-size="8.00" fill="#8b0000">+ pickID: string</text>
<text text-anchor="start" x="768" y="-468.6" font-family="Verdana" font-size="8.00" fill="#8b0000">+ phase: Phase</text>
<text text-anchor="start" x="768" y="-457.6" font-family="Verdana" font-size="8.00" fill="#8b0000">+ timeCorrection: float &#160;[0..1]</text>
<text text-anchor="start" x="768" y="-446.6" font-family="Verdana" font-size="8.00" fill="#8b0000">+ azimuth: float &#160;[0..1]</text>
<text text-anchor="start" x="768" y="-435.6" font-family="Verdana" font-size="8.00" fill="#8b0000">+ distance: float &#160;[0..1]</text>
<text text-anchor="start" x="768" y="-424.6" font-family="Verdana" font-size="8.00" fill="#8b0000">+ takeOffAngle: float &#160;[0..1]</text>
<text text-anchor="start" x="768" y="-413.6" font-family="Verdana" font-size="8.00" fill="#8b0000">+ timeResidual: float &#160;[0..1]</text>
<text text-anchor="start" x="768" y="-402.6" font-family="Verdana" font-size="8.00" fill="#8b0000">+ horizontalSlownessResidual: float &#160;[0..1]</text>
<text text-anchor="start" x="768" y="-391.6" font-family="Verdana" font-size="8.00" fill="#8b0000">+ backazimuthResidual: float &#160;[0..1]</text>
<text text-anchor="start" x="768" y="-380.6" font-family="Verdana" font-size="8.00" fill="#8b0000">+ timeUsed: boolean &#160;[0..1]</text>
<text text-anchor="start" x="768" y="-369.6" font-family="Verdana" font-size="8.00" fill="#8b0000">+ horizontalSlownessUsed: boolean &#160;[0..1]</text>
<text text-anchor="start" x="768" y="-358.6" font-family="Verdana" font-size="8.00" fill="#8b0000">+ backazimuthUsed: boolean &#160;[0..1]</text>
<text text-anchor="start" x="768" y="-347.6" font-family="Verdana" font-size="8.00" fill="#8b0000">+ weight: float &#160;[0..1]</text>
<text text-anchor="start" x="768" y="-336.6" font-family="Verdana" font-size="8.00" fill="#8b0000">+ earthModelID: string</text>
<text text-anchor="start" x="768" y="-325.6" font-family="Verdana" font-size="8.00" fill="#8b0000">+ preliminary: boolean &#160;[0..1]</text>
<text text-anchor="start" x="768" y="-314.6" font-family="Verdana" font-size="8.00" fill="#8b0000">+ creationInfo: CreationInfo &#160;[0..1]</text>
</g>
<!-- Origin&#45;&gt;Arrival -->
<g id="edge16" class="edge">
<title>Origin&#45;&gt;Arrival</title>
<path fill="none" stroke="#000000" d="M855,-577.58C855,-556.31 855,-534.49 855,-513.86"/>
<polygon fill="#000000" stroke="#000000" points="858.5,-513.83 855,-503.83 851.5,-513.83 858.5,-513.83"/>
</g>
<!-- StationMagnitude -->
<g id="node10" class="node">
<title>StationMagnitude</title>
<path fill="#fcf2e3" stroke="transparent" stroke-width="0.5" d="M1147,-470.5C1147,-470.5 983,-470.5 983,-470.5 977,-470.5 971,-464.5 971,-458.5 971,-458.5 971,-351.5 971,-351.5 971,-345.5 977,-339.5 983,-339.5 983,-339.5 1147,-339.5 1147,-339.5 1153,-339.5 1159,-345.5 1159,-351.5 1159,-351.5 1159,-458.5 1159,-458.5 1159,-464.5 1153,-470.5 1147,-470.5"/>
<text text-anchor="start" x="1028.5" y="-457.6" font-family="Verdana" font-size="8.00">StationMagnitude</text>
<text text-anchor="start" x="981" y="-446.6" font-family="Verdana" font-size="8.00" fill="#8b0000">+ publicID: string</text>
<text text-anchor="start" x="981" y="-435.6" font-family="Verdana" font-size="8.00" fill="#8b0000">+ originID: string</text>
<text text-anchor="start" x="981" y="-424.6" font-family="Verdana" font-size="8.00" fill="#8b0000">+ magnitude: RealQuantity</text>
<text text-anchor="start" x="981" y="-413.6" font-family="Verdana" font-size="8.00" fill="#8b0000">+ type: string</text>
<text text-anchor="start" x="981" y="-402.6" font-family="Verdana" font-size="8.00" fill="#8b0000">+ amplitudeID: string</text>
<text text-anchor="start" x="981" y="-391.6" font-family="Verdana" font-size="8.00" fill="#8b0000">+ methodID: string</text>
<text text-anchor="start" x="981" y="-380.6" font-family="Verdana" font-size="8.00" fill="#8b0000">+ waveformID: WaveformStreamID &#160;[0..1]</text>
<text text-anchor="start" x="981" y="-369.6" font-family="Verdana" font-size="8.00" fill="#8b0000">+ passedQC: boolean &#160;[0..1]</text>
<text text-anchor="start" x="981" y="-358.6" font-family="Verdana" font-size="8.00" fill="#8b0000">+ creationInfo: CreationInfo &#160;[0..1]</text>
<text text-anchor="start" x="981" y="-347.6" font-family="Verdana" font-size="8.00" fill="#8b0000">+ comment: Comment [0..*]</text>
</g>
<!-- Origin&#45;&gt;StationMagnitude -->
<g id="edge17" class="edge">
<title>Origin&#45;&gt;StationMagnitude</title>
<path fill="none" stroke="#000000" d="M945.89,-577.58C969.39,-543.72 993.86,-508.47 1014.46,-478.8"/>
<polygon fill="#000000" stroke="#000000" points="1017.34,-480.79 1020.17,-470.58 1011.59,-476.8 1017.34,-480.79"/>
</g>
<!-- Magnitude -->
<g id="node11" class="node">
<title>Magnitude</title>
<path fill="#fcf2e3" stroke="transparent" stroke-width="0.5" d="M556,-476C556,-476 278,-476 278,-476 272,-476 266,-470 266,-464 266,-464 266,-346 266,-346 266,-340 272,-334 278,-334 278,-334 556,-334 556,-334 562,-334 568,-340 568,-346 568,-346 568,-464 568,-464 568,-470 562,-476 556,-476"/>
<text text-anchor="start" x="395" y="-463.6" font-family="Verdana" font-size="8.00">Magnitude</text>
<text text-anchor="start" x="276" y="-452.6" font-family="Verdana" font-size="8.00" fill="#8b0000">+ publicID: string</text>
<text text-anchor="start" x="276" y="-441.6" font-family="Verdana" font-size="8.00" fill="#8b0000">+ magnitude: RealQuantity</text>
<text text-anchor="start" x="276" y="-430.6" font-family="Verdana" font-size="8.00" fill="#8b0000">+ type: string</text>
<text text-anchor="start" x="276" y="-419.6" font-family="Verdana" font-size="8.00" fill="#8b0000">+ originID: string</text>
<text text-anchor="start" x="276" y="-408.6" font-family="Verdana" font-size="8.00" fill="#8b0000">+ methodID: string</text>
<text text-anchor="start" x="276" y="-397.6" font-family="Verdana" font-size="8.00" fill="#8b0000">+ stationCount: int &#160;[0..1]</text>
<text text-anchor="start" x="276" y="-386.6" font-family="Verdana" font-size="8.00" fill="#8b0000">+ azimuthalGap: float &#160;[0..1]</text>
<text text-anchor="start" x="276" y="-375.6" font-family="Verdana" font-size="8.00" fill="#8b0000">+ evaluationStatus: EvaluationStatus &#160;[0..1]</text>
<text text-anchor="start" x="276" y="-364.6" font-family="Verdana" font-size="8.00" fill="#8b0000">+ creationInfo: CreationInfo &#160;[0..1]</text>
<text text-anchor="start" x="276" y="-353.6" font-family="Verdana" font-size="8.00" fill="#8b0000">+ comment: Comment [0..*]</text>
<text text-anchor="start" x="276" y="-342.6" font-family="Verdana" font-size="8.00" fill="#8b0000">+ stationMagnitudeContribution: StationMagnitudeContribution [0..*]</text>
</g>
<!-- Origin&#45;&gt;Magnitude -->
<g id="edge18" class="edge">
<title>Origin&#45;&gt;Magnitude</title>
<path fill="none" stroke="#000000" d="M754.38,-653.59C700.42,-622.82 633.58,-582.57 577,-542 551.85,-523.96 525.78,-502.93 502.17,-482.88"/>
<polygon fill="#000000" stroke="#000000" points="504.14,-479.95 494.26,-476.12 499.59,-485.27 504.14,-479.95"/>
</g>
<!-- StationMagnitude&#45;&gt;Comment -->
<g id="edge6" class="edge">
<title>StationMagnitude&#45;&gt;Comment</title>
<path fill="none" stroke="#000000" d="M1101.77,-339.35C1120.78,-305.93 1143.54,-265.91 1160.76,-235.64"/>
<polygon fill="#000000" stroke="#000000" points="1164.01,-237 1165.91,-226.58 1157.93,-233.54 1164.01,-237"/>
</g>
<!-- Magnitude&#45;&gt;Comment -->
<g id="edge5" class="edge">
<title>Magnitude&#45;&gt;Comment</title>
<path fill="none" stroke="#000000" d="M482.17,-333.67C509.1,-308.89 542.16,-283.4 577,-268 668.02,-227.76 949.9,-204.5 1096.44,-194.83"/>
<polygon fill="#000000" stroke="#000000" points="1097,-198.3 1106.75,-194.16 1096.54,-191.32 1097,-198.3"/>
</g>
<!-- StationMagnitudeContribution -->
<g id="node12" class="node">
<title>StationMagnitudeContribution</title>
<path fill="#fcf2e3" stroke="transparent" stroke-width="0.5" d="M477,-215.5C477,-215.5 357,-215.5 357,-215.5 351,-215.5 345,-209.5 345,-203.5 345,-203.5 345,-173.5 345,-173.5 345,-167.5 351,-161.5 357,-161.5 357,-161.5 477,-161.5 477,-161.5 483,-161.5 489,-167.5 489,-173.5 489,-173.5 489,-203.5 489,-203.5 489,-209.5 483,-215.5 477,-215.5"/>
<text text-anchor="start" x="355" y="-203.1" font-family="Verdana" font-size="8.00">StationMagnitudeContribution</text>
<text text-anchor="start" x="355" y="-192.1" font-family="Verdana" font-size="8.00" fill="#8b0000">+ stationMagnitudeID: string</text>
<text text-anchor="start" x="355" y="-181.1" font-family="Verdana" font-size="8.00" fill="#8b0000">+ residual: float &#160;[0..1]</text>
<text text-anchor="start" x="355" y="-170.1" font-family="Verdana" font-size="8.00" fill="#8b0000">+ weight: float &#160;[0..1]</text>
</g>
<!-- Magnitude&#45;&gt;StationMagnitudeContribution -->
<g id="edge19" class="edge">
<title>Magnitude&#45;&gt;StationMagnitudeContribution</title>
<path fill="none" stroke="#000000" d="M417,-333.76C417,-297.75 417,-255.38 417,-225.91"/>
<polygon fill="#000000" stroke="#000000" points="420.5,-225.68 417,-215.68 413.5,-225.68 420.5,-225.68"/>
</g>
<!-- FocalMechanism -->
<g id="node13" class="node">
<title>FocalMechanism</title>
<path fill="#fcf2e3" stroke="transparent" stroke-width="0.5" d="M1372,-797C1372,-797 1196,-797 1196,-797 1190,-797 1184,-791 1184,-785 1184,-785 1184,-634 1184,-634 1184,-628 1190,-622 1196,-622 1196,-622 1372,-622 1372,-622 1378,-622 1384,-628 1384,-634 1384,-634 1384,-785 1384,-785 1384,-791 1378,-797 1372,-797"/>
<text text-anchor="start" x="1249.5" y="-784.1" font-family="Verdana" font-size="8.00">FocalMechanism</text>
<text text-anchor="start" x="1194" y="-773.1" font-family="Verdana" font-size="8.00" fill="#8b0000">+ publicID: string</text>
<text text-anchor="start" x="1194" y="-762.1" font-family="Verdana" font-size="8.00" fill="#8b0000">+ triggeringOriginID: string</text>
<text text-anchor="start" x="1194" y="-751.1" font-family="Verdana" font-size="8.00" fill="#8b0000">+ nodalPlanes: NodalPlanes &#160;[0..1]</text>
<text text-anchor="start" x="1194" y="-740.1" font-family="Verdana" font-size="8.00" fill="#8b0000">+ principalAxes: PrincipalAxes &#160;[0..1]</text>
<text text-anchor="start" x="1194" y="-729.1" font-family="Verdana" font-size="8.00" fill="#8b0000">+ azimuthalGap: float &#160;[0..1]</text>
<text text-anchor="start" x="1194" y="-718.1" font-family="Verdana" font-size="8.00" fill="#8b0000">+ stationPolarityCount: int &#160;[0..1]</text>
<text text-anchor="start" x="1194" y="-707.1" font-family="Verdana" font-size="8.00" fill="#8b0000">+ misfit: float &#160;[0..1]</text>
<text text-anchor="start" x="1194" y="-696.1" font-family="Verdana" font-size="8.00" fill="#8b0000">+ stationDistributionRatio: float &#160;[0..1]</text>
<text text-anchor="start" x="1194" y="-685.1" font-family="Verdana" font-size="8.00" fill="#8b0000">+ methodID: string</text>
<text text-anchor="start" x="1194" y="-674.1" font-family="Verdana" font-size="8.00" fill="#8b0000">+ evaluationMode: EvaluationMode &#160;[0..1]</text>
<text text-anchor="start" x="1194" y="-663.1" font-family="Verdana" font-size="8.00" fill="#8b0000">+ evaluationStatus: EvaluationStatus &#160;[0..1]</text>
<text text-anchor="start" x="1194" y="-652.1" font-family="Verdana" font-size="8.00" fill="#8b0000">+ creationInfo: CreationInfo &#160;[0..1]</text>
<text text-anchor="start" x="1194" y="-641.1" font-family="Verdana" font-size="8.00" fill="#8b0000">+ comment: Comment [0..*]</text>
<text text-anchor="start" x="1194" y="-630.1" font-family="Verdana" font-size="8.00" fill="#8b0000">+ momentTensor: MomentTensor [0..*]</text>
</g>
<!-- FocalMechanism&#45;&gt;Comment -->
<g id="edge3" class="edge">
<title>FocalMechanism&#45;&gt;Comment</title>
<path fill="none" stroke="#000000" d="M1287.21,-621.79C1287.84,-530.96 1281,-385.44 1239,-268 1234.96,-256.7 1228.96,-245.42 1222.45,-235.08"/>
<polygon fill="#000000" stroke="#000000" points="1225.32,-233.07 1216.9,-226.64 1219.47,-236.92 1225.32,-233.07"/>
</g>
<!-- MomentTensor -->
<g id="node14" class="node">
<title>MomentTensor</title>
<path fill="#fcf2e3" stroke="transparent" stroke-width="0.5" d="M1653,-542C1653,-542 1341,-542 1341,-542 1335,-542 1329,-536 1329,-530 1329,-530 1329,-280 1329,-280 1329,-274 1335,-268 1341,-268 1341,-268 1653,-268 1653,-268 1659,-268 1665,-274 1665,-280 1665,-280 1665,-530 1665,-530 1665,-536 1659,-542 1653,-542"/>
<text text-anchor="start" x="1466.5" y="-529.6" font-family="Verdana" font-size="8.00">MomentTensor</text>
<text text-anchor="start" x="1339" y="-518.6" font-family="Verdana" font-size="8.00" fill="#8b0000">+ publicID: string</text>
<text text-anchor="start" x="1339" y="-507.6" font-family="Verdana" font-size="8.00" fill="#8b0000">+ derivedOriginID: string</text>
<text text-anchor="start" x="1339" y="-496.6" font-family="Verdana" font-size="8.00" fill="#8b0000">+ momentMagnitudeID: string</text>
<text text-anchor="start" x="1339" y="-485.6" font-family="Verdana" font-size="8.00" fill="#8b0000">+ scalarMoment: RealQuantity &#160;[0..1]</text>
<text text-anchor="start" x="1339" y="-474.6" font-family="Verdana" font-size="8.00" fill="#8b0000">+ tensor: Tensor &#160;[0..1]</text>
<text text-anchor="start" x="1339" y="-463.6" font-family="Verdana" font-size="8.00" fill="#8b0000">+ variance: float &#160;[0..1]</text>
<text text-anchor="start" x="1339" y="-452.6" font-family="Verdana" font-size="8.00" fill="#8b0000">+ varianceReduction: float &#160;[0..1]</text>
<text text-anchor="start" x="1339" y="-441.6" font-family="Verdana" font-size="8.00" fill="#8b0000">+ doubleCouple: float &#160;[0..1]</text>
<text text-anchor="start" x="1339" y="-430.6" font-family="Verdana" font-size="8.00" fill="#8b0000">+ clvd: float &#160;[0..1]</text>
<text text-anchor="start" x="1339" y="-419.6" font-family="Verdana" font-size="8.00" fill="#8b0000">+ iso: float &#160;[0..1]</text>
<text text-anchor="start" x="1339" y="-408.6" font-family="Verdana" font-size="8.00" fill="#8b0000">+ greensFunctionID: string</text>
<text text-anchor="start" x="1339" y="-397.6" font-family="Verdana" font-size="8.00" fill="#8b0000">+ filterID: string</text>
<text text-anchor="start" x="1339" y="-386.6" font-family="Verdana" font-size="8.00" fill="#8b0000">+ sourceTimeFunction: SourceTimeFunction &#160;[0..1]</text>
<text text-anchor="start" x="1339" y="-375.6" font-family="Verdana" font-size="8.00" fill="#8b0000">+ methodID: string</text>
<text text-anchor="start" x="1339" y="-364.6" font-family="Verdana" font-size="8.00" fill="#8b0000">+ method: MomentTensorMethod &#160;[0..1]</text>
<text text-anchor="start" x="1339" y="-353.6" font-family="Verdana" font-size="8.00" fill="#8b0000">+ status: MomentTensorStatus &#160;[0..1]</text>
<text text-anchor="start" x="1339" y="-342.6" font-family="Verdana" font-size="8.00" fill="#8b0000">+ cmtName: string</text>
<text text-anchor="start" x="1339" y="-331.6" font-family="Verdana" font-size="8.00" fill="#8b0000">+ cmtVersion: string</text>
<text text-anchor="start" x="1339" y="-320.6" font-family="Verdana" font-size="8.00" fill="#8b0000">+ creationInfo: CreationInfo &#160;[0..1]</text>
<text text-anchor="start" x="1339" y="-309.6" font-family="Verdana" font-size="8.00" fill="#8b0000">+ comment: Comment [0..*]</text>
<text text-anchor="start" x="1339" y="-298.6" font-family="Verdana" font-size="8.00" fill="#8b0000">+ dataUsed: DataUsed [0..*]</text>
<text text-anchor="start" x="1339" y="-287.6" font-family="Verdana" font-size="8.00" fill="#8b0000">+ momentTensorPhaseSetting: MomentTensorPhaseSetting [0..*]</text>
<text text-anchor="start" x="1339" y="-276.6" font-family="Verdana" font-size="8.00" fill="#8b0000">+ momentTensorStationContribution: MomentTensorStationContribution [0..*]</text>
</g>
<!-- FocalMechanism&#45;&gt;MomentTensor -->
<g id="edge21" class="edge">
<title>FocalMechanism&#45;&gt;MomentTensor</title>
<path fill="none" stroke="#000000" d="M1345.04,-621.82C1360.78,-599.46 1378.15,-574.8 1395.35,-550.37"/>
<polygon fill="#000000" stroke="#000000" points="1398.27,-552.29 1401.17,-542.1 1392.55,-548.26 1398.27,-552.29"/>
</g>
<!-- MomentTensor&#45;&gt;Comment -->
<g id="edge2" class="edge">
<title>MomentTensor&#45;&gt;Comment</title>
<path fill="none" stroke="#000000" d="M1328.83,-277.49C1324.19,-274.27 1319.57,-271.1 1315,-268 1297.03,-255.81 1277.2,-243.24 1258.62,-231.83"/>
<polygon fill="#000000" stroke="#000000" points="1260.26,-228.73 1249.9,-226.5 1256.61,-234.7 1260.26,-228.73"/>
</g>
<!-- DataUsed -->
<g id="node15" class="node">
<title>DataUsed</title>
<path fill="#fcf2e3" stroke="transparent" stroke-width="0.5" d="M1430.5,-221C1430.5,-221 1297.5,-221 1297.5,-221 1291.5,-221 1285.5,-215 1285.5,-209 1285.5,-209 1285.5,-168 1285.5,-168 1285.5,-162 1291.5,-156 1297.5,-156 1297.5,-156 1430.5,-156 1430.5,-156 1436.5,-156 1442.5,-162 1442.5,-168 1442.5,-168 1442.5,-209 1442.5,-209 1442.5,-215 1436.5,-221 1430.5,-221"/>
<text text-anchor="start" x="1344" y="-208.1" font-family="Verdana" font-size="8.00">DataUsed</text>
<text text-anchor="start" x="1296" y="-197.1" font-family="Verdana" font-size="8.00" fill="#8b0000">+ waveType: DataUsedWaveType</text>
<text text-anchor="start" x="1296" y="-186.1" font-family="Verdana" font-size="8.00" fill="#8b0000">+ stationCount: int</text>
<text text-anchor="start" x="1296" y="-175.1" font-family="Verdana" font-size="8.00" fill="#8b0000">+ componentCount: int</text>
<text text-anchor="start" x="1296" y="-164.1" font-family="Verdana" font-size="8.00" fill="#8b0000">+ shortestPeriod: float &#160;[0..1]</text>
</g>
<!-- MomentTensor&#45;&gt;DataUsed -->
<g id="edge22" class="edge">
<title>MomentTensor&#45;&gt;DataUsed</title>
<path fill="none" stroke="#000000" d="M1412.58,-267.85C1404.15,-254.25 1396.13,-241.31 1389.12,-230.02"/>
<polygon fill="#000000" stroke="#000000" points="1391.98,-227.99 1383.74,-221.33 1386.03,-231.67 1391.98,-227.99"/>
</g>
<!-- MomentTensorPhaseSetting -->
<g id="node16" class="node">
<title>MomentTensorPhaseSetting</title>
<path fill="#fcf2e3" stroke="transparent" stroke-width="0.5" d="M1605.5,-226.5C1605.5,-226.5 1472.5,-226.5 1472.5,-226.5 1466.5,-226.5 1460.5,-220.5 1460.5,-214.5 1460.5,-214.5 1460.5,-162.5 1460.5,-162.5 1460.5,-156.5 1466.5,-150.5 1472.5,-150.5 1472.5,-150.5 1605.5,-150.5 1605.5,-150.5 1611.5,-150.5 1617.5,-156.5 1617.5,-162.5 1617.5,-162.5 1617.5,-214.5 1617.5,-214.5 1617.5,-220.5 1611.5,-226.5 1605.5,-226.5"/>
<text text-anchor="start" x="1482" y="-214.1" font-family="Verdana" font-size="8.00">MomentTensorPhaseSetting</text>
<text text-anchor="start" x="1471" y="-203.1" font-family="Verdana" font-size="8.00" fill="#8b0000">+ code: string</text>
<text text-anchor="start" x="1471" y="-192.1" font-family="Verdana" font-size="8.00" fill="#8b0000">+ lowerPeriod: float</text>
<text text-anchor="start" x="1471" y="-181.1" font-family="Verdana" font-size="8.00" fill="#8b0000">+ upperPeriod: float</text>
<text text-anchor="start" x="1471" y="-170.1" font-family="Verdana" font-size="8.00" fill="#8b0000">+ minimumSNR: float &#160;[0..1]</text>
<text text-anchor="start" x="1471" y="-159.1" font-family="Verdana" font-size="8.00" fill="#8b0000">+ maximumTimeShift: float &#160;[0..1]</text>
</g>
<!-- MomentTensor&#45;&gt;MomentTensorPhaseSetting -->
<g id="edge23" class="edge">
<title>MomentTensor&#45;&gt;MomentTensorPhaseSetting</title>
<path fill="none" stroke="#000000" d="M1523.66,-267.85C1525.8,-256.89 1527.86,-246.37 1529.74,-236.79"/>
<polygon fill="#000000" stroke="#000000" points="1533.21,-237.27 1531.7,-226.79 1526.34,-235.93 1533.21,-237.27"/>
</g>
<!-- MomentTensorStationContribution -->
<g id="node17" class="node">
<title>MomentTensorStationContribution</title>
<path fill="#fcf2e3" stroke="transparent" stroke-width="0.5" d="M1996,-232C1996,-232 1648,-232 1648,-232 1642,-232 1636,-226 1636,-220 1636,-220 1636,-157 1636,-157 1636,-151 1642,-145 1648,-145 1648,-145 1996,-145 1996,-145 2002,-145 2008,-151 2008,-157 2008,-157 2008,-220 2008,-220 2008,-226 2002,-232 1996,-232"/>
<text text-anchor="start" x="1752" y="-219.1" font-family="Verdana" font-size="8.00">MomentTensorStationContribution</text>
<text text-anchor="start" x="1646" y="-208.1" font-family="Verdana" font-size="8.00" fill="#8b0000">+ publicID: string</text>
<text text-anchor="start" x="1646" y="-197.1" font-family="Verdana" font-size="8.00" fill="#8b0000">+ active: boolean</text>
<text text-anchor="start" x="1646" y="-186.1" font-family="Verdana" font-size="8.00" fill="#8b0000">+ waveformID: WaveformStreamID &#160;[0..1]</text>
<text text-anchor="start" x="1646" y="-175.1" font-family="Verdana" font-size="8.00" fill="#8b0000">+ weight: float &#160;[0..1]</text>
<text text-anchor="start" x="1646" y="-164.1" font-family="Verdana" font-size="8.00" fill="#8b0000">+ timeShift: float &#160;[0..1]</text>
<text text-anchor="start" x="1646" y="-153.1" font-family="Verdana" font-size="8.00" fill="#8b0000">+ momentTensorComponentContribution: MomentTensorComponentContribution [0..*]</text>
</g>
<!-- MomentTensor&#45;&gt;MomentTensorStationContribution -->
<g id="edge24" class="edge">
<title>MomentTensor&#45;&gt;MomentTensorStationContribution</title>
<path fill="none" stroke="#000000" d="M1665.17,-273.76C1668.12,-271.81 1671.07,-269.89 1674,-268 1690.56,-257.35 1708.72,-246.84 1726.46,-237.15"/>
<polygon fill="#000000" stroke="#000000" points="1728.56,-239.99 1735.69,-232.16 1725.23,-233.84 1728.56,-239.99"/>
</g>
<!-- MomentTensorComponentContribution -->
<g id="node18" class="node">
<title>MomentTensorComponentContribution</title>
<path fill="#fcf2e3" stroke="transparent" stroke-width="0.5" d="M1899,-109C1899,-109 1745,-109 1745,-109 1739,-109 1733,-103 1733,-97 1733,-97 1733,-12 1733,-12 1733,-6 1739,0 1745,0 1745,0 1899,0 1899,0 1905,0 1911,-6 1911,-12 1911,-12 1911,-97 1911,-97 1911,-103 1905,-109 1899,-109"/>
<text text-anchor="start" x="1743" y="-96.1" font-family="Verdana" font-size="8.00">MomentTensorComponentContribution</text>
<text text-anchor="start" x="1743" y="-85.1" font-family="Verdana" font-size="8.00" fill="#8b0000">+ phaseCode: string</text>
<text text-anchor="start" x="1743" y="-74.1" font-family="Verdana" font-size="8.00" fill="#8b0000">+ component: int</text>
<text text-anchor="start" x="1743" y="-63.1" font-family="Verdana" font-size="8.00" fill="#8b0000">+ active: boolean</text>
<text text-anchor="start" x="1743" y="-52.1" font-family="Verdana" font-size="8.00" fill="#8b0000">+ weight: float</text>
<text text-anchor="start" x="1743" y="-41.1" font-family="Verdana" font-size="8.00" fill="#8b0000">+ timeShift: float</text>
<text text-anchor="start" x="1743" y="-30.1" font-family="Verdana" font-size="8.00" fill="#8b0000">+ dataTimeWindow: float</text>
<text text-anchor="start" x="1743" y="-19.1" font-family="Verdana" font-size="8.00" fill="#8b0000">+ misfit: float &#160;[0..1]</text>
<text text-anchor="start" x="1743" y="-8.1" font-family="Verdana" font-size="8.00" fill="#8b0000">+ snr: float &#160;[0..1]</text>
</g>
<!-- MomentTensorStationContribution&#45;&gt;MomentTensorComponentContribution -->
<g id="edge25" class="edge">
<title>MomentTensorStationContribution&#45;&gt;MomentTensorComponentContribution</title>
<path fill="none" stroke="#000000" d="M1822,-144.64C1822,-136.53 1822,-127.88 1822,-119.28"/>
<polygon fill="#000000" stroke="#000000" points="1825.5,-119.24 1822,-109.24 1818.5,-119.24 1825.5,-119.24"/>
</g>
<!-- Event -->
<g id="node19" class="node">
<title>Event</title>
<path fill="#fcf2e3" stroke="transparent" stroke-width="0.5" d="M1880,-780.5C1880,-780.5 1628,-780.5 1628,-780.5 1622,-780.5 1616,-774.5 1616,-768.5 1616,-768.5 1616,-650.5 1616,-650.5 1616,-644.5 1622,-638.5 1628,-638.5 1628,-638.5 1880,-638.5 1880,-638.5 1886,-638.5 1892,-644.5 1892,-650.5 1892,-650.5 1892,-768.5 1892,-768.5 1892,-774.5 1886,-780.5 1880,-780.5"/>
<text text-anchor="start" x="1742" y="-768.1" font-family="Verdana" font-size="8.00">Event</text>
<text text-anchor="start" x="1626" y="-757.1" font-family="Verdana" font-size="8.00" fill="#8b0000">+ publicID: string</text>
<text text-anchor="start" x="1626" y="-746.1" font-family="Verdana" font-size="8.00" fill="#8b0000">+ preferredOriginID: string</text>
<text text-anchor="start" x="1626" y="-735.1" font-family="Verdana" font-size="8.00" fill="#8b0000">+ preferredMagnitudeID: string</text>
<text text-anchor="start" x="1626" y="-724.1" font-family="Verdana" font-size="8.00" fill="#8b0000">+ preferredFocalMechanismID: string</text>
<text text-anchor="start" x="1626" y="-713.1" font-family="Verdana" font-size="8.00" fill="#8b0000">+ type: EventType &#160;[0..1]</text>
<text text-anchor="start" x="1626" y="-702.1" font-family="Verdana" font-size="8.00" fill="#8b0000">+ typeCertainty: EventTypeCertainty &#160;[0..1]</text>
<text text-anchor="start" x="1626" y="-691.1" font-family="Verdana" font-size="8.00" fill="#8b0000">+ creationInfo: CreationInfo &#160;[0..1]</text>
<text text-anchor="start" x="1626" y="-680.1" font-family="Verdana" font-size="8.00" fill="#8b0000">+ eventDescription: EventDescription [0..*]</text>
<text text-anchor="start" x="1626" y="-669.1" font-family="Verdana" font-size="8.00" fill="#8b0000">+ comment: Comment [0..*]</text>
<text text-anchor="start" x="1626" y="-658.1" font-family="Verdana" font-size="8.00" fill="#8b0000">+ originReference: OriginReference [0..*]</text>
<text text-anchor="start" x="1626" y="-647.1" font-family="Verdana" font-size="8.00" fill="#8b0000">+ focalMechanismReference: FocalMechanismReference [0..*]</text>
</g>
<!-- Event&#45;&gt;Comment -->
<g id="edge8" class="edge">
<title>Event&#45;&gt;Comment</title>
<path fill="none" stroke="#000000" d="M1615.71,-659.22C1492.48,-614.72 1330.01,-554.37 1320,-542 1242.48,-446.16 1336.6,-375.9 1277,-268 1270,-255.32 1260.11,-243.71 1249.44,-233.54"/>
<polygon fill="#000000" stroke="#000000" points="1251.7,-230.86 1241.95,-226.73 1246.99,-236.04 1251.7,-230.86"/>
</g>
<!-- EventDescription -->
<g id="node20" class="node">
<title>EventDescription</title>
<path fill="#fcf2e3" stroke="transparent" stroke-width="0.5" d="M1812.5,-426.5C1812.5,-426.5 1695.5,-426.5 1695.5,-426.5 1689.5,-426.5 1683.5,-420.5 1683.5,-414.5 1683.5,-414.5 1683.5,-395.5 1683.5,-395.5 1683.5,-389.5 1689.5,-383.5 1695.5,-383.5 1695.5,-383.5 1812.5,-383.5 1812.5,-383.5 1818.5,-383.5 1824.5,-389.5 1824.5,-395.5 1824.5,-395.5 1824.5,-414.5 1824.5,-414.5 1824.5,-420.5 1818.5,-426.5 1812.5,-426.5"/>
<text text-anchor="start" x="1719.5" y="-413.6" font-family="Verdana" font-size="8.00">EventDescription</text>
<text text-anchor="start" x="1694" y="-402.6" font-family="Verdana" font-size="8.00" fill="#8b0000">+ text: string</text>
<text text-anchor="start" x="1694" y="-391.6" font-family="Verdana" font-size="8.00" fill="#8b0000">+ type: EventDescriptionType</text>
</g>
<!-- Event&#45;&gt;EventDescription -->
<g id="edge27" class="edge">
<title>Event&#45;&gt;EventDescription</title>
<path fill="none" stroke="#000000" d="M1754,-638.34C1754,-574.7 1754,-483.88 1754,-436.86"/>
<polygon fill="#000000" stroke="#000000" points="1757.5,-436.7 1754,-426.7 1750.5,-436.7 1757.5,-436.7"/>
</g>
<!-- OriginReference -->
<g id="node21" class="node">
<title>OriginReference</title>
<path fill="#fcf2e3" stroke="transparent" stroke-width="0.5" d="M1921,-423C1921,-423 1855,-423 1855,-423 1849,-423 1843,-417 1843,-411 1843,-411 1843,-399 1843,-399 1843,-393 1849,-387 1855,-387 1855,-387 1921,-387 1921,-387 1927,-387 1933,-393 1933,-399 1933,-399 1933,-411 1933,-411 1933,-417 1927,-423 1921,-423"/>
<text text-anchor="start" x="1854.5" y="-408.6" font-family="Verdana" font-size="8.00">OriginReference</text>
<text text-anchor="start" x="1853" y="-397.6" font-family="Verdana" font-size="8.00" fill="#8b0000">+ originID: string</text>
</g>
<!-- Event&#45;&gt;OriginReference -->
<g id="edge28" class="edge">
<title>Event&#45;&gt;OriginReference</title>
<path fill="none" stroke="#000000" d="M1788.36,-638.44C1802.58,-608.86 1818.98,-573.93 1833,-542 1849.5,-504.41 1867.03,-460.23 1877.75,-432.67"/>
<polygon fill="#000000" stroke="#000000" points="1881.03,-433.9 1881.38,-423.31 1874.5,-431.37 1881.03,-433.9"/>
</g>
<!-- FocalMechanismReference -->
<g id="node22" class="node">
<title>FocalMechanismReference</title>
<path fill="#fcf2e3" stroke="transparent" stroke-width="0.5" d="M2072.5,-423C2072.5,-423 1963.5,-423 1963.5,-423 1957.5,-423 1951.5,-417 1951.5,-411 1951.5,-411 1951.5,-399 1951.5,-399 1951.5,-393 1957.5,-387 1963.5,-387 1963.5,-387 2072.5,-387 2072.5,-387 2078.5,-387 2084.5,-393 2084.5,-399 2084.5,-399 2084.5,-411 2084.5,-411 2084.5,-417 2078.5,-423 2072.5,-423"/>
<text text-anchor="start" x="1963" y="-408.6" font-family="Verdana" font-size="8.00">FocalMechanismReference</text>
<text text-anchor="start" x="1962" y="-397.6" font-family="Verdana" font-size="8.00" fill="#8b0000">+ focalMechanismID: string</text>
</g>
<!-- Event&#45;&gt;FocalMechanismReference -->
<g id="edge29" class="edge">
<title>Event&#45;&gt;FocalMechanismReference</title>
<path fill="none" stroke="#000000" d="M1845.49,-638.25C1878.26,-610.44 1913.98,-576.81 1942,-542 1969.92,-507.32 1993.35,-461.02 2006.53,-432.37"/>
<polygon fill="#000000" stroke="#000000" points="2009.82,-433.58 2010.75,-423.02 2003.45,-430.69 2009.82,-433.58"/>
</g>
<!-- EventParameters -->
<g id="node23" class="node">
<title>EventParameters</title>
<path fill="#fcf2e3" stroke="transparent" stroke-width="0.5" d="M993,-913C993,-913 931,-913 931,-913 925,-913 919,-907 919,-901 919,-901 919,-889 919,-889 919,-883 925,-877 931,-877 931,-877 993,-877 993,-877 999,-877 1005,-883 1005,-889 1005,-889 1005,-901 1005,-901 1005,-907 999,-913 993,-913"/>
<text text-anchor="middle" x="962" y="-893.1" font-family="Verdana" font-size="8.00">EventParameters</text>
</g>
<!-- EventParameters&#45;&gt;Pick -->
<g id="edge1" class="edge">
<title>EventParameters&#45;&gt;Pick</title>
<path fill="none" stroke="#000000" d="M918.9,-887.16C874.31,-879.23 803.17,-864.21 745,-841 704.61,-824.88 662.67,-802.66 625.95,-781.13"/>
<polygon fill="#000000" stroke="#000000" points="627.61,-778.04 617.22,-775.97 624.04,-784.07 627.61,-778.04"/>
</g>
<!-- EventParameters&#45;&gt;Amplitude -->
<g id="edge10" class="edge">
<title>EventParameters&#45;&gt;Amplitude</title>
<path fill="none" stroke="#000000" d="M972.16,-876.74C980.67,-862.28 993.6,-840.31 1007.3,-817.04"/>
<polygon fill="#000000" stroke="#000000" points="1010.31,-818.81 1012.37,-808.42 1004.28,-815.26 1010.31,-818.81"/>
</g>
<!-- EventParameters&#45;&gt;Reading -->
<g id="edge11" class="edge">
<title>EventParameters&#45;&gt;Reading</title>
<path fill="none" stroke="#000000" d="M918.98,-892.11C806.1,-886.8 503.52,-870.2 408,-841 335.2,-818.74 259.34,-773.09 212.88,-742.14"/>
<polygon fill="#000000" stroke="#000000" points="214.8,-739.21 204.55,-736.54 210.9,-745.02 214.8,-739.21"/>
</g>
<!-- EventParameters&#45;&gt;Origin -->
<g id="edge14" class="edge">
<title>EventParameters&#45;&gt;Origin</title>
<path fill="none" stroke="#000000" d="M951.93,-876.74C947.71,-869.49 942.38,-860.35 936.41,-850.11"/>
<polygon fill="#000000" stroke="#000000" points="939.31,-848.15 931.25,-841.27 933.27,-851.67 939.31,-848.15"/>
</g>
<!-- EventParameters&#45;&gt;FocalMechanism -->
<g id="edge20" class="edge">
<title>EventParameters&#45;&gt;FocalMechanism</title>
<path fill="none" stroke="#000000" d="M1005.06,-891.15C1050.4,-886.44 1122.35,-873.96 1175,-841 1190.62,-831.22 1205.11,-818.45 1218.08,-804.72"/>
<polygon fill="#000000" stroke="#000000" points="1220.97,-806.76 1225.13,-797.01 1215.8,-802.03 1220.97,-806.76"/>
</g>
<!-- EventParameters&#45;&gt;Event -->
<g id="edge26" class="edge">
<title>EventParameters&#45;&gt;Event</title>
<path fill="none" stroke="#000000" d="M1005.08,-891.91C1083.3,-887.4 1253.5,-874.34 1393,-841 1464.66,-823.87 1541.76,-797.2 1606.23,-772.42"/>
<polygon fill="#000000" stroke="#000000" points="1607.59,-775.65 1615.65,-768.77 1605.06,-769.12 1607.59,-775.65"/>
</g>
</g>
</svg>
