<?xml version="1.0" encoding="UTF-8" standalone="no"?>
<!DOCTYPE svg PUBLIC "-//W3C//DTD SVG 1.1//EN"
 "http://www.w3.org/Graphics/SVG/1.1/DTD/svg11.dtd">
<!-- Generated by graphviz version 2.43.0 (0)
 -->
<!-- Title: G Pages: 1 -->
<svg width="394pt" height="402pt"
 viewBox="0.00 0.00 393.50 402.00" xmlns="http://www.w3.org/2000/svg" xmlns:xlink="http://www.w3.org/1999/xlink">
<g id="graph0" class="graph" transform="scale(1 1) rotate(0) translate(4 398)">
<title>G</title>
<polygon fill="white" stroke="transparent" points="-4,4 -4,-398 389.5,-398 389.5,4 -4,4"/>
<!-- ParameterSet -->
<g id="node1" class="node">
<title>ParameterSet</title>
<path fill="#fcf2e3" stroke="transparent" stroke-width="0.5" d="M188.5,-322C188.5,-322 71.5,-322 71.5,-322 65.5,-322 59.5,-316 59.5,-310 59.5,-310 59.5,-247 59.5,-247 59.5,-241 65.5,-235 71.5,-235 71.5,-235 188.5,-235 188.5,-235 194.5,-235 200.5,-241 200.5,-247 200.5,-247 200.5,-310 200.5,-310 200.5,-316 194.5,-322 188.5,-322"/>
<text text-anchor="start" x="102.5" y="-309.1" font-family="Verdana" font-size="8.00">ParameterSet</text>
<text text-anchor="start" x="70" y="-298.1" font-family="Verdana" font-size="8.00" fill="#8b0000">+ publicID: string</text>
<text text-anchor="start" x="70" y="-287.1" font-family="Verdana" font-size="8.00" fill="#8b0000">+ baseID: string</text>
<text text-anchor="start" x="70" y="-276.1" font-family="Verdana" font-size="8.00" fill="#8b0000">+ moduleID: string</text>
<text text-anchor="start" x="70" y="-265.1" font-family="Verdana" font-size="8.00" fill="#8b0000">+ created: datetime &#160;[0..1]</text>
<text text-anchor="start" x="70" y="-254.1" font-family="Verdana" font-size="8.00" fill="#8b0000">+ parameter: Parameter [0..*]</text>
<text text-anchor="start" x="70" y="-243.1" font-family="Verdana" font-size="8.00" fill="#8b0000">+ comment: Comment [0..*]</text>
</g>
<!-- Parameter -->
<g id="node2" class="node">
<title>Parameter</title>
<path fill="#fcf2e3" stroke="transparent" stroke-width="0.5" d="M122,-188C122,-188 12,-188 12,-188 6,-188 0,-182 0,-176 0,-176 0,-135 0,-135 0,-129 6,-123 12,-123 12,-123 122,-123 122,-123 128,-123 134,-129 134,-135 134,-135 134,-176 134,-176 134,-182 128,-188 122,-188"/>
<text text-anchor="start" x="45.5" y="-175.1" font-family="Verdana" font-size="8.00">Parameter</text>
<text text-anchor="start" x="10" y="-164.1" font-family="Verdana" font-size="8.00" fill="#8b0000">+ publicID: string</text>
<text text-anchor="start" x="10" y="-153.1" font-family="Verdana" font-size="8.00" fill="#8b0000">+ name: string</text>
<text text-anchor="start" x="10" y="-142.1" font-family="Verdana" font-size="8.00" fill="#8b0000">+ value: string</text>
<text text-anchor="start" x="10" y="-131.1" font-family="Verdana" font-size="8.00" fill="#8b0000">+ comment: Comment [0..*]</text>
</g>
<!-- ParameterSet&#45;&gt;Parameter -->
<g id="edge2" class="edge">
<title>ParameterSet&#45;&gt;Parameter</title>
<path fill="none" stroke="#000000" d="M107.79,-234.84C101.41,-222.59 94.47,-209.26 88.16,-197.13"/>
<polygon fill="#000000" stroke="#000000" points="91.19,-195.38 83.47,-188.13 84.98,-198.62 91.19,-195.38"/>
</g>
<!-- Comment -->
<g id="node3" class="node">
<title>Comment</title>
<path fill="#fcf2e3" stroke="transparent" stroke-width="0.5" d="M189,-76C189,-76 53,-76 53,-76 47,-76 41,-70 41,-64 41,-64 41,-12 41,-12 41,-6 47,0 53,0 53,0 189,0 189,0 195,0 201,-6 201,-12 201,-12 201,-64 201,-64 201,-70 195,-76 189,-76"/>
<text text-anchor="start" x="101" y="-63.6" font-family="Verdana" font-size="8.00">Comment</text>
<text text-anchor="start" x="51" y="-52.6" font-family="Verdana" font-size="8.00" fill="#8b0000">+ text: string</text>
<text text-anchor="start" x="51" y="-41.6" font-family="Verdana" font-size="8.00" fill="#8b0000">+ id: string</text>
<text text-anchor="start" x="51" y="-30.6" font-family="Verdana" font-size="8.00" fill="#8b0000">+ start: datetime &#160;[0..1]</text>
<text text-anchor="start" x="51" y="-19.6" font-family="Verdana" font-size="8.00" fill="#8b0000">+ end: datetime &#160;[0..1]</text>
<text text-anchor="start" x="51" y="-8.6" font-family="Verdana" font-size="8.00" fill="#8b0000">+ creationInfo: CreationInfo &#160;[0..1]</text>
</g>
<!-- ParameterSet&#45;&gt;Comment -->
<g id="edge4" class="edge">
<title>ParameterSet&#45;&gt;Comment</title>
<path fill="none" stroke="#000000" d="M138.59,-234.8C144.08,-201.28 149.12,-153.49 143,-112 141.74,-103.43 139.68,-94.48 137.33,-85.9"/>
<polygon fill="#000000" stroke="#000000" points="140.61,-84.65 134.45,-76.03 133.89,-86.61 140.61,-84.65"/>
</g>
<!-- Parameter&#45;&gt;Comment -->
<g id="edge3" class="edge">
<title>Parameter&#45;&gt;Comment</title>
<path fill="none" stroke="#000000" d="M81.76,-122.94C87.13,-111.44 93.33,-98.19 99.19,-85.66"/>
<polygon fill="#000000" stroke="#000000" points="102.51,-86.8 103.58,-76.26 96.17,-83.84 102.51,-86.8"/>
</g>
<!-- ConfigModule -->
<g id="node4" class="node">
<title>ConfigModule</title>
<path fill="#fcf2e3" stroke="transparent" stroke-width="0.5" d="M373.5,-316.5C373.5,-316.5 230.5,-316.5 230.5,-316.5 224.5,-316.5 218.5,-310.5 218.5,-304.5 218.5,-304.5 218.5,-252.5 218.5,-252.5 218.5,-246.5 224.5,-240.5 230.5,-240.5 230.5,-240.5 373.5,-240.5 373.5,-240.5 379.5,-240.5 385.5,-246.5 385.5,-252.5 385.5,-252.5 385.5,-304.5 385.5,-304.5 385.5,-310.5 379.5,-316.5 373.5,-316.5"/>
<text text-anchor="start" x="274" y="-304.1" font-family="Verdana" font-size="8.00">ConfigModule</text>
<text text-anchor="start" x="229" y="-293.1" font-family="Verdana" font-size="8.00" fill="#8b0000">+ publicID: string</text>
<text text-anchor="start" x="229" y="-282.1" font-family="Verdana" font-size="8.00" fill="#8b0000">+ name: string</text>
<text text-anchor="start" x="229" y="-271.1" font-family="Verdana" font-size="8.00" fill="#8b0000">+ parameterSetID: string</text>
<text text-anchor="start" x="229" y="-260.1" font-family="Verdana" font-size="8.00" fill="#8b0000">+ enabled: boolean</text>
<text text-anchor="start" x="229" y="-249.1" font-family="Verdana" font-size="8.00" fill="#8b0000">+ configStation: ConfigStation [0..*]</text>
</g>
<!-- ConfigStation -->
<g id="node5" class="node">
<title>ConfigStation</title>
<path fill="#fcf2e3" stroke="transparent" stroke-width="0.5" d="M370,-199C370,-199 234,-199 234,-199 228,-199 222,-193 222,-187 222,-187 222,-124 222,-124 222,-118 228,-112 234,-112 234,-112 370,-112 370,-112 376,-112 382,-118 382,-124 382,-124 382,-187 382,-187 382,-193 376,-199 370,-199"/>
<text text-anchor="start" x="274" y="-186.1" font-family="Verdana" font-size="8.00">ConfigStation</text>
<text text-anchor="start" x="232" y="-175.1" font-family="Verdana" font-size="8.00" fill="#8b0000">+ publicID: string</text>
<text text-anchor="start" x="232" y="-164.1" font-family="Verdana" font-size="8.00" fill="#8b0000">+ networkCode: string</text>
<text text-anchor="start" x="232" y="-153.1" font-family="Verdana" font-size="8.00" fill="#8b0000">+ stationCode: string</text>
<text text-anchor="start" x="232" y="-142.1" font-family="Verdana" font-size="8.00" fill="#8b0000">+ enabled: boolean</text>
<text text-anchor="start" x="232" y="-131.1" font-family="Verdana" font-size="8.00" fill="#8b0000">+ creationInfo: CreationInfo &#160;[0..1]</text>
<text text-anchor="start" x="232" y="-120.1" font-family="Verdana" font-size="8.00" fill="#8b0000">+ setup: Setup [0..*]</text>
</g>
<!-- ConfigModule&#45;&gt;ConfigStation -->
<g id="edge6" class="edge">
<title>ConfigModule&#45;&gt;ConfigStation</title>
<path fill="none" stroke="#000000" d="M302,-240.21C302,-230.52 302,-219.9 302,-209.57"/>
<polygon fill="#000000" stroke="#000000" points="305.5,-209.38 302,-199.38 298.5,-209.38 305.5,-209.38"/>
</g>
<!-- Setup -->
<g id="node6" class="node">
<title>Setup</title>
<path fill="#fcf2e3" stroke="transparent" stroke-width="0.5" d="M351.5,-65C351.5,-65 252.5,-65 252.5,-65 246.5,-65 240.5,-59 240.5,-53 240.5,-53 240.5,-23 240.5,-23 240.5,-17 246.5,-11 252.5,-11 252.5,-11 351.5,-11 351.5,-11 357.5,-11 363.5,-17 363.5,-23 363.5,-23 363.5,-53 363.5,-53 363.5,-59 357.5,-65 351.5,-65"/>
<text text-anchor="start" x="290" y="-52.6" font-family="Verdana" font-size="8.00">Setup</text>
<text text-anchor="start" x="251" y="-41.6" font-family="Verdana" font-size="8.00" fill="#8b0000">+ name: string</text>
<text text-anchor="start" x="251" y="-30.6" font-family="Verdana" font-size="8.00" fill="#8b0000">+ parameterSetID: string</text>
<text text-anchor="start" x="251" y="-19.6" font-family="Verdana" font-size="8.00" fill="#8b0000">+ enabled: boolean</text>
</g>
<!-- ConfigStation&#45;&gt;Setup -->
<g id="edge7" class="edge">
<title>ConfigStation&#45;&gt;Setup</title>
<path fill="none" stroke="#000000" d="M302,-111.82C302,-99.82 302,-86.88 302,-75.28"/>
<polygon fill="#000000" stroke="#000000" points="305.5,-75.08 302,-65.08 298.5,-75.08 305.5,-75.08"/>
</g>
<!-- Config -->
<g id="node7" class="node">
<title>Config</title>
<path fill="#fcf2e3" stroke="transparent" stroke-width="0.5" d="M231,-394C231,-394 201,-394 201,-394 195,-394 189,-388 189,-382 189,-382 189,-370 189,-370 189,-364 195,-358 201,-358 201,-358 231,-358 231,-358 237,-358 243,-364 243,-370 243,-370 243,-382 243,-382 243,-388 237,-394 231,-394"/>
<text text-anchor="middle" x="216" y="-374.1" font-family="Verdana" font-size="8.00">Config</text>
</g>
<!-- Config&#45;&gt;ParameterSet -->
<g id="edge1" class="edge">
<title>Config&#45;&gt;ParameterSet</title>
<path fill="none" stroke="#000000" d="M200.62,-357.93C193.46,-349.97 184.53,-340.05 175.45,-329.97"/>
<polygon fill="#000000" stroke="#000000" points="177.8,-327.35 168.51,-322.26 172.6,-332.03 177.8,-327.35"/>
</g>
<!-- Config&#45;&gt;ConfigModule -->
<g id="edge5" class="edge">
<title>Config&#45;&gt;ConfigModule</title>
<path fill="none" stroke="#000000" d="M231.38,-357.93C239.94,-348.42 251.03,-336.1 261.88,-324.05"/>
<polygon fill="#000000" stroke="#000000" points="264.49,-326.38 268.58,-316.61 259.29,-321.7 264.49,-326.38"/>
</g>
</g>
</svg>
