<?xml version="1.0" encoding="UTF-8" standalone="no"?>
<!DOCTYPE svg PUBLIC "-//W3C//DTD SVG 1.1//EN"
 "http://www.w3.org/Graphics/SVG/1.1/DTD/svg11.dtd">
<!-- Generated by graphviz version 2.43.0 (0)
 -->
<!-- Title: ArclinkLog hierarchy Pages: 1 -->
<svg width="348pt" height="462pt"
 viewBox="0.00 0.00 348.00 462.00" xmlns="http://www.w3.org/2000/svg" xmlns:xlink="http://www.w3.org/1999/xlink">
<g id="graph0" class="graph" transform="scale(1 1) rotate(0) translate(4 458)">
<title>ArclinkLog hierarchy</title>
<polygon fill="white" stroke="transparent" points="-4,4 -4,-458 344,-458 344,4 -4,4"/>
<!-- ArclinkRequest -->
<g id="node1" class="node">
<title>ArclinkRequest</title>
<g id="a_node1"><a xlink:href="../base/api-python.html#api-python-datamodel-arclinkrequest" xlink:title="&lt;TABLE&gt;" target="_top">
<path fill="#fcf2e3" stroke="transparent" stroke-width="0.5" d="M212.5,-353C212.5,-353 23.5,-353 23.5,-353 17.5,-353 11.5,-347 11.5,-341 11.5,-341 11.5,-168 11.5,-168 11.5,-162 17.5,-156 23.5,-156 23.5,-156 212.5,-156 212.5,-156 218.5,-156 224.5,-162 224.5,-168 224.5,-168 224.5,-341 224.5,-341 224.5,-347 218.5,-353 212.5,-353"/>
<text text-anchor="start" x="88" y="-340.1" font-family="Verdana" font-size="8.00">ArclinkRequest</text>
<text text-anchor="start" x="117" y="-329.1" font-family="Verdana" font-size="8.00"> </text>
<text text-anchor="start" x="22" y="-318.1" font-family="Verdana" font-size="8.00" fill="#8b0000">+ publicID: string</text>
<text text-anchor="start" x="22" y="-307.1" font-family="Verdana" font-size="8.00" fill="#8b0000">+ requestID: string</text>
<text text-anchor="start" x="22" y="-296.1" font-family="Verdana" font-size="8.00" fill="#8b0000">+ userID: string</text>
<text text-anchor="start" x="22" y="-285.1" font-family="Verdana" font-size="8.00" fill="#8b0000">+ userIP: string</text>
<text text-anchor="start" x="22" y="-274.1" font-family="Verdana" font-size="8.00" fill="#8b0000">+ clientID: string</text>
<text text-anchor="start" x="22" y="-263.1" font-family="Verdana" font-size="8.00" fill="#8b0000">+ clientIP: string</text>
<text text-anchor="start" x="22" y="-252.1" font-family="Verdana" font-size="8.00" fill="#8b0000">+ type: string</text>
<text text-anchor="start" x="22" y="-241.1" font-family="Verdana" font-size="8.00" fill="#8b0000">+ created: datetime</text>
<text text-anchor="start" x="22" y="-230.1" font-family="Verdana" font-size="8.00" fill="#8b0000">+ status: string</text>
<text text-anchor="start" x="22" y="-219.1" font-family="Verdana" font-size="8.00" fill="#8b0000">+ message: string</text>
<text text-anchor="start" x="22" y="-208.1" font-family="Verdana" font-size="8.00" fill="#8b0000">+ label: string</text>
<text text-anchor="start" x="22" y="-197.1" font-family="Verdana" font-size="8.00" fill="#8b0000">+ header: string</text>
<text text-anchor="start" x="22" y="-186.1" font-family="Verdana" font-size="8.00" fill="#8b0000">+ summary: ArclinkRequestSummary &#160;[0..1]</text>
<text text-anchor="start" x="22" y="-175.1" font-family="Verdana" font-size="8.00" fill="#8b0000">+ arclinkStatusLine: ArclinkStatusLine [0..*]</text>
<text text-anchor="start" x="22" y="-164.1" font-family="Verdana" font-size="8.00" fill="#8b0000">+ arclinkRequestLine: ArclinkRequestLine [0..*]</text>
<polygon fill="#000000" stroke="#000000" points="20,-336.5 20,-336.5 217,-336.5 217,-336.5 20,-336.5"/>
</a>
</g>
</g>
<!-- ArclinkStatusLine -->
<g id="node2" class="node">
<title>ArclinkStatusLine</title>
<g id="a_node2"><a xlink:href="../base/api-python.html#api-python-datamodel-arclinkstatusline" xlink:title="&lt;TABLE&gt;" target="_top">
<path fill="#fcf2e3" stroke="transparent" stroke-width="0.5" d="M84,-103.5C84,-103.5 12,-103.5 12,-103.5 6,-103.5 0,-97.5 0,-91.5 0,-91.5 0,-28.5 0,-28.5 0,-22.5 6,-16.5 12,-16.5 12,-16.5 84,-16.5 84,-16.5 90,-16.5 96,-22.5 96,-28.5 96,-28.5 96,-91.5 96,-91.5 96,-97.5 90,-103.5 84,-103.5"/>
<text text-anchor="start" x="12.5" y="-90.6" font-family="Verdana" font-size="8.00">ArclinkStatusLine</text>
<text text-anchor="start" x="46.5" y="-79.6" font-family="Verdana" font-size="8.00"> </text>
<text text-anchor="start" x="10" y="-68.6" font-family="Verdana" font-size="8.00" fill="#8b0000">+ type: string</text>
<text text-anchor="start" x="10" y="-57.6" font-family="Verdana" font-size="8.00" fill="#8b0000">+ status: string</text>
<text text-anchor="start" x="10" y="-46.6" font-family="Verdana" font-size="8.00" fill="#8b0000">+ size: int &#160;[0..1]</text>
<text text-anchor="start" x="10" y="-35.6" font-family="Verdana" font-size="8.00" fill="#8b0000">+ message: string</text>
<text text-anchor="start" x="10" y="-24.6" font-family="Verdana" font-size="8.00" fill="#8b0000">+ volumeID: string</text>
<polygon fill="#000000" stroke="#000000" points="8,-87 8,-87 88,-87 88,-87 8,-87"/>
</a>
</g>
</g>
<!-- ArclinkRequest&#45;&gt;ArclinkStatusLine -->
<g id="edge2" class="edge">
<title>ArclinkRequest&#45;&gt;ArclinkStatusLine</title>
<path fill="none" stroke="#000000" d="M78.3,-144.33C73.11,-130.05 68.06,-116.16 63.61,-103.94"/>
<polygon fill="#000000" stroke="#000000" points="78.39,-144.56 84.2,-148.83 82.49,-155.84 76.68,-151.57 78.39,-144.56"/>
</g>
<!-- ArclinkRequestLine -->
<g id="node3" class="node">
<title>ArclinkRequestLine</title>
<g id="a_node3"><a xlink:href="../base/api-python.html#api-python-datamodel-arclinkrequestline" xlink:title="&lt;TABLE&gt;" target="_top">
<path fill="#fcf2e3" stroke="transparent" stroke-width="0.5" d="M252,-120C252,-120 126,-120 126,-120 120,-120 114,-114 114,-108 114,-108 114,-12 114,-12 114,-6 120,0 126,0 126,0 252,0 252,0 258,0 264,-6 264,-12 264,-12 264,-108 264,-108 264,-114 258,-120 252,-120"/>
<text text-anchor="start" x="149.5" y="-107.6" font-family="Verdana" font-size="8.00">ArclinkRequestLine</text>
<text text-anchor="start" x="187.5" y="-96.6" font-family="Verdana" font-size="8.00"> </text>
<text text-anchor="start" x="124" y="-85.6" font-family="Verdana" font-size="8.00" fill="#8b0000">+ start: datetime</text>
<text text-anchor="start" x="124" y="-74.6" font-family="Verdana" font-size="8.00" fill="#8b0000">+ end: datetime</text>
<text text-anchor="start" x="124" y="-63.6" font-family="Verdana" font-size="8.00" fill="#8b0000">+ streamID: WaveformStreamID</text>
<text text-anchor="start" x="124" y="-52.6" font-family="Verdana" font-size="8.00" fill="#8b0000">+ restricted: boolean &#160;[0..1]</text>
<text text-anchor="start" x="124" y="-41.6" font-family="Verdana" font-size="8.00" fill="#8b0000">+ shared: boolean &#160;[0..1]</text>
<text text-anchor="start" x="124" y="-30.6" font-family="Verdana" font-size="8.00" fill="#8b0000">+ netClass: string</text>
<text text-anchor="start" x="124" y="-19.6" font-family="Verdana" font-size="8.00" fill="#8b0000">+ constraints: string</text>
<text text-anchor="start" x="124" y="-8.6" font-family="Verdana" font-size="8.00" fill="#8b0000">+ status: ArclinkStatusLine</text>
<polygon fill="#000000" stroke="#000000" points="122,-104 122,-104 256,-104 256,-104 122,-104"/>
</a>
</g>
</g>
<!-- ArclinkRequest&#45;&gt;ArclinkRequestLine -->
<g id="edge3" class="edge">
<title>ArclinkRequest&#45;&gt;ArclinkRequestLine</title>
<path fill="none" stroke="#000000" d="M158.22,-144.44C161.29,-136.13 164.31,-127.94 167.19,-120.14"/>
<polygon fill="#000000" stroke="#000000" points="158.17,-144.58 159.85,-151.6 154.02,-155.84 152.34,-148.83 158.17,-144.58"/>
</g>
<!-- ArclinkUser -->
<g id="node4" class="node">
<title>ArclinkUser</title>
<g id="a_node4"><a xlink:href="../base/api-python.html#api-python-datamodel-arclinkuser" xlink:title="&lt;TABLE&gt;" target="_top">
<path fill="#fcf2e3" stroke="transparent" stroke-width="0.5" d="M328,-292.5C328,-292.5 254,-292.5 254,-292.5 248,-292.5 242,-286.5 242,-280.5 242,-280.5 242,-228.5 242,-228.5 242,-222.5 248,-216.5 254,-216.5 254,-216.5 328,-216.5 328,-216.5 334,-216.5 340,-222.5 340,-228.5 340,-228.5 340,-280.5 340,-280.5 340,-286.5 334,-292.5 328,-292.5"/>
<text text-anchor="start" x="268" y="-280.1" font-family="Verdana" font-size="8.00">ArclinkUser</text>
<text text-anchor="start" x="289.5" y="-269.1" font-family="Verdana" font-size="8.00"> </text>
<text text-anchor="start" x="252" y="-258.1" font-family="Verdana" font-size="8.00" fill="#8b0000">+ publicID: string</text>
<text text-anchor="start" x="252" y="-247.1" font-family="Verdana" font-size="8.00" fill="#8b0000">+ name: string</text>
<text text-anchor="start" x="252" y="-236.1" font-family="Verdana" font-size="8.00" fill="#8b0000">+ email: string</text>
<text text-anchor="start" x="252" y="-225.1" font-family="Verdana" font-size="8.00" fill="#8b0000">+ password: string</text>
<polygon fill="#000000" stroke="#000000" points="250,-276.5 250,-276.5 332,-276.5 332,-276.5 250,-276.5"/>
</a>
</g>
</g>
<!-- ArclinkLog -->
<g id="node5" class="node">
<title>ArclinkLog</title>
<g id="a_node5"><a xlink:href="../base/api-python.html#api-python-datamodel-arclinklog" xlink:title="&lt;TABLE&gt;" target="_top">
<path fill="#fcf2e3" stroke="transparent" stroke-width="0.5" d="M281,-454C281,-454 127,-454 127,-454 121,-454 115,-448 115,-442 115,-442 115,-401 115,-401 115,-395 121,-389 127,-389 127,-389 281,-389 281,-389 287,-389 293,-395 293,-401 293,-401 293,-442 293,-442 293,-448 287,-454 281,-454"/>
<text text-anchor="start" x="182.5" y="-441.1" font-family="Verdana" font-size="8.00">ArclinkLog</text>
<text text-anchor="start" x="202.5" y="-430.1" font-family="Verdana" font-size="8.00"> </text>
<text text-anchor="start" x="125" y="-419.1" font-family="Verdana" font-size="8.00" fill="#8b0000">+ publicID: string</text>
<text text-anchor="start" x="125" y="-408.1" font-family="Verdana" font-size="8.00" fill="#8b0000">+ arclinkRequest: ArclinkRequest [0..*]</text>
<text text-anchor="start" x="125" y="-397.1" font-family="Verdana" font-size="8.00" fill="#8b0000">+ arclinkUser: ArclinkUser [0..*]</text>
<polygon fill="#000000" stroke="#000000" points="123,-437.5 123,-437.5 285,-437.5 285,-437.5 123,-437.5"/>
</a>
</g>
</g>
<!-- ArclinkLog&#45;&gt;ArclinkRequest -->
<g id="edge1" class="edge">
<title>ArclinkLog&#45;&gt;ArclinkRequest</title>
<path fill="none" stroke="#000000" d="M181.76,-377.83C177.73,-370.09 173.37,-361.73 168.9,-353.15"/>
<polygon fill="#000000" stroke="#000000" points="181.87,-378.05 188.19,-381.52 187.42,-388.69 181.1,-385.21 181.87,-378.05"/>
</g>
<!-- ArclinkLog&#45;&gt;ArclinkUser -->
<g id="edge4" class="edge">
<title>ArclinkLog&#45;&gt;ArclinkUser</title>
<path fill="none" stroke="#000000" d="M226.48,-377.87C240.38,-351.5 258.05,-317.98 271.39,-292.7"/>
<polygon fill="#000000" stroke="#000000" points="226.37,-378.07 227.11,-385.24 220.77,-388.69 220.03,-381.51 226.37,-378.07"/>
</g>
</g>
</svg>
