<?xml version="1.0" encoding="UTF-8" standalone="no"?>
<!DOCTYPE svg PUBLIC "-//W3C//DTD SVG 1.1//EN"
 "http://www.w3.org/Graphics/SVG/1.1/DTD/svg11.dtd">
<!-- Generated by graphviz version 2.43.0 (0)
 -->
<!-- Title: G Pages: 1 -->
<svg width="137pt" height="156pt"
 viewBox="0.00 0.00 137.00 156.00" xmlns="http://www.w3.org/2000/svg" xmlns:xlink="http://www.w3.org/1999/xlink">
<g id="graph0" class="graph" transform="scale(1 1) rotate(0) translate(4 152)">
<title>G</title>
<polygon fill="white" stroke="transparent" points="-4,4 -4,-152 133,-152 133,4 -4,4"/>
<!-- JournalEntry -->
<g id="node1" class="node">
<title>JournalEntry</title>
<path fill="#fcf2e3" stroke="transparent" stroke-width="0.5" d="M117,-76C117,-76 12,-76 12,-76 6,-76 0,-70 0,-64 0,-64 0,-12 0,-12 0,-6 6,0 12,0 12,0 117,0 117,0 123,0 129,-6 129,-12 129,-12 129,-64 129,-64 129,-70 123,-76 117,-76"/>
<text text-anchor="start" x="40" y="-63.6" font-family="Verdana" font-size="8.00">JournalEntry</text>
<text text-anchor="start" x="10.5" y="-52.6" font-family="Verdana" font-size="8.00" fill="#8b0000">+ created: datetime &#160;[0..1]</text>
<text text-anchor="start" x="10.5" y="-41.6" font-family="Verdana" font-size="8.00" fill="#8b0000">+ objectID: string</text>
<text text-anchor="start" x="10.5" y="-30.6" font-family="Verdana" font-size="8.00" fill="#8b0000">+ sender: string</text>
<text text-anchor="start" x="10.5" y="-19.6" font-family="Verdana" font-size="8.00" fill="#8b0000">+ action: string</text>
<text text-anchor="start" x="10.5" y="-8.6" font-family="Verdana" font-size="8.00" fill="#8b0000">+ parameters: string</text>
</g>
<!-- Journaling -->
<g id="node2" class="node">
<title>Journaling</title>
<path fill="#fcf2e3" stroke="transparent" stroke-width="0.5" d="M81.5,-148C81.5,-148 47.5,-148 47.5,-148 41.5,-148 35.5,-142 35.5,-136 35.5,-136 35.5,-124 35.5,-124 35.5,-118 41.5,-112 47.5,-112 47.5,-112 81.5,-112 81.5,-112 87.5,-112 93.5,-118 93.5,-124 93.5,-124 93.5,-136 93.5,-136 93.5,-142 87.5,-148 81.5,-148"/>
<text text-anchor="middle" x="64.5" y="-128.1" font-family="Verdana" font-size="8.00">Journaling</text>
</g>
<!-- Journaling&#45;&gt;JournalEntry -->
<g id="edge1" class="edge">
<title>Journaling&#45;&gt;JournalEntry</title>
<path fill="none" stroke="#000000" d="M64.5,-111.65C64.5,-104.3 64.5,-95.34 64.5,-86.27"/>
<polygon fill="#000000" stroke="#000000" points="68,-86.04 64.5,-76.04 61,-86.04 68,-86.04"/>
</g>
</g>
</svg>
