<?xml version="1.0" encoding="UTF-8" standalone="no"?>
<!DOCTYPE svg PUBLIC "-//W3C//DTD SVG 1.1//EN"
 "http://www.w3.org/Graphics/SVG/1.1/DTD/svg11.dtd">
<!-- Generated by graphviz version 2.43.0 (0)
 -->
<!-- Title: Routing hierarchy Pages: 1 -->
<svg width="344pt" height="330pt"
 viewBox="0.00 0.00 344.00 330.00" xmlns="http://www.w3.org/2000/svg" xmlns:xlink="http://www.w3.org/1999/xlink">
<g id="graph0" class="graph" transform="scale(1 1) rotate(0) translate(4 326)">
<title>Routing hierarchy</title>
<polygon fill="white" stroke="transparent" points="-4,4 -4,-326 340,-326 340,4 -4,4"/>
<!-- Route -->
<g id="node1" class="node">
<title>Route</title>
<g id="a_node1"><a xlink:href="../base/api-python.html#api-python-datamodel-route" xlink:title="&lt;TABLE&gt;" target="_top">
<path fill="#fcf2e3" stroke="transparent" stroke-width="0.5" d="M193,-221C193,-221 44,-221 44,-221 38,-221 32,-215 32,-209 32,-209 32,-124 32,-124 32,-118 38,-112 44,-112 44,-112 193,-112 193,-112 199,-112 205,-118 205,-124 205,-124 205,-209 205,-209 205,-215 199,-221 193,-221"/>
<text text-anchor="start" x="106.5" y="-208.1" font-family="Verdana" font-size="8.00">Route</text>
<text text-anchor="start" x="117.5" y="-197.1" font-family="Verdana" font-size="8.00"> </text>
<text text-anchor="start" x="42.5" y="-186.1" font-family="Verdana" font-size="8.00" fill="#8b0000">+ publicID: string</text>
<text text-anchor="start" x="42.5" y="-175.1" font-family="Verdana" font-size="8.00" fill="#8b0000">+ networkCode: string</text>
<text text-anchor="start" x="42.5" y="-164.1" font-family="Verdana" font-size="8.00" fill="#8b0000">+ stationCode: string</text>
<text text-anchor="start" x="42.5" y="-153.1" font-family="Verdana" font-size="8.00" fill="#8b0000">+ locationCode: string</text>
<text text-anchor="start" x="42.5" y="-142.1" font-family="Verdana" font-size="8.00" fill="#8b0000">+ streamCode: string</text>
<text text-anchor="start" x="42.5" y="-131.1" font-family="Verdana" font-size="8.00" fill="#8b0000">+ routeArclink: RouteArclink [0..*]</text>
<text text-anchor="start" x="42.5" y="-120.1" font-family="Verdana" font-size="8.00" fill="#8b0000">+ routeSeedlink: RouteSeedlink [0..*]</text>
<polygon fill="#000000" stroke="#000000" points="40.5,-204.5 40.5,-204.5 197.5,-204.5 197.5,-204.5 40.5,-204.5"/>
</a>
</g>
</g>
<!-- RouteArclink -->
<g id="node2" class="node">
<title>RouteArclink</title>
<g id="a_node2"><a xlink:href="../base/api-python.html#api-python-datamodel-routearclink" xlink:title="&lt;TABLE&gt;" target="_top">
<path fill="#fcf2e3" stroke="transparent" stroke-width="0.5" d="M101,-76C101,-76 12,-76 12,-76 6,-76 0,-70 0,-64 0,-64 0,-12 0,-12 0,-6 6,0 12,0 12,0 101,0 101,0 107,0 113,-6 113,-12 113,-12 113,-64 113,-64 113,-70 107,-76 101,-76"/>
<text text-anchor="start" x="31" y="-63.6" font-family="Verdana" font-size="8.00">RouteArclink</text>
<text text-anchor="start" x="55.5" y="-52.6" font-family="Verdana" font-size="8.00"> </text>
<text text-anchor="start" x="10.5" y="-41.6" font-family="Verdana" font-size="8.00" fill="#8b0000">+ address: string</text>
<text text-anchor="start" x="10.5" y="-30.6" font-family="Verdana" font-size="8.00" fill="#8b0000">+ start: datetime</text>
<text text-anchor="start" x="10.5" y="-19.6" font-family="Verdana" font-size="8.00" fill="#8b0000">+ end: datetime &#160;[0..1]</text>
<text text-anchor="start" x="10.5" y="-8.6" font-family="Verdana" font-size="8.00" fill="#8b0000">+ priority: int &#160;[0..1]</text>
<polygon fill="#000000" stroke="#000000" points="8.5,-60 8.5,-60 105.5,-60 105.5,-60 8.5,-60"/>
</a>
</g>
</g>
<!-- Route&#45;&gt;RouteArclink -->
<g id="edge2" class="edge">
<title>Route&#45;&gt;RouteArclink</title>
<path fill="none" stroke="#000000" d="M86.8,-100.82C82.67,-92.4 78.56,-84.01 74.76,-76.26"/>
<polygon fill="#000000" stroke="#000000" points="86.93,-101.08 93.16,-104.7 92.21,-111.85 85.97,-108.23 86.93,-101.08"/>
</g>
<!-- RouteSeedlink -->
<g id="node3" class="node">
<title>RouteSeedlink</title>
<g id="a_node3"><a xlink:href="../base/api-python.html#api-python-datamodel-routeseedlink" xlink:title="&lt;TABLE&gt;" target="_top">
<path fill="#fcf2e3" stroke="transparent" stroke-width="0.5" d="M218,-65C218,-65 143,-65 143,-65 137,-65 131,-59 131,-53 131,-53 131,-23 131,-23 131,-17 137,-11 143,-11 143,-11 218,-11 218,-11 224,-11 230,-17 230,-23 230,-23 230,-53 230,-53 230,-59 224,-65 218,-65"/>
<text text-anchor="start" x="151" y="-52.6" font-family="Verdana" font-size="8.00">RouteSeedlink</text>
<text text-anchor="start" x="179.5" y="-41.6" font-family="Verdana" font-size="8.00"> </text>
<text text-anchor="start" x="141.5" y="-30.6" font-family="Verdana" font-size="8.00" fill="#8b0000">+ address: string</text>
<text text-anchor="start" x="141.5" y="-19.6" font-family="Verdana" font-size="8.00" fill="#8b0000">+ priority: int &#160;[0..1]</text>
<polygon fill="#000000" stroke="#000000" points="139.5,-49 139.5,-49 222.5,-49 222.5,-49 139.5,-49"/>
</a>
</g>
</g>
<!-- Route&#45;&gt;RouteSeedlink -->
<g id="edge3" class="edge">
<title>Route&#45;&gt;RouteSeedlink</title>
<path fill="none" stroke="#000000" d="M150.22,-100.79C156.41,-88.16 162.56,-75.61 167.68,-65.15"/>
<polygon fill="#000000" stroke="#000000" points="150.07,-101.08 151.03,-108.23 144.79,-111.85 143.84,-104.7 150.07,-101.08"/>
</g>
<!-- Access -->
<g id="node4" class="node">
<title>Access</title>
<g id="a_node4"><a xlink:href="../base/api-python.html#api-python-datamodel-access" xlink:title="&lt;TABLE&gt;" target="_top">
<path fill="#fcf2e3" stroke="transparent" stroke-width="0.5" d="M324,-221C324,-221 235,-221 235,-221 229,-221 223,-215 223,-209 223,-209 223,-124 223,-124 223,-118 229,-112 235,-112 235,-112 324,-112 324,-112 330,-112 336,-118 336,-124 336,-124 336,-209 336,-209 336,-215 330,-221 324,-221"/>
<text text-anchor="start" x="265.5" y="-208.1" font-family="Verdana" font-size="8.00">Access</text>
<text text-anchor="start" x="278.5" y="-197.1" font-family="Verdana" font-size="8.00"> </text>
<text text-anchor="start" x="233.5" y="-186.1" font-family="Verdana" font-size="8.00" fill="#8b0000">+ networkCode: string</text>
<text text-anchor="start" x="233.5" y="-175.1" font-family="Verdana" font-size="8.00" fill="#8b0000">+ stationCode: string</text>
<text text-anchor="start" x="233.5" y="-164.1" font-family="Verdana" font-size="8.00" fill="#8b0000">+ locationCode: string</text>
<text text-anchor="start" x="233.5" y="-153.1" font-family="Verdana" font-size="8.00" fill="#8b0000">+ streamCode: string</text>
<text text-anchor="start" x="233.5" y="-142.1" font-family="Verdana" font-size="8.00" fill="#8b0000">+ user: string</text>
<text text-anchor="start" x="233.5" y="-131.1" font-family="Verdana" font-size="8.00" fill="#8b0000">+ start: datetime</text>
<text text-anchor="start" x="233.5" y="-120.1" font-family="Verdana" font-size="8.00" fill="#8b0000">+ end: datetime &#160;[0..1]</text>
<polygon fill="#000000" stroke="#000000" points="231.5,-204.5 231.5,-204.5 328.5,-204.5 328.5,-204.5 231.5,-204.5"/>
</a>
</g>
</g>
<!-- Routing -->
<g id="node5" class="node">
<title>Routing</title>
<g id="a_node5"><a xlink:href="../base/api-python.html#api-python-datamodel-routing" xlink:title="&lt;TABLE&gt;" target="_top">
<path fill="#fcf2e3" stroke="transparent" stroke-width="0.5" d="M243.5,-322C243.5,-322 153.5,-322 153.5,-322 147.5,-322 141.5,-316 141.5,-310 141.5,-310 141.5,-269 141.5,-269 141.5,-263 147.5,-257 153.5,-257 153.5,-257 243.5,-257 243.5,-257 249.5,-257 255.5,-263 255.5,-269 255.5,-269 255.5,-310 255.5,-310 255.5,-316 249.5,-322 243.5,-322"/>
<text text-anchor="start" x="182.5" y="-309.1" font-family="Verdana" font-size="8.00">Routing</text>
<text text-anchor="start" x="197" y="-298.1" font-family="Verdana" font-size="8.00"> </text>
<text text-anchor="start" x="151.5" y="-287.1" font-family="Verdana" font-size="8.00" fill="#8b0000">+ publicID: string</text>
<text text-anchor="start" x="151.5" y="-276.1" font-family="Verdana" font-size="8.00" fill="#8b0000">+ route: Route [0..*]</text>
<text text-anchor="start" x="151.5" y="-265.1" font-family="Verdana" font-size="8.00" fill="#8b0000">+ access: Access [0..*]</text>
<polygon fill="#000000" stroke="#000000" points="149.5,-305.5 149.5,-305.5 247.5,-305.5 247.5,-305.5 149.5,-305.5"/>
</a>
</g>
</g>
<!-- Routing&#45;&gt;Route -->
<g id="edge1" class="edge">
<title>Routing&#45;&gt;Route</title>
<path fill="none" stroke="#000000" d="M170.8,-246.6C165.36,-238.37 159.57,-229.62 153.92,-221.07"/>
<polygon fill="#000000" stroke="#000000" points="170.86,-246.7 177.51,-249.5 177.48,-256.71 170.84,-253.91 170.86,-246.7"/>
</g>
<!-- Routing&#45;&gt;Access -->
<g id="edge4" class="edge">
<title>Routing&#45;&gt;Access</title>
<path fill="none" stroke="#000000" d="M226.55,-246.6C232.06,-238.37 237.91,-229.62 243.64,-221.07"/>
<polygon fill="#000000" stroke="#000000" points="226.46,-246.74 226.44,-253.95 219.78,-256.71 219.8,-249.5 226.46,-246.74"/>
</g>
</g>
</svg>
