<?xml version="1.0" encoding="UTF-8" standalone="no"?>
<!DOCTYPE svg PUBLIC "-//W3C//DTD SVG 1.1//EN"
 "http://www.w3.org/Graphics/SVG/1.1/DTD/svg11.dtd">
<!-- Generated by graphviz version 2.43.0 (0)
 -->
<!-- Title: G Pages: 1 -->
<svg width="252pt" height="323pt"
 viewBox="0.00 0.00 252.00 323.00" xmlns="http://www.w3.org/2000/svg" xmlns:xlink="http://www.w3.org/1999/xlink">
<g id="graph0" class="graph" transform="scale(1 1) rotate(0) translate(4 319)">
<title>G</title>
<polygon fill="white" stroke="transparent" points="-4,4 -4,-319 248,-319 248,4 -4,4"/>
<!-- DataExtent -->
<g id="node1" class="node">
<title>DataExtent</title>
<path fill="#fcf2e3" stroke="transparent" stroke-width="0.5" d="M219,-243C219,-243 25,-243 25,-243 19,-243 13,-237 13,-231 13,-231 13,-135 13,-135 13,-129 19,-123 25,-123 25,-123 219,-123 219,-123 225,-123 231,-129 231,-135 231,-135 231,-231 231,-231 231,-237 225,-243 219,-243"/>
<text text-anchor="start" x="99" y="-230.6" font-family="Verdana" font-size="8.00">DataExtent</text>
<text text-anchor="start" x="23" y="-219.6" font-family="Verdana" font-size="8.00" fill="#8b0000">+ publicID: string</text>
<text text-anchor="start" x="23" y="-208.6" font-family="Verdana" font-size="8.00" fill="#8b0000">+ waveformID: WaveformStreamID</text>
<text text-anchor="start" x="23" y="-197.6" font-family="Verdana" font-size="8.00" fill="#8b0000">+ start: datetime</text>
<text text-anchor="start" x="23" y="-186.6" font-family="Verdana" font-size="8.00" fill="#8b0000">+ end: datetime</text>
<text text-anchor="start" x="23" y="-175.6" font-family="Verdana" font-size="8.00" fill="#8b0000">+ updated: datetime</text>
<text text-anchor="start" x="23" y="-164.6" font-family="Verdana" font-size="8.00" fill="#8b0000">+ lastScan: datetime</text>
<text text-anchor="start" x="23" y="-153.6" font-family="Verdana" font-size="8.00" fill="#8b0000">+ segmentOverflow: boolean</text>
<text text-anchor="start" x="23" y="-142.6" font-family="Verdana" font-size="8.00" fill="#8b0000">+ dataSegment: DataSegment [0..*]</text>
<text text-anchor="start" x="23" y="-131.6" font-family="Verdana" font-size="8.00" fill="#8b0000">+ dataAttributeExtent: DataAttributeExtent [0..*]</text>
</g>
<!-- DataSegment -->
<g id="node2" class="node">
<title>DataSegment</title>
<path fill="#fcf2e3" stroke="transparent" stroke-width="0.5" d="M102,-87C102,-87 12,-87 12,-87 6,-87 0,-81 0,-75 0,-75 0,-12 0,-12 0,-6 6,0 12,0 12,0 102,0 102,0 108,0 114,-6 114,-12 114,-12 114,-75 114,-75 114,-81 108,-87 102,-87"/>
<text text-anchor="start" x="28.5" y="-74.1" font-family="Verdana" font-size="8.00">DataSegment</text>
<text text-anchor="start" x="10" y="-63.1" font-family="Verdana" font-size="8.00" fill="#8b0000">+ start: datetime</text>
<text text-anchor="start" x="10" y="-52.1" font-family="Verdana" font-size="8.00" fill="#8b0000">+ end: datetime</text>
<text text-anchor="start" x="10" y="-41.1" font-family="Verdana" font-size="8.00" fill="#8b0000">+ updated: datetime</text>
<text text-anchor="start" x="10" y="-30.1" font-family="Verdana" font-size="8.00" fill="#8b0000">+ sampleRate: double</text>
<text text-anchor="start" x="10" y="-19.1" font-family="Verdana" font-size="8.00" fill="#8b0000">+ quality: string</text>
<text text-anchor="start" x="10" y="-8.1" font-family="Verdana" font-size="8.00" fill="#8b0000">+ outOfOrder: boolean</text>
</g>
<!-- DataExtent&#45;&gt;DataSegment -->
<g id="edge2" class="edge">
<title>DataExtent&#45;&gt;DataSegment</title>
<path fill="none" stroke="#000000" d="M94.06,-122.89C89.91,-114.12 85.67,-105.14 81.6,-96.54"/>
<polygon fill="#000000" stroke="#000000" points="84.7,-94.91 77.27,-87.37 78.38,-97.91 84.7,-94.91"/>
</g>
<!-- DataAttributeExtent -->
<g id="node3" class="node">
<title>DataAttributeExtent</title>
<path fill="#fcf2e3" stroke="transparent" stroke-width="0.5" d="M232,-87C232,-87 144,-87 144,-87 138,-87 132,-81 132,-75 132,-75 132,-12 132,-12 132,-6 138,0 144,0 144,0 232,0 232,0 238,0 244,-6 244,-12 244,-12 244,-75 244,-75 244,-81 238,-87 232,-87"/>
<text text-anchor="start" x="147" y="-74.1" font-family="Verdana" font-size="8.00">DataAttributeExtent</text>
<text text-anchor="start" x="142" y="-63.1" font-family="Verdana" font-size="8.00" fill="#8b0000">+ start: datetime</text>
<text text-anchor="start" x="142" y="-52.1" font-family="Verdana" font-size="8.00" fill="#8b0000">+ end: datetime</text>
<text text-anchor="start" x="142" y="-41.1" font-family="Verdana" font-size="8.00" fill="#8b0000">+ sampleRate: double</text>
<text text-anchor="start" x="142" y="-30.1" font-family="Verdana" font-size="8.00" fill="#8b0000">+ quality: string</text>
<text text-anchor="start" x="142" y="-19.1" font-family="Verdana" font-size="8.00" fill="#8b0000">+ updated: datetime</text>
<text text-anchor="start" x="142" y="-8.1" font-family="Verdana" font-size="8.00" fill="#8b0000">+ segmentCount: int</text>
</g>
<!-- DataExtent&#45;&gt;DataAttributeExtent -->
<g id="edge3" class="edge">
<title>DataExtent&#45;&gt;DataAttributeExtent</title>
<path fill="none" stroke="#000000" d="M150.37,-122.89C154.58,-114.12 158.89,-105.14 163.02,-96.54"/>
<polygon fill="#000000" stroke="#000000" points="166.25,-97.9 167.42,-87.37 159.94,-94.87 166.25,-97.9"/>
</g>
<!-- DataAvailability -->
<g id="node4" class="node">
<title>DataAvailability</title>
<path fill="#fcf2e3" stroke="transparent" stroke-width="0.5" d="M150,-315C150,-315 94,-315 94,-315 88,-315 82,-309 82,-303 82,-303 82,-291 82,-291 82,-285 88,-279 94,-279 94,-279 150,-279 150,-279 156,-279 162,-285 162,-291 162,-291 162,-303 162,-303 162,-309 156,-315 150,-315"/>
<text text-anchor="middle" x="122" y="-295.1" font-family="Verdana" font-size="8.00">DataAvailability</text>
</g>
<!-- DataAvailability&#45;&gt;DataExtent -->
<g id="edge1" class="edge">
<title>DataAvailability&#45;&gt;DataExtent</title>
<path fill="none" stroke="#000000" d="M122,-278.99C122,-271.72 122,-262.72 122,-253.17"/>
<polygon fill="#000000" stroke="#000000" points="125.5,-253.07 122,-243.07 118.5,-253.07 125.5,-253.07"/>
</g>
</g>
</svg>
