<?xml version="1.0" encoding="UTF-8" standalone="no"?>
<!DOCTYPE svg PUBLIC "-//W3C//DTD SVG 1.1//EN"
 "http://www.w3.org/Graphics/SVG/1.1/DTD/svg11.dtd">
<!-- Generated by graphviz version 2.43.0 (0)
 -->
<!-- Title: G Pages: 1 -->
<svg width="344pt" height="279pt"
 viewBox="0.00 0.00 344.00 279.00" xmlns="http://www.w3.org/2000/svg" xmlns:xlink="http://www.w3.org/1999/xlink">
<g id="graph0" class="graph" transform="scale(1 1) rotate(0) translate(4 275)">
<title>G</title>
<polygon fill="white" stroke="transparent" points="-4,4 -4,-275 340,-275 340,4 -4,4"/>
<!-- Route -->
<g id="node1" class="node">
<title>Route</title>
<path fill="#fcf2e3" stroke="transparent" stroke-width="0.5" d="M193,-199C193,-199 44,-199 44,-199 38,-199 32,-193 32,-187 32,-187 32,-113 32,-113 32,-107 38,-101 44,-101 44,-101 193,-101 193,-101 199,-101 205,-107 205,-113 205,-113 205,-187 205,-187 205,-193 199,-199 193,-199"/>
<text text-anchor="start" x="106.5" y="-186.6" font-family="Verdana" font-size="8.00">Route</text>
<text text-anchor="start" x="42.5" y="-175.6" font-family="Verdana" font-size="8.00" fill="#8b0000">+ publicID: string</text>
<text text-anchor="start" x="42.5" y="-164.6" font-family="Verdana" font-size="8.00" fill="#8b0000">+ networkCode: string</text>
<text text-anchor="start" x="42.5" y="-153.6" font-family="Verdana" font-size="8.00" fill="#8b0000">+ stationCode: string</text>
<text text-anchor="start" x="42.5" y="-142.6" font-family="Verdana" font-size="8.00" fill="#8b0000">+ locationCode: string</text>
<text text-anchor="start" x="42.5" y="-131.6" font-family="Verdana" font-size="8.00" fill="#8b0000">+ streamCode: string</text>
<text text-anchor="start" x="42.5" y="-120.6" font-family="Verdana" font-size="8.00" fill="#8b0000">+ routeArclink: RouteArclink [0..*]</text>
<text text-anchor="start" x="42.5" y="-109.6" font-family="Verdana" font-size="8.00" fill="#8b0000">+ routeSeedlink: RouteSeedlink [0..*]</text>
</g>
<!-- RouteArclink -->
<g id="node2" class="node">
<title>RouteArclink</title>
<path fill="#fcf2e3" stroke="transparent" stroke-width="0.5" d="M101,-65C101,-65 12,-65 12,-65 6,-65 0,-59 0,-53 0,-53 0,-12 0,-12 0,-6 6,0 12,0 12,0 101,0 101,0 107,0 113,-6 113,-12 113,-12 113,-53 113,-53 113,-59 107,-65 101,-65"/>
<text text-anchor="start" x="31" y="-52.1" font-family="Verdana" font-size="8.00">RouteArclink</text>
<text text-anchor="start" x="10.5" y="-41.1" font-family="Verdana" font-size="8.00" fill="#8b0000">+ address: string</text>
<text text-anchor="start" x="10.5" y="-30.1" font-family="Verdana" font-size="8.00" fill="#8b0000">+ start: datetime</text>
<text text-anchor="start" x="10.5" y="-19.1" font-family="Verdana" font-size="8.00" fill="#8b0000">+ end: datetime &#160;[0..1]</text>
<text text-anchor="start" x="10.5" y="-8.1" font-family="Verdana" font-size="8.00" fill="#8b0000">+ priority: int &#160;[0..1]</text>
</g>
<!-- Route&#45;&gt;RouteArclink -->
<g id="edge2" class="edge">
<title>Route&#45;&gt;RouteArclink</title>
<path fill="none" stroke="#000000" d="M92.57,-100.69C87.84,-91.88 82.95,-82.77 78.35,-74.21"/>
<polygon fill="#000000" stroke="#000000" points="81.32,-72.34 73.51,-65.18 75.15,-75.65 81.32,-72.34"/>
</g>
<!-- RouteSeedlink -->
<g id="node3" class="node">
<title>RouteSeedlink</title>
<path fill="#fcf2e3" stroke="transparent" stroke-width="0.5" d="M218,-54C218,-54 143,-54 143,-54 137,-54 131,-48 131,-42 131,-42 131,-23 131,-23 131,-17 137,-11 143,-11 143,-11 218,-11 218,-11 224,-11 230,-17 230,-23 230,-23 230,-42 230,-42 230,-48 224,-54 218,-54"/>
<text text-anchor="start" x="151" y="-41.1" font-family="Verdana" font-size="8.00">RouteSeedlink</text>
<text text-anchor="start" x="141.5" y="-30.1" font-family="Verdana" font-size="8.00" fill="#8b0000">+ address: string</text>
<text text-anchor="start" x="141.5" y="-19.1" font-family="Verdana" font-size="8.00" fill="#8b0000">+ priority: int &#160;[0..1]</text>
</g>
<!-- Route&#45;&gt;RouteSeedlink -->
<g id="edge3" class="edge">
<title>Route&#45;&gt;RouteSeedlink</title>
<path fill="none" stroke="#000000" d="M144.43,-100.69C151.28,-87.94 158.46,-74.56 164.6,-63.12"/>
<polygon fill="#000000" stroke="#000000" points="167.83,-64.5 169.48,-54.03 161.66,-61.19 167.83,-64.5"/>
</g>
<!-- Access -->
<g id="node4" class="node">
<title>Access</title>
<path fill="#fcf2e3" stroke="transparent" stroke-width="0.5" d="M324,-199C324,-199 235,-199 235,-199 229,-199 223,-193 223,-187 223,-187 223,-113 223,-113 223,-107 229,-101 235,-101 235,-101 324,-101 324,-101 330,-101 336,-107 336,-113 336,-113 336,-187 336,-187 336,-193 330,-199 324,-199"/>
<text text-anchor="start" x="265.5" y="-186.6" font-family="Verdana" font-size="8.00">Access</text>
<text text-anchor="start" x="233.5" y="-175.6" font-family="Verdana" font-size="8.00" fill="#8b0000">+ networkCode: string</text>
<text text-anchor="start" x="233.5" y="-164.6" font-family="Verdana" font-size="8.00" fill="#8b0000">+ stationCode: string</text>
<text text-anchor="start" x="233.5" y="-153.6" font-family="Verdana" font-size="8.00" fill="#8b0000">+ locationCode: string</text>
<text text-anchor="start" x="233.5" y="-142.6" font-family="Verdana" font-size="8.00" fill="#8b0000">+ streamCode: string</text>
<text text-anchor="start" x="233.5" y="-131.6" font-family="Verdana" font-size="8.00" fill="#8b0000">+ user: string</text>
<text text-anchor="start" x="233.5" y="-120.6" font-family="Verdana" font-size="8.00" fill="#8b0000">+ start: datetime</text>
<text text-anchor="start" x="233.5" y="-109.6" font-family="Verdana" font-size="8.00" fill="#8b0000">+ end: datetime &#160;[0..1]</text>
</g>
<!-- Routing -->
<g id="node5" class="node">
<title>Routing</title>
<path fill="#fcf2e3" stroke="transparent" stroke-width="0.5" d="M213.5,-271C213.5,-271 183.5,-271 183.5,-271 177.5,-271 171.5,-265 171.5,-259 171.5,-259 171.5,-247 171.5,-247 171.5,-241 177.5,-235 183.5,-235 183.5,-235 213.5,-235 213.5,-235 219.5,-235 225.5,-241 225.5,-247 225.5,-247 225.5,-259 225.5,-259 225.5,-265 219.5,-271 213.5,-271"/>
<text text-anchor="middle" x="198.5" y="-251.1" font-family="Verdana" font-size="8.00">Routing</text>
</g>
<!-- Routing&#45;&gt;Route -->
<g id="edge1" class="edge">
<title>Routing&#45;&gt;Route</title>
<path fill="none" stroke="#000000" d="M184.93,-234.87C178.74,-227.05 171.02,-217.3 163.05,-207.25"/>
<polygon fill="#000000" stroke="#000000" points="165.59,-204.82 156.64,-199.15 160.11,-209.16 165.59,-204.82"/>
</g>
<!-- Routing&#45;&gt;Access -->
<g id="edge4" class="edge">
<title>Routing&#45;&gt;Access</title>
<path fill="none" stroke="#000000" d="M212.24,-234.87C218.51,-227.05 226.33,-217.3 234.39,-207.25"/>
<polygon fill="#000000" stroke="#000000" points="237.36,-209.14 240.88,-199.15 231.9,-204.76 237.36,-209.14"/>
</g>
</g>
</svg>
